<svg version="1.1" id="Layer_1" xmlns="http://www.w3.org/2000/svg" xmlns:xlink="http://www.w3.org/1999/xlink" x="0px" y="0px"
	 width="100%" viewBox="0 0 378 334" enable-background="new 0 0 378 334" xml:space="preserve">
<path fill="#FEFEFE" opacity="1.000000" stroke="none" 
	d="
M374.228638,335.000000 
	C250.875046,335.000000 128.045914,334.978363 5.216921,335.104309 
	C1.519584,335.108093 0.906196,334.233521 0.909773,330.717010 
	C1.020145,222.220840 1.023741,113.724525 0.897862,5.228400 
	C0.893609,1.562482 1.723866,0.904258 5.271511,0.907455 
	C128.433853,1.018425 251.596313,1.020178 374.758636,0.900892 
	C378.388794,0.897376 379.099518,1.675340 379.095642,5.258553 
	C378.978241,113.754707 378.977905,222.251038 379.096893,330.747192 
	C379.100830,334.345886 378.366913,335.777527 374.228638,335.000000 
z"/>
<path fill="#CCCDCD" opacity="1.000000" stroke="none" 
	d="
M10.988083,273.804016 
	C10.984766,261.946472 10.984766,261.947601 22.577158,261.947632 
	C108.229645,261.947845 193.882126,261.947266 279.534607,261.948273 
	C286.058075,261.948364 286.058075,261.953430 286.064178,268.399261 
	C286.073273,278.006531 286.073273,278.006561 276.689209,278.006561 
	C190.036880,278.006561 103.384567,278.011993 16.732252,277.980072 
	C14.146000,277.979126 10.555479,279.132202 10.988083,273.804016 
z"/>
<path fill="#08D9C5" opacity="1.000000" stroke="none" 
	d="
M313.355896,275.342590 
	C315.870331,262.566986 323.932281,254.106979 335.014069,252.333405 
	C346.435699,250.505463 355.828033,255.579559 362.969421,267.659119 
	C363.475250,268.414215 363.812836,268.867249 363.967957,269.717438 
	C364.041656,270.430939 364.091217,270.862305 364.255463,271.599548 
	C369.715698,283.273010 360.172424,300.231598 346.458282,303.733063 
	C331.876251,307.456116 317.613007,299.277100 313.888367,284.442230 
	C313.785828,283.299042 313.745453,282.556366 313.598206,281.456329 
	C312.868896,279.350098 312.937805,277.565613 313.355896,275.342590 
z"/>
<path fill="#F1EEEE" opacity="1.000000" stroke="none" 
	d="
M304.000000,219.963531 
	C304.000305,214.653763 304.116638,209.833557 303.965759,205.021698 
	C303.835327,200.861938 305.473724,198.879196 309.796478,198.953201 
	C317.600372,199.086853 325.410187,199.096725 333.213684,198.952301 
	C338.024597,198.863281 339.829742,201.661621 339.934448,205.755386 
	C340.133942,213.556442 339.986450,221.366226 339.995972,229.172379 
	C339.999298,231.893158 338.725494,233.464981 336.023224,234.035080 
	C327.309174,235.873489 318.518188,235.028900 309.770416,234.664993 
	C305.976868,234.507202 303.907990,231.932175 303.992920,227.930527 
	C304.045776,225.440338 304.000946,222.948059 304.000000,219.963531 
z"/>
<path fill="#0BAAF3" opacity="1.000000" stroke="none" 
	d="
M136.018906,232.810715 
	C132.692154,232.809433 129.856171,232.705139 127.030594,232.832306 
	C123.171677,233.005981 121.512184,231.050766 121.497643,227.427429 
	C121.466240,219.599792 121.514374,211.771805 121.476074,203.944229 
	C121.456352,199.914276 123.461296,198.311005 127.388260,198.366013 
	C135.048050,198.473312 142.710800,198.445160 150.371506,198.378754 
	C154.087509,198.346558 155.905899,199.907104 155.863388,203.751938 
	C155.776886,211.578796 155.790771,219.407761 155.862534,227.234955 
	C155.899750,231.292358 153.931625,232.927475 150.004242,232.833298 
	C145.510010,232.725525 141.011154,232.809937 136.018906,232.810715 
z"/>
<path fill="#070707" opacity="1.000000" stroke="none" 
	d="
M29.846840,232.409058 
	C23.556221,232.408096 17.740883,232.328659 11.928876,232.433655 
	C7.970006,232.505173 6.089063,230.772202 6.117339,226.786026 
	C6.171536,219.145264 6.157030,211.503754 6.125577,203.862747 
	C6.110071,200.095657 7.937499,198.487808 11.669779,198.530930 
	C19.309885,198.619171 26.954575,198.678543 34.591824,198.505157 
	C39.012794,198.404770 40.454739,200.529877 40.389259,204.599182 
	C40.279690,211.408005 40.375687,218.219925 40.354610,225.030457 
	C40.334377,231.567200 39.483574,232.383011 32.815197,232.409042 
	C31.984655,232.412277 31.154091,232.409256 29.846840,232.409058 
z"/>
<path fill="#8EC450" opacity="1.000000" stroke="none" 
	d="
M232.689575,201.760498 
	C232.781433,210.330170 232.694427,218.474380 232.866135,226.613144 
	C232.960693,231.094711 231.086990,232.922943 226.612610,232.813370 
	C219.305450,232.634415 211.988617,232.657867 204.680054,232.804550 
	C200.433304,232.889786 198.488235,230.847183 198.449738,226.847931 
	C198.376160,219.204987 198.383606,211.560242 198.462418,203.917313 
	C198.502090,200.071396 200.502655,198.242615 204.458878,198.300537 
	C211.934967,198.410019 219.413788,198.330078 226.891479,198.332550 
	C229.321075,198.333359 231.577744,198.675720 232.689575,201.760498 
z"/>
<path fill="#E92424" opacity="1.000000" stroke="none" 
	d="
M91.301643,198.487656 
	C98.254448,198.487793 104.748337,198.624039 111.233299,198.441986 
	C115.790558,198.314056 117.522835,200.391022 117.451706,204.755234 
	C117.335121,211.909073 117.375214,219.066528 117.432854,226.221771 
	C117.467506,230.523605 115.693932,232.667770 111.146263,232.561295 
	C103.994453,232.393860 96.835541,232.557327 89.680229,232.503036 
	C84.196175,232.461426 83.135254,231.329727 83.102493,225.614960 
	C83.065292,219.125092 83.081604,212.634827 83.095390,206.144775 
	C83.110374,199.088776 83.608284,198.606918 91.301643,198.487656 
z"/>
<path fill="#F4473A" opacity="1.000000" stroke="none" 
	d="
M62.986427,232.598480 
	C58.328617,232.596405 54.165390,232.559082 50.003044,232.603729 
	C46.494099,232.641342 44.691910,230.892380 44.666481,227.465195 
	C44.607185,219.473221 44.619453,211.480301 44.665646,203.488144 
	C44.685852,199.992508 46.579906,198.403915 50.049549,198.423584 
	C57.875435,198.467896 65.701744,198.443665 73.527870,198.436722 
	C77.260292,198.433411 78.919693,200.220245 78.862206,204.005432 
	C78.745911,211.663300 78.759239,219.325043 78.854576,226.983490 
	C78.905899,231.105881 76.792908,232.649612 72.972588,232.604523 
	C69.809273,232.567200 66.645157,232.598083 62.986427,232.598480 
z"/>
<path fill="#50B154" opacity="1.000000" stroke="none" 
	d="
M187.515686,198.413513 
	C192.666229,198.099625 194.588425,200.445602 194.529175,204.998917 
	C194.436188,212.143402 194.518509,219.290039 194.495148,226.435669 
	C194.481277,230.675262 192.580505,232.819778 188.071198,232.712357 
	C180.763428,232.538300 173.447754,232.598969 166.136963,232.687973 
	C161.969467,232.738708 160.004669,230.869980 160.035019,226.694092 
	C160.089371,219.216415 160.147003,211.736404 160.015488,204.260666 
	C159.938965,199.911316 162.048615,198.339188 166.133209,198.392075 
	C173.111526,198.482452 180.091919,198.414078 187.515686,198.413513 
z"/>
<path fill="#FEEB40" opacity="1.000000" stroke="none" 
	d="
M243.445892,198.295166 
	C250.886353,198.293213 257.876038,198.365082 264.863312,198.267365 
	C269.444550,198.203308 271.650421,200.311584 271.637238,204.868622 
	C271.616547,212.023605 271.651550,219.178787 271.622375,226.333710 
	C271.605011,230.593887 269.499115,232.775726 265.149353,232.754044 
	C257.828094,232.717545 250.505875,232.686523 243.185272,232.765884 
	C238.686768,232.814621 236.944763,230.565567 237.001541,226.265778 
	C237.095993,219.111969 237.172363,211.951935 236.972595,204.802460 
	C236.850174,200.421387 238.482971,198.151001 243.445892,198.295166 
z"/>
<path fill="#CFE0DE" opacity="1.000000" stroke="none" 
	d="
M313.581665,284.278259 
	C315.861938,287.788788 317.224792,291.889679 320.250549,295.105438 
	C328.032654,303.376190 339.853943,305.857056 349.931854,301.188263 
	C360.295441,296.387115 365.878174,285.874237 364.268188,274.208954 
	C364.200348,273.717377 364.216980,273.214142 364.282196,272.310913 
	C369.038544,276.637299 367.349182,282.667358 366.603424,287.844604 
	C365.000275,298.974518 357.973663,306.416138 347.143311,309.245789 
	C337.114807,311.865906 327.895294,309.247742 321.022736,301.285889 
	C316.960541,296.579834 314.497162,290.749695 313.581665,284.278259 
z"/>
<path fill="#B8B9B9" opacity="1.000000" stroke="none" 
	d="
M20.320429,251.712799 
	C19.706999,253.081924 19.095064,254.347504 18.345848,252.617661 
	C17.738010,251.214249 17.955969,249.453171 17.790144,247.661316 
	C16.035894,249.395767 17.194115,252.716446 14.909194,253.253647 
	C12.398320,253.843979 13.491014,250.477661 12.300606,249.359161 
	C10.429402,249.874542 10.718672,251.944138 9.178843,252.832199 
	C6.549216,250.496780 6.873766,247.613358 7.283833,244.579559 
	C9.504098,244.620895 8.605371,246.423401 9.363936,247.130173 
	C10.341503,246.085083 11.330816,245.027435 12.333400,243.955612 
	C13.429105,244.871002 12.528774,246.738846 14.594017,247.362259 
	C14.875125,245.307755 15.643499,243.429092 18.190187,243.406265 
	C20.388819,243.386551 19.727528,245.072891 19.955627,246.632599 
	C21.094114,248.325943 21.318798,249.759583 20.320429,251.712799 
z"/>
<path fill="#CCCDCD" opacity="1.000000" stroke="none" 
	d="
M20.438919,252.106232 
	C20.040751,250.686523 20.011604,249.270660 19.988436,247.432022 
	C22.056080,246.570679 24.106993,246.229935 25.478121,244.270477 
	C26.656736,242.586121 27.659204,243.584961 28.782551,244.948349 
	C29.997343,246.145523 30.586054,247.280151 30.009920,249.000610 
	C29.281208,249.413620 28.456163,249.504929 28.436850,249.683426 
	C27.719276,256.315460 24.187723,253.961288 20.438919,252.106232 
z"/>
<path fill="#CCCDCD" opacity="1.000000" stroke="none" 
	d="
M60.289215,247.277283 
	C60.059910,242.949142 61.491562,242.475937 64.965591,244.320038 
	C68.299828,246.089966 68.007896,249.278580 68.917931,251.998138 
	C69.244736,252.974777 68.306015,253.910950 67.139671,253.835739 
	C65.137672,253.706635 62.627914,253.125793 62.479862,251.136673 
	C62.341469,249.277222 61.211311,248.697601 60.289215,247.277283 
z"/>
<path fill="#B8B9B9" opacity="1.000000" stroke="none" 
	d="
M29.736923,249.648987 
	C29.500803,248.131638 29.271091,246.981628 29.048084,245.482147 
	C31.605324,246.072739 34.278038,244.139633 37.011059,245.884216 
	C38.813316,247.034668 39.660378,248.178497 39.782551,250.083832 
	C39.843731,251.037994 40.022316,252.247604 38.838898,252.633377 
	C37.463455,253.081757 37.403679,251.886917 37.032143,250.959320 
	C36.082611,248.588699 35.336102,248.686905 34.985130,251.610870 
	C34.615517,252.285233 34.224861,252.461182 33.445335,252.422516 
	C32.481937,252.698212 32.987942,250.570267 31.831615,252.087402 
	C31.659050,252.542816 31.561892,252.717102 31.231056,253.078400 
	C29.610064,252.556503 29.807468,251.235931 29.736923,249.648987 
z"/>
<path fill="#CCCDCD" opacity="1.000000" stroke="none" 
	d="
M55.545845,243.475159 
	C59.927975,245.740692 57.392994,249.508453 57.740967,252.637772 
	C57.834473,253.478683 55.968502,253.679001 56.010223,253.052429 
	C56.224735,249.830933 51.493858,247.022934 55.545845,243.475159 
z"/>
<path fill="#CFE0DE" opacity="1.000000" stroke="none" 
	d="
M313.185181,275.047729 
	C313.576508,276.689697 313.657928,278.464508 313.615356,280.669159 
	C311.169128,279.346527 311.712158,277.295837 313.185181,275.047729 
z"/>
<path fill="#CCCDCD" opacity="1.000000" stroke="none" 
	d="
M31.216948,253.451126 
	C31.013803,253.043716 31.030226,252.822006 31.079454,252.268463 
	C31.527195,251.585602 32.002907,251.453659 32.867359,251.743393 
	C33.585403,251.953384 33.975445,251.960632 34.657364,251.969727 
	C34.142620,253.295105 32.939358,253.781937 31.216948,253.451126 
z"/>
<path fill="#CFE0DE" opacity="1.000000" stroke="none" 
	d="
M364.224670,269.846436 
	C363.670410,269.522095 363.348694,269.044647 363.076843,268.267242 
	C364.092651,268.139832 365.049988,268.319031 364.224670,269.846436 
z"/>
<path fill="#B8B9B9" opacity="1.000000" stroke="none" 
	d="
M31.461632,269.354553 
	C111.489044,269.051514 191.395599,269.051514 271.302155,269.051514 
	C271.302124,269.690826 271.302063,270.330170 271.302032,270.969482 
	C191.716599,270.969482 112.131157,270.969482 32.049538,270.946655 
	C31.373156,270.520081 31.307760,270.097107 31.461632,269.354553 
z"/>
<path fill="#19D8C6" opacity="1.000000" stroke="none" 
	d="
M31.462700,268.741302 
	C31.576784,269.467865 31.571089,269.884247 31.559372,270.612183 
	C30.273546,274.244232 28.163692,276.380585 24.336985,275.302246 
	C21.706043,274.560883 20.036787,272.733978 20.121546,269.813690 
	C20.202715,267.016998 21.535286,264.999451 24.352434,264.370728 
	C27.848684,263.590454 30.135836,265.142822 31.462700,268.741302 
z"/>
<path fill="#01675E" opacity="1.000000" stroke="none" 
	d="
M333.210846,274.482910 
	C334.625153,270.898804 336.713776,267.874054 340.498627,269.323914 
	C343.547882,270.492004 346.639923,272.783020 344.875854,277.231750 
	C344.590363,277.951782 344.780823,278.873749 344.804504,279.700836 
	C344.898987,283.001892 345.010071,285.910553 340.196533,286.109406 
	C335.732635,286.293854 333.743744,284.609833 333.548767,280.341003 
	C333.465790,278.524200 333.337646,276.709442 333.210846,274.482910 
z"/>
<path fill="#CFE0DE" opacity="1.000000" stroke="none" 
	d="
M33.179779,251.627640 
	C32.730663,251.958511 32.265968,251.970901 31.456766,251.959930 
	C31.282505,250.665024 30.238756,248.571274 32.176823,248.415222 
	C34.087208,248.261383 33.265198,250.155930 33.179779,251.627640 
z"/>
</svg>