<svg version="1.1" id="Layer_1" xmlns="http://www.w3.org/2000/svg" xmlns:xlink="http://www.w3.org/1999/xlink" x="0px" y="0px"
	 width="100%" viewBox="0 0 253 252" enable-background="new 0 0 253 252" xml:space="preserve">
<path fill="#010101" opacity="1.000000" stroke="none" 
	d="
M44.000000,253.000000 
	C29.673107,253.000000 15.346215,253.000000 1.014492,253.000000 
	C1.009661,169.044189 1.009661,85.088371 1.009661,1.066281 
	C85.251205,1.066281 169.502487,1.066281 253.876877,1.066281 
	C253.876877,84.880013 253.876877,168.760269 253.876877,253.000000 
	C196.312943,253.000000 138.625122,253.000000 80.467987,252.531342 
	C79.998344,243.432236 79.787743,234.794495 80.086952,226.174438 
	C80.235336,221.899475 78.662209,220.796753 74.640656,220.922668 
	C66.350281,221.182236 58.041027,221.173157 49.749683,220.929489 
	C45.477757,220.803955 43.794296,222.181091 43.925732,226.613037 
	C44.186367,235.401703 44.001019,244.203583 44.000000,253.000000 
M193.606461,150.752655 
	C194.683914,149.160004 195.761368,147.567368 197.119629,145.753815 
	C197.119629,145.753815 197.186920,145.402939 197.799438,145.085907 
	C199.481323,142.045105 201.163223,139.004303 203.231720,135.365936 
	C203.494537,134.244446 203.757355,133.122971 204.445129,131.497650 
	C205.013885,130.350388 205.582626,129.203125 206.720459,127.686836 
	C212.709213,115.120895 213.705139,101.795113 212.190842,88.251076 
	C211.099472,78.489853 209.077805,68.877853 203.272400,59.863068 
	C202.749329,58.936291 202.226242,58.009514 201.752716,56.417561 
	C200.891602,55.189919 200.030487,53.962280 199.051910,52.352760 
	C199.051910,52.352760 198.770950,52.068703 198.765091,51.459282 
	C198.228592,50.890652 197.692108,50.322021 196.946655,49.223152 
	C196.554550,48.820538 196.162445,48.417923 195.704010,47.386379 
	C194.847198,46.478664 193.990402,45.570946 192.988632,44.082874 
	C192.303391,43.396889 191.618149,42.710903 190.829666,41.427795 
	C190.229111,40.935509 189.628540,40.443222 188.820328,39.396973 
	C188.219742,38.907413 187.619156,38.417858 186.910431,37.447330 
	C186.719559,37.143314 186.444809,36.983032 185.873795,36.368065 
	C184.901855,35.620975 183.929916,34.873886 182.700897,33.584675 
	C181.884384,33.023663 181.067856,32.462646 180.009048,31.348028 
	C179.337646,30.957247 178.666260,30.566465 177.649109,29.667934 
	C176.617661,29.049162 175.586212,28.430389 174.233734,27.244987 
	C173.488083,26.875130 172.742432,26.505270 171.791595,25.851608 
	C171.791595,25.851608 171.441513,25.841869 171.138916,25.311058 
	C170.421783,25.005831 169.704636,24.700602 168.459259,23.908047 
	C167.369934,23.433416 166.280609,22.958786 164.910400,22.099552 
	C164.468384,21.954990 164.026382,21.810431 163.135239,21.114941 
	C157.398239,19.328487 151.661240,17.542034 145.255020,15.359312 
	C144.488403,15.287574 143.721771,15.215836 142.656006,14.801825 
	C142.094849,14.816581 141.533676,14.831337 140.339767,14.573063 
	C139.887100,14.590895 139.434448,14.608727 138.452362,14.273806 
	C137.617279,14.235985 136.782181,14.198163 135.252274,13.754769 
	C130.190155,13.897220 125.128036,14.039671 119.344208,14.057398 
	C118.873978,14.170003 118.403755,14.282608 117.223946,14.190193 
	C115.835541,14.520457 114.447128,14.850721 112.352623,15.113883 
	C111.913223,15.271410 111.473816,15.428937 110.277634,15.411233 
	C94.786255,18.737080 81.118973,25.454374 69.529388,37.260174 
	C69.059303,37.858112 68.589226,38.456055 67.525864,39.246254 
	C66.625793,40.356178 65.725723,41.466103 64.201462,42.828556 
	C63.188023,44.237946 62.174583,45.647335 60.672295,47.316963 
	C60.410557,47.790627 60.148819,48.264290 59.335323,48.974880 
	C58.984039,49.657726 58.632751,50.340569 57.950943,51.280937 
	C57.950943,51.280937 57.867947,51.691643 57.276760,51.990776 
	C56.581238,53.332626 55.885715,54.674473 54.697506,56.502365 
	C54.044891,57.961205 53.392277,59.420044 52.257950,61.230259 
	C52.076759,61.785210 51.895569,62.340160 51.203991,63.271656 
	C50.703461,64.663536 50.202930,66.055412 49.156506,67.876785 
	C48.668243,69.610924 48.179981,71.345062 47.276440,73.775955 
	C46.558762,77.192474 45.841084,80.608986 44.715290,84.583450 
	C44.657379,85.710297 44.599468,86.837135 44.248821,88.740005 
	C44.212200,89.839752 44.175575,90.939499 43.750298,92.725410 
	C43.884636,96.467628 44.018978,100.209839 44.043186,104.753693 
	C44.224247,105.805992 44.405312,106.858299 44.337612,108.587364 
	C44.617561,109.712090 44.897511,110.836815 45.130390,112.730408 
	C45.342957,113.461197 45.555523,114.191986 45.580856,115.658997 
	C47.555897,121.229996 49.530941,126.800995 51.549919,132.417816 
	C51.549919,132.417816 51.599964,132.378937 51.625587,132.995987 
	C52.046207,133.677185 52.466824,134.358398 52.905087,135.706375 
	C53.357609,136.460419 53.810131,137.214478 54.257267,138.631378 
	C55.122223,139.861511 55.987179,141.091660 56.914204,142.712402 
	C56.914204,142.712402 57.210522,142.974380 57.217094,143.588669 
	C57.758396,144.174545 58.299698,144.760422 58.918922,145.725067 
	C58.918922,145.725067 59.217831,145.970398 59.268459,146.604919 
	C60.123779,147.524582 60.979099,148.444244 61.931461,149.740540 
	C61.931461,149.740540 62.248871,149.965332 62.302986,150.617111 
	C64.163300,152.479614 66.023605,154.342102 68.097946,156.718170 
	C68.650681,157.201111 69.203415,157.684052 69.939095,158.816055 
	C72.970535,161.170898 76.001984,163.525742 79.244438,166.157074 
	C79.244438,166.157074 79.580971,166.244980 79.845337,166.824844 
	C80.570213,167.192062 81.295090,167.559280 82.226067,168.191895 
	C82.226067,168.191895 82.554420,168.263321 82.873299,168.872635 
	C92.374413,175.175751 102.584831,179.582352 114.702812,180.803314 
	C115.146942,180.824997 115.591072,180.846664 116.607117,181.351105 
	C118.102142,181.384705 119.597160,181.418289 121.919838,181.691055 
	C123.927200,181.703384 125.934570,181.715714 128.600174,182.008209 
	C129.750717,181.907516 130.901260,181.806824 132.656433,181.805145 
	C133.052475,181.718323 133.448502,181.631485 134.519928,181.773849 
	C136.332642,181.466263 138.145370,181.158691 140.637253,180.924057 
	C141.068787,180.791779 141.500320,180.659485 142.723923,180.739777 
	C155.162994,178.643082 166.743591,174.545181 176.822281,166.211945 
	C176.822281,166.211945 176.993164,165.961014 177.675110,165.880966 
	C180.914352,162.991348 184.153595,160.101746 187.776230,157.062164 
	C188.018982,156.897766 188.160858,156.670395 188.826843,156.124893 
	C190.214951,154.414917 191.603073,152.704926 193.000000,151.000000 
	C193.000000,151.000000 192.994293,150.991318 193.606461,150.752655 
M192.400284,236.562607 
	C191.375046,235.995178 190.349792,235.427765 189.177673,234.513245 
	C188.765213,234.418442 188.352768,234.323624 187.940308,234.228821 
	C187.960541,234.485794 187.980789,234.742783 187.689255,235.810318 
	C187.769913,237.534058 187.850571,239.257812 187.687775,241.278107 
	C188.344070,241.283157 189.000366,241.288193 190.383041,241.092361 
	C191.448257,240.427887 192.513458,239.763397 193.668686,239.727692 
	C193.788605,241.514679 193.831451,243.445175 196.880875,240.923401 
	C198.097061,240.060974 199.313232,239.198563 200.989609,238.009781 
	C198.723312,236.603378 197.123856,235.534302 195.425018,234.657928 
	C195.223175,234.553787 194.478348,235.502228 193.588165,236.586212 
	C193.382675,236.722122 193.177170,236.858047 192.400284,236.562607 
M130.051712,209.413879 
	C130.139572,211.108963 130.227432,212.804031 130.327881,214.741974 
	C133.253616,212.631485 135.590591,210.945694 137.937485,209.253372 
	C138.213684,209.817810 138.489883,210.382233 138.561401,210.528366 
	C141.466293,208.818375 144.295776,207.152786 146.960922,205.583939 
	C146.555710,204.974884 146.025345,204.177719 145.644974,203.606003 
	C144.327698,205.242340 143.325638,206.487122 142.323563,207.731903 
	C141.125748,205.689178 139.927948,203.646439 138.632736,201.437607 
	C138.409393,203.277679 138.204559,204.965256 138.135803,205.531754 
	C135.640488,204.751160 133.227982,203.996475 130.302277,203.081253 
	C130.184021,205.657639 130.117325,207.110931 130.051712,209.413879 
M128.296509,241.024384 
	C129.449554,240.197739 130.602600,239.371094 132.240524,238.196823 
	C129.924133,236.722351 128.068481,235.541168 126.018707,234.236420 
	C124.933342,240.564316 124.933342,240.564316 128.296509,241.024384 
z"/>
<path fill="#0E0303" opacity="1.000000" stroke="none" 
	d="
M44.468658,253.000000 
	C44.001019,244.203583 44.186367,235.401703 43.925732,226.613037 
	C43.794296,222.181091 45.477757,220.803955 49.749683,220.929489 
	C58.041027,221.173157 66.350281,221.182236 74.640656,220.922668 
	C78.662209,220.796753 80.235336,221.899475 80.086952,226.174438 
	C79.787743,234.794495 79.998344,243.432236 79.999329,252.531342 
	C68.312439,253.000000 56.624878,253.000000 44.468658,253.000000 
M60.062084,234.953949 
	C58.534058,235.980606 57.006031,237.007263 55.090950,238.293976 
	C57.736683,239.930389 59.648846,241.113083 62.139709,242.653717 
	C62.139709,241.145889 62.139709,240.379639 62.995880,239.759903 
	C64.698761,240.587219 66.401642,241.414536 68.481216,242.424850 
	C68.481216,239.285294 68.481216,236.759430 68.481216,234.813477 
	C65.649185,234.813477 63.173664,234.813477 60.062084,234.953949 
z"/>
<path fill="#4CDD8D" opacity="1.000000" stroke="none" 
	d="
M51.714378,62.895103 
	C51.895569,62.340160 52.076759,61.785210 52.898376,61.232777 
	C57.795925,61.479591 62.053127,61.859211 66.310104,61.856644 
	C67.185661,61.856117 68.823746,60.420601 68.816185,59.659367 
	C68.747925,52.789280 68.391235,45.922054 68.119141,39.053993 
	C68.589226,38.456055 69.059303,37.858112 70.139801,37.315552 
	C75.122353,37.908306 79.483360,38.752018 83.869232,38.911240 
	C90.439186,39.149750 91.758415,37.403202 92.070229,30.713747 
	C92.205681,27.807798 93.313461,24.947176 93.984909,22.529865 
	C93.995461,27.137762 93.730484,31.310354 94.164154,35.409023 
	C94.301285,36.705128 96.232315,38.731712 97.468452,38.829453 
	C102.409874,39.220177 107.416626,39.196541 112.362755,38.831875 
	C113.629730,38.738461 115.788010,36.836365 115.790352,35.761410 
	C115.804718,29.175877 115.316887,22.589251 115.244019,15.995573 
	C115.491707,15.988158 115.987045,15.975837 116.373520,16.091108 
	C117.172256,17.699568 117.891548,19.182865 117.940018,20.687771 
	C118.094101,25.471668 118.127930,30.268381 117.952103,35.050724 
	C117.840179,38.094902 119.028511,39.344296 122.463181,39.001469 
	C126.950912,39.001755 130.975464,39.001183 135.393585,38.998726 
	C138.864944,39.276463 139.142944,37.308643 138.997284,34.534981 
	C138.997818,29.713680 138.996918,25.357004 138.997635,20.549236 
	C138.993423,18.274284 138.987610,16.450420 138.981781,14.626558 
	C139.434448,14.608727 139.887100,14.590895 140.659882,14.995979 
	C140.992416,15.609415 141.004837,15.799934 141.013474,16.459681 
	C141.007095,22.923361 141.104614,28.920240 140.959412,34.911240 
	C140.887695,37.870197 141.871445,39.165428 144.970184,39.044392 
	C149.459213,38.869053 153.983902,39.250992 158.440887,38.834076 
	C159.718338,38.714581 161.648102,36.775589 161.832077,35.467422 
	C162.314331,32.038158 161.998810,28.496691 162.002472,24.631477 
	C162.010788,23.527937 162.017838,22.792862 162.420532,21.982759 
	C163.072220,21.827112 163.328293,21.746490 163.584366,21.665867 
	C164.026382,21.810431 164.468384,21.954990 165.000641,22.795792 
	C165.062729,27.466852 164.885300,31.449657 165.097290,35.411625 
	C165.161011,36.602573 166.319382,38.746052 166.958344,38.739361 
	C173.647186,38.669327 180.332367,38.250546 187.018570,37.928299 
	C187.619156,38.417858 188.219742,38.907413 188.896439,40.013767 
	C188.976028,41.085110 188.979492,41.539654 188.711151,42.309193 
	C188.300552,48.085476 187.975861,53.553944 188.186264,59.001755 
	C188.226364,60.040199 190.306839,61.726898 191.572906,61.854488 
	C195.356689,62.235794 199.203491,61.991657 203.155624,62.237633 
	C203.517517,62.987217 203.749466,63.490925 203.515839,63.995129 
	C199.397964,63.997177 195.740631,64.117531 192.094955,63.962822 
	C189.159470,63.838249 187.837448,64.839615 187.958374,67.943321 
	C188.132736,72.418907 188.115616,76.910042 187.967194,81.387489 
	C187.851898,84.865631 189.401093,86.125946 192.752960,86.034134 
	C198.559052,85.875130 204.370941,85.927223 210.324005,86.073105 
	C210.257462,86.828659 210.047318,87.401871 209.383728,87.982628 
	C203.439148,87.992516 197.940414,88.171234 192.459625,87.934441 
	C188.878204,87.779694 187.763260,89.189735 187.949448,92.594604 
	C188.167191,96.576256 188.193146,100.590958 187.944138,104.568901 
	C187.717651,108.186867 189.259796,109.161285 192.625351,109.058113 
	C198.442291,108.879784 204.270157,109.057358 210.101837,109.407753 
	C210.080032,110.158287 210.049850,110.586693 209.549072,111.009521 
	C202.369888,111.015472 195.661270,111.027000 188.590561,111.024033 
	C187.474304,110.022606 186.720154,109.035675 185.978729,107.574966 
	C185.663803,99.736061 185.336166,92.370934 185.282288,84.692131 
	C185.697464,78.582100 185.987747,72.781937 185.840149,66.992935 
	C185.814224,65.976700 183.998337,64.213127 182.930359,64.151131 
	C177.793243,63.852901 172.620041,63.860897 167.482208,64.154724 
	C166.446823,64.213943 164.678162,65.969475 164.661911,66.965996 
	C164.559189,73.263535 164.854858,79.567574 164.693222,85.784775 
	C160.938812,83.301796 157.510162,80.903511 154.130478,78.539467 
	C157.358780,72.899376 160.302628,67.756264 163.509567,62.153534 
	C161.849564,62.017395 160.897507,61.939316 160.048187,61.497704 
	C160.767471,55.831360 161.376190,50.527626 162.003479,45.226089 
	C162.393570,41.929211 160.864975,41.016460 157.682648,40.932407 
	C140.295731,40.473194 140.382172,40.396988 140.927567,57.814476 
	C141.031555,61.135269 142.196259,62.178741 145.360626,62.046371 
	C150.175705,61.844948 155.003479,61.947014 159.705444,62.231087 
	C158.708755,63.973557 157.832474,65.405128 156.931351,66.439453 
	C154.793777,65.360260 152.681503,64.095963 150.568192,64.094200 
	C139.711533,64.085136 141.086411,62.318890 140.750519,73.535995 
	C139.993942,73.372307 139.509964,73.136116 139.013458,72.453178 
	C139.000885,71.179993 138.896729,70.337898 139.018173,69.529701 
	C139.665359,65.222466 138.015869,63.512436 133.551910,63.922215 
	C129.617935,64.283340 125.594887,63.726925 121.674706,64.156090 
	C120.353363,64.300751 118.602417,66.020081 118.153244,67.383820 
	C117.422997,69.600998 118.595596,71.092644 121.303864,71.051888 
	C122.527054,71.033478 123.759781,71.648285 124.666458,72.185875 
	C121.226555,72.765938 118.108383,73.135941 115.078720,73.140121 
	C114.928604,69.919495 115.042381,64.686729 114.394913,64.590775 
	C109.741989,63.901226 104.931999,64.192520 100.180595,64.386414 
	C99.771416,64.403107 99.425362,65.966537 98.739349,66.702164 
	C97.640671,65.050926 96.852646,63.508991 96.528152,61.970467 
	C101.970451,61.980179 106.974869,62.268234 111.912148,61.818813 
	C113.367874,61.686295 115.640923,59.583481 115.800301,58.185368 
	C116.304527,53.762051 116.304909,49.208290 115.797531,44.785587 
	C115.638008,43.395138 113.350891,41.321453 111.880974,41.179249 
	C107.112785,40.717972 102.265823,40.876610 97.463608,41.102619 
	C96.310280,41.156902 94.219986,42.430691 94.243462,43.083073 
	C94.470451,49.391033 92.291008,55.971066 95.639740,61.922028 
	C92.304306,61.732128 92.805138,63.242210 93.776932,64.945702 
	C95.810852,68.511032 98.056625,71.974838 99.799759,75.676086 
	C100.398911,76.948280 100.397980,79.528870 99.569054,80.256927 
	C97.005173,82.508827 93.910576,84.156479 91.069931,85.620377 
	C91.390495,78.922562 91.794525,72.642624 91.770851,66.364296 
	C91.767868,65.572777 89.553322,64.188683 88.299492,64.110992 
	C83.825371,63.833790 79.321136,64.092712 74.833359,63.967350 
	C72.097282,63.890926 70.886063,64.882591 70.968147,67.719093 
	C71.098015,72.206573 71.140953,76.706367 70.956810,81.190109 
	C70.801659,84.967949 72.531036,86.160980 76.071770,86.044647 
	C81.056274,85.880882 86.050629,86.016861 90.917587,86.322578 
	C89.554428,87.794815 88.314453,88.969139 86.866089,89.794189 
	C81.995796,89.023361 77.337677,88.497856 72.666603,88.327515 
	C72.152100,88.308762 71.129723,90.306740 71.084969,91.399742 
	C70.901405,95.882919 70.836769,100.387978 71.105545,104.862320 
	C71.186455,106.209206 72.488525,107.482750 73.231186,108.789886 
	C74.357887,107.747757 75.613708,106.811630 76.578377,105.636490 
	C77.766228,104.189499 78.711441,102.543312 79.755150,101.345741 
	C78.147461,108.141396 76.546143,114.574532 74.632385,121.204865 
	C72.270439,124.141693 72.025368,127.224129 74.929848,129.030640 
	C77.544495,130.656876 80.917061,131.064590 83.856964,132.392853 
	C81.085098,133.183945 78.414452,133.897827 75.737381,133.922836 
	C72.356064,133.954407 70.845627,135.185638 70.966141,138.652969 
	C71.116493,142.978958 71.086143,147.316116 70.978401,151.644577 
	C70.897415,154.898163 72.414902,156.107803 75.538490,156.023056 
	C79.700012,155.910141 83.872566,155.863373 88.029678,156.040146 
	C91.130646,156.172028 92.152161,154.867416 92.039207,151.905792 
	C91.886978,147.913971 92.018188,143.911362 92.333038,139.983154 
	C93.110794,140.671906 93.583267,141.290878 94.036026,142.382248 
	C94.011032,145.493484 94.150566,148.142487 93.966003,150.768723 
	C93.700287,154.549774 95.131508,156.285706 99.074913,156.042114 
	C102.359871,155.839172 105.669006,156.027817 108.859985,156.425201 
	C105.105644,157.205093 101.465752,157.807739 97.809540,157.932571 
	C95.115929,158.024506 93.873550,158.869873 93.970322,161.688736 
	C94.100540,165.481705 93.998192,169.282669 93.703690,173.033264 
	C92.930618,172.678925 92.449532,172.371536 91.978363,171.594391 
	C91.991409,167.992935 91.894814,164.857010 92.027466,161.730804 
	C92.145103,158.958557 90.985054,157.901794 88.240425,157.967728 
	C82.804092,158.098282 77.363152,158.037064 71.561691,158.048203 
	C70.718224,158.083191 70.237190,158.125092 69.756149,158.166992 
	C69.203415,157.684052 68.650681,157.201111 68.046532,156.097473 
	C67.984093,154.986618 67.973076,154.496445 68.245262,153.699951 
	C68.675362,148.116455 69.062912,142.826935 68.792244,137.571289 
	C68.728218,136.328049 66.485817,134.239594 65.188194,134.194672 
	C61.102592,134.053223 56.989742,134.698715 52.887444,135.039597 
	C52.466824,134.358398 52.046207,133.677185 52.101875,132.585632 
	C56.727116,132.116882 60.880848,131.912491 65.023430,132.048325 
	C68.092445,132.148956 69.149353,130.909897 69.040245,127.938156 
	C68.881943,123.626442 68.872284,119.299583 69.042526,114.988785 
	C69.163239,111.931953 67.932526,110.888710 64.949791,110.957329 
	C58.642879,111.102417 52.330353,111.003288 46.001541,110.666885 
	C45.970333,109.878784 45.957710,109.428131 46.417145,108.982788 
	C49.216492,108.992676 51.546047,109.065186 53.870598,108.987625 
	C58.645607,108.828323 65.454315,110.394577 67.658279,107.909332 
	C70.216316,105.024818 68.510246,98.530441 69.065430,93.649628 
	C69.615845,88.810783 67.500076,87.801880 63.107143,87.884422 
	C57.396671,87.991722 51.671165,87.299202 45.957603,86.625992 
	C45.979042,85.866974 45.995007,85.432892 46.423653,85.062721 
	C53.273434,85.392319 59.712742,85.826462 66.145248,85.742119 
	C67.110565,85.729454 68.758598,83.343475 68.861832,81.963448 
	C69.207870,77.337791 68.877121,72.666222 69.042328,68.020653 
	C69.149788,64.998764 67.988159,63.981106 64.982254,63.926308 
	C60.554836,63.845592 56.136551,63.263592 51.714378,62.895103 
M139.001190,55.388344 
	C139.000565,52.063789 138.862289,48.731884 139.039413,45.416828 
	C139.204956,42.318691 138.283936,40.780201 134.868912,40.948715 
	C130.557480,41.161465 126.222122,41.133888 121.907524,40.956444 
	C118.757454,40.826897 117.860870,42.245594 117.962845,45.139748 
	C118.109085,49.290272 118.193214,53.461605 117.941116,57.601963 
	C117.718979,61.250233 119.319298,62.233616 122.648872,62.048054 
	C126.294548,61.844879 129.990204,61.708168 133.609833,62.076099 
	C138.228546,62.545593 139.631485,60.540260 139.001190,55.388344 
M165.099533,42.896523 
	C165.066635,48.052036 164.810638,53.222649 165.157852,58.352432 
	C165.244537,59.632954 167.191437,61.713654 168.427811,61.825188 
	C173.048096,62.241993 177.749496,62.238338 182.372467,61.837959 
	C183.663116,61.726185 185.720779,59.785244 185.824860,58.548618 
	C186.227997,53.758686 186.095047,48.909752 185.893784,44.093990 
	C185.851059,43.071625 184.669159,41.225552 184.032608,41.234398 
	C177.814255,41.320816 171.600266,41.720520 165.099533,42.896523 
M91.895988,42.911819 
	C91.375633,42.336040 90.869530,41.275150 90.332741,41.259388 
	C84.854385,41.098492 79.358330,40.904930 73.900284,41.247444 
	C72.862122,41.312595 71.257072,43.627033 71.141006,45.006916 
	C70.779861,49.300716 71.058006,53.644890 70.991463,57.968033 
	C70.944580,61.014236 72.512924,62.065945 75.347313,62.014912 
	C79.503838,61.940071 83.663727,61.937679 87.820198,62.013218 
	C90.771996,62.066864 92.060524,60.731785 92.012802,57.799404 
	C91.937035,53.143806 91.984200,48.486210 91.895988,42.911819 
z"/>
<path fill="#3ED983" opacity="1.000000" stroke="none" 
	d="
M93.995667,173.080200 
	C93.998192,169.282669 94.100540,165.481705 93.970322,161.688736 
	C93.873550,158.869873 95.115929,158.024506 97.809540,157.932571 
	C101.465752,157.807739 105.105644,157.205093 108.869484,156.413177 
	C108.986427,156.018967 109.001297,155.997772 109.244087,156.003784 
	C109.486877,156.009811 109.972557,156.017426 110.118889,156.321793 
	C112.844337,159.083908 115.423454,161.541672 118.054726,164.339111 
	C121.406868,167.786270 124.706863,170.893738 128.151520,174.293610 
	C129.528610,176.375320 130.761032,178.164627 131.630875,179.955536 
	C130.159500,180.547424 129.050720,181.137726 127.941933,181.728043 
	C125.934570,181.715714 123.927200,181.703384 121.366653,181.283020 
	C119.220711,180.872772 117.627953,180.870560 116.035202,180.868347 
	C115.591072,180.846664 115.146942,180.824997 114.253296,180.359558 
	C107.201073,177.637283 100.598366,175.358749 93.995667,173.080200 
z"/>
<path fill="#3EDA83" opacity="1.000000" stroke="none" 
	d="
M45.952133,86.950920 
	C51.671165,87.299202 57.396671,87.991722 63.107143,87.884422 
	C67.500076,87.801880 69.615845,88.810783 69.065430,93.649628 
	C68.510246,98.530441 70.216316,105.024818 67.658279,107.909332 
	C65.454315,110.394577 58.645607,108.828323 53.870598,108.987625 
	C51.546047,109.065186 49.216492,108.992676 46.306137,108.786423 
	C45.344177,108.360031 44.965279,108.135315 44.586376,107.910599 
	C44.405312,106.858299 44.224247,105.805992 44.347771,104.039017 
	C44.481220,99.562645 44.310085,95.800949 44.138954,92.039246 
	C44.175575,90.939499 44.212200,89.839752 44.577332,88.232773 
	C45.254604,87.467339 45.603371,87.209129 45.952133,86.950920 
z"/>
<path fill="#3EDA83" opacity="1.000000" stroke="none" 
	d="
M51.459183,63.083382 
	C56.136551,63.263592 60.554836,63.845592 64.982254,63.926308 
	C67.988159,63.981106 69.149788,64.998764 69.042328,68.020653 
	C68.877121,72.666222 69.207870,77.337791 68.861832,81.963448 
	C68.758598,83.343475 67.110565,85.729454 66.145248,85.742119 
	C59.712742,85.826462 53.273434,85.392319 46.322411,84.860306 
	C45.647488,84.323303 45.419128,84.133820 45.123405,84.025505 
	C45.841084,80.608986 46.558762,77.192474 47.772041,73.275284 
	C48.745892,70.998833 49.224148,69.223068 49.702404,67.447296 
	C50.202930,66.055412 50.703461,64.663536 51.459183,63.083382 
z"/>
<path fill="#3EDA83" opacity="1.000000" stroke="none" 
	d="
M114.996338,16.002987 
	C115.316887,22.589251 115.804718,29.175877 115.790352,35.761410 
	C115.788010,36.836365 113.629730,38.738461 112.362755,38.831875 
	C107.416626,39.196541 102.409874,39.220177 97.468452,38.829453 
	C96.232315,38.731712 94.301285,36.705128 94.164154,35.409023 
	C93.730484,31.310354 93.995461,27.137762 94.318100,22.364437 
	C100.108810,19.685562 105.571617,17.636013 111.034416,15.586464 
	C111.473816,15.428937 111.913223,15.271410 112.887497,15.353315 
	C113.947029,15.729494 114.471687,15.866241 114.996338,16.002987 
z"/>
<path fill="#3EDA83" opacity="1.000000" stroke="none" 
	d="
M46.020130,111.004333 
	C52.330353,111.003288 58.642879,111.102417 64.949791,110.957329 
	C67.932526,110.888710 69.163239,111.931953 69.042526,114.988785 
	C68.872284,119.299583 68.881943,123.626442 69.040245,127.938156 
	C69.149353,130.909897 68.092445,132.148956 65.023430,132.048325 
	C60.880848,131.912491 56.727116,132.116882 52.089066,132.277115 
	C51.599964,132.378937 51.549919,132.417816 51.643051,132.004776 
	C49.746819,126.035416 47.757454,120.479095 45.768089,114.922775 
	C45.555523,114.191986 45.342957,113.461197 45.343605,112.236282 
	C45.768375,111.532082 45.922813,111.286148 46.020130,111.004333 
z"/>
<path fill="#38C878" opacity="1.000000" stroke="none" 
	d="
M110.656021,15.498849 
	C105.571617,17.636013 100.108810,19.685562 94.312813,21.900539 
	C93.313461,24.947176 92.205681,27.807798 92.070229,30.713747 
	C91.758415,37.403202 90.439186,39.149750 83.869232,38.911240 
	C79.483360,38.752018 75.122353,37.908306 70.409523,37.204254 
	C81.118973,25.454374 94.786255,18.737080 110.656021,15.498849 
z"/>
<path fill="#41C77D" opacity="1.000000" stroke="none" 
	d="
M188.201843,156.380081 
	C188.160858,156.670395 188.018982,156.897766 187.230865,157.095352 
	C185.803848,157.426025 184.922180,157.723495 183.569550,158.015228 
	C181.786377,158.006393 180.474167,158.001144 179.161942,158.000580 
	C165.009384,157.994492 165.009384,157.994705 164.708191,172.109161 
	C163.613403,172.510056 162.806931,172.768509 162.000076,172.557495 
	C161.999023,168.673416 161.857056,165.251221 162.039764,161.846466 
	C162.203720,158.791107 160.860092,157.691803 158.000000,157.663818 
	C158.000198,156.889359 158.000412,156.446823 158.408966,155.999008 
	C164.221954,155.642502 161.139481,151.424332 162.376831,149.002396 
	C163.500778,149.001373 164.250076,149.001602 164.999023,149.445282 
	C164.252426,154.538025 165.904343,156.622925 170.897858,156.075272 
	C174.506592,155.679489 178.194168,155.932816 181.844360,156.006592 
	C184.803864,156.066406 186.061539,154.695663 186.007721,151.781464 
	C185.934158,147.799149 185.739548,143.793350 186.064529,139.836044 
	C186.451416,135.124954 184.489487,133.381317 180.010895,133.635803 
	C180.228043,132.667511 180.254837,131.734909 180.666748,131.511078 
	C185.175797,129.061020 186.278900,125.057373 186.082748,120.339867 
	C186.059006,119.768768 186.659775,119.171707 187.601257,117.402435 
	C187.798508,120.167862 187.899567,121.584541 188.000244,123.455467 
	C187.999954,124.727264 188.107437,125.561661 187.982361,126.359596 
	C187.263718,130.944275 189.247757,132.501022 193.725403,132.065598 
	C197.126892,131.734818 200.586456,132.000946 204.020172,132.001480 
	C203.757355,133.122971 203.494537,134.244446 202.733582,135.661514 
	C201.829422,135.981842 201.423431,136.006577 200.951538,135.705811 
	C198.449142,134.921555 196.026459,134.361237 193.572937,134.027313 
	C189.693695,133.499359 187.712372,134.925110 187.943268,139.214676 
	C188.208725,144.146637 188.025940,149.102737 188.038757,154.438202 
	C188.093719,155.345383 188.147781,155.862732 188.201843,156.380081 
z"/>
<path fill="#3EDA83" opacity="1.000000" stroke="none" 
	d="
M67.822495,39.150124 
	C68.391235,45.922054 68.747925,52.789280 68.816185,59.659367 
	C68.823746,60.420601 67.185661,61.856117 66.310104,61.856644 
	C62.053127,61.859211 57.795925,61.479591 53.139229,61.057087 
	C53.392277,59.420044 54.044891,57.961205 55.275166,56.183945 
	C56.524532,54.474228 57.196236,53.082935 57.867943,51.691643 
	C57.867947,51.691643 57.950943,51.280937 58.421455,51.072399 
	C59.223667,50.155224 59.555374,49.446587 59.887077,48.737953 
	C60.148819,48.264290 60.410557,47.790627 61.259983,47.125809 
	C62.840328,45.481781 63.832989,44.028904 64.825645,42.576027 
	C65.725723,41.466103 66.625793,40.356178 67.822495,39.150124 
z"/>
<path fill="#3BD27E" opacity="1.000000" stroke="none" 
	d="
M186.964508,37.687813 
	C180.332367,38.250546 173.647186,38.669327 166.958344,38.739361 
	C166.319382,38.746052 165.161011,36.602573 165.097290,35.411625 
	C164.885300,31.449657 165.062729,27.466852 165.141083,22.988094 
	C166.280609,22.958786 167.369934,23.433416 168.827179,24.452862 
	C169.943909,25.279074 170.692703,25.560472 171.441513,25.841869 
	C171.441513,25.841869 171.791595,25.851608 171.982056,26.330210 
	C172.966583,27.143078 173.760681,27.477346 174.554764,27.811615 
	C175.586212,28.430389 176.617661,29.049162 177.894623,30.235043 
	C178.843872,31.168644 179.547607,31.535139 180.251328,31.901634 
	C181.067856,32.462646 181.884384,33.023663 182.886459,34.186848 
	C184.076752,35.514839 185.081482,36.240654 186.086212,36.966476 
	C186.444809,36.983032 186.719559,37.143314 186.964508,37.687813 
z"/>
<path fill="#3CD580" opacity="1.000000" stroke="none" 
	d="
M203.025696,61.991753 
	C199.203491,61.991657 195.356689,62.235794 191.572906,61.854488 
	C190.306839,61.726898 188.226364,60.040199 188.186264,59.001755 
	C187.975861,53.553944 188.300552,48.085476 189.036377,42.317299 
	C190.066559,42.015251 190.499741,42.020084 190.932907,42.024918 
	C191.618149,42.710903 192.303391,43.396889 193.047699,44.724480 
	C193.994629,46.249161 194.882477,47.132236 195.770325,48.015308 
	C196.162445,48.417923 196.554550,48.820538 197.026398,49.811394 
	C197.661087,50.955990 198.216019,51.512344 198.770950,52.068703 
	C198.770950,52.068703 199.051910,52.352760 199.073502,52.894859 
	C199.964447,54.652218 200.833817,55.867477 201.703171,57.082733 
	C202.226242,58.009514 202.749329,58.936291 203.221497,60.541771 
	C203.122299,61.477566 203.073990,61.734657 203.025696,61.991753 
z"/>
<path fill="#3BD27E" opacity="1.000000" stroke="none" 
	d="
M52.896263,135.372986 
	C56.989742,134.698715 61.102592,134.053223 65.188194,134.194672 
	C66.485817,134.239594 68.728218,136.328049 68.792244,137.571289 
	C69.062912,142.826935 68.675362,148.116455 67.958206,153.549622 
	C65.674911,152.458862 63.961891,151.212097 62.248871,149.965332 
	C62.248871,149.965332 61.931461,149.740540 61.910843,149.198318 
	C60.999428,147.760864 60.108627,146.865631 59.217831,145.970398 
	C59.217831,145.970398 58.918922,145.725067 58.901649,145.203186 
	C58.326424,144.112335 57.768475,143.543350 57.210522,142.974380 
	C57.210522,142.974380 56.914204,142.712402 56.908920,142.158997 
	C56.023308,140.393234 55.142979,139.180878 54.262650,137.968521 
	C53.810131,137.214478 53.357609,136.460419 52.896263,135.372986 
z"/>
<path fill="#38C577" opacity="1.000000" stroke="none" 
	d="
M204.232651,131.749573 
	C200.586456,132.000946 197.126892,131.734818 193.725403,132.065598 
	C189.247757,132.501022 187.263718,130.944275 187.982361,126.359596 
	C188.107437,125.561661 187.999954,124.727264 188.362823,123.402855 
	C192.288239,121.770088 192.060074,118.844765 192.294022,116.152557 
	C195.389023,118.872421 198.189682,121.438820 201.140945,124.292427 
	C202.753189,125.695274 204.214828,126.810913 205.790771,127.975105 
	C205.905090,128.023651 206.151382,128.055862 206.151367,128.055862 
	C205.582626,129.203125 205.013885,130.350388 204.232651,131.749573 
z"/>
<path fill="#3DDA83" opacity="1.000000" stroke="none" 
	d="
M71.924110,158.055115 
	C77.363152,158.037064 82.804092,158.098282 88.240425,157.967728 
	C90.985054,157.901794 92.145103,158.958557 92.027466,161.730804 
	C91.894814,164.857010 91.991409,167.992935 91.631134,171.524979 
	C88.367455,170.704651 85.460938,169.483994 82.554413,168.263336 
	C82.554420,168.263321 82.226067,168.191895 82.058083,167.719879 
	C81.120392,166.913559 80.350677,166.579269 79.580971,166.244980 
	C79.580971,166.244980 79.244438,166.157074 79.100876,165.683319 
	C76.612907,162.824753 74.268509,160.439941 71.924110,158.055115 
z"/>
<path fill="#38C879" opacity="1.000000" stroke="none" 
	d="
M188.037842,154.048355 
	C188.025940,149.102737 188.208725,144.146637 187.943268,139.214676 
	C187.712372,134.925110 189.693695,133.499359 193.572937,134.027313 
	C196.026459,134.361237 198.449142,134.921555 200.901901,136.057953 
	C199.674393,139.624695 198.430649,142.513824 197.186920,145.402939 
	C197.186920,145.402939 197.119629,145.753815 196.640259,145.913803 
	C195.105347,147.712967 194.049820,149.352142 192.994293,150.991318 
	C192.994293,150.991318 193.000000,151.000000 192.664825,151.025269 
	C190.899048,152.049820 189.468445,153.049088 188.037842,154.048355 
z"/>
<path fill="#38C879" opacity="1.000000" stroke="none" 
	d="
M164.996536,171.966705 
	C165.009384,157.994705 165.009384,157.994492 179.161942,158.000580 
	C180.474167,158.001144 181.786377,158.006393 183.403580,158.308563 
	C181.470093,161.058777 179.231628,163.509888 176.993164,165.961014 
	C176.993164,165.961014 176.822281,166.211945 176.281311,166.183105 
	C172.159058,168.091751 168.577805,170.029236 164.996536,171.966705 
z"/>
<path fill="#2FA363" opacity="1.000000" stroke="none" 
	d="
M203.155624,62.237633 
	C203.073990,61.734657 203.122299,61.477566 203.305389,60.850746 
	C209.077805,68.877853 211.099472,78.489853 212.190842,88.251076 
	C213.705139,101.795113 212.709213,115.120895 206.435913,127.871353 
	C206.151382,128.055862 205.905090,128.023651 205.883514,127.619049 
	C206.193192,125.809906 206.524475,124.405357 206.971741,122.644760 
	C208.065018,118.530846 209.042343,114.772972 210.019669,111.015099 
	C210.049850,110.586693 210.080032,110.158287 210.088394,109.395531 
	C210.066559,109.061180 210.049301,109.054253 210.208496,108.957916 
	C210.244247,108.579857 210.120819,108.298126 210.001587,107.592171 
	C209.949600,100.770325 209.893387,94.372704 209.837173,87.975082 
	C210.047318,87.401871 210.257462,86.828659 210.282410,85.744781 
	C208.058624,78.154289 206.020035,71.074455 203.981430,63.994629 
	C203.749466,63.490925 203.517517,62.987217 203.155624,62.237633 
z"/>
<path fill="#3EDA83" opacity="1.000000" stroke="none" 
	d="
M162.001221,24.999941 
	C161.998810,28.496691 162.314331,32.038158 161.832077,35.467422 
	C161.648102,36.775589 159.718338,38.714581 158.440887,38.834076 
	C153.983902,39.250992 149.459213,38.869053 144.970184,39.044392 
	C141.871445,39.165428 140.887695,37.870197 140.959412,34.911240 
	C141.104614,28.920240 141.007095,22.923361 141.290558,16.440422 
	C142.032684,15.682655 142.493912,15.413374 142.955154,15.144096 
	C143.721771,15.215836 144.488403,15.287574 145.599518,15.764458 
	C145.977127,16.444565 145.996613,16.720490 145.816284,17.336296 
	C145.086761,20.680569 144.128403,23.678530 144.074738,26.692602 
	C143.883392,37.439110 143.997147,37.352654 154.490005,37.042110 
	C158.380844,36.926952 160.212799,35.590034 160.124069,31.403214 
	C160.079147,29.282999 161.334015,27.135244 162.001221,24.999941 
z"/>
<path fill="#3FDA84" opacity="1.000000" stroke="none" 
	d="
M138.717072,14.450182 
	C138.987610,16.450420 138.993423,18.274284 138.623764,20.463531 
	C132.793259,20.323244 127.342934,19.718908 121.876236,19.459785 
	C121.310272,19.432959 120.046448,21.508644 120.128860,22.525934 
	C120.574921,28.031887 121.342941,33.511753 122.000000,39.000610 
	C119.028511,39.344296 117.840179,38.094902 117.952103,35.050724 
	C118.127930,30.268381 118.094101,25.471668 117.940018,20.687771 
	C117.891548,19.182865 117.172256,17.699568 116.521988,15.885187 
	C116.833839,15.174401 117.383682,14.784808 117.933525,14.395214 
	C118.403755,14.282608 118.873978,14.170003 120.028305,14.365417 
	C125.790634,14.502404 130.868866,14.331373 135.947098,14.160342 
	C136.782181,14.198163 137.617279,14.235985 138.717072,14.450182 
z"/>
<path fill="#A6A6A6" opacity="1.000000" stroke="none" 
	d="
M130.051178,208.989044 
	C130.117325,207.110931 130.184021,205.657639 130.302277,203.081253 
	C133.227982,203.996475 135.640488,204.751160 138.135803,205.531754 
	C138.204559,204.965256 138.409393,203.277679 138.632736,201.437607 
	C139.927948,203.646439 141.125748,205.689178 142.323563,207.731903 
	C143.325638,206.487122 144.327698,205.242340 145.644974,203.606003 
	C146.025345,204.177719 146.555710,204.974884 146.960922,205.583939 
	C144.295776,207.152786 141.466293,208.818375 138.561401,210.528366 
	C138.489883,210.382233 138.213684,209.817810 137.932526,209.256638 
	C135.590591,210.945694 133.253616,212.631485 130.327881,214.741974 
	C130.227432,212.804031 130.139572,211.108963 130.051178,208.989044 
z"/>
<path fill="#3CBC75" opacity="1.000000" stroke="none" 
	d="
M131.993469,179.953949 
	C130.761032,178.164627 129.528610,176.375320 128.501816,174.245697 
	C130.452850,172.784042 132.366364,171.852356 133.900513,170.492676 
	C135.761063,168.843689 137.301208,166.833221 138.986115,165.446411 
	C138.999222,170.599991 139.006226,175.286331 138.598267,179.981750 
	C136.737045,180.508774 135.290787,181.026718 133.844543,181.544662 
	C133.448502,181.631485 133.052475,181.718323 132.349731,181.316498 
	C132.026535,180.536545 132.010010,180.245255 131.993469,179.953949 
z"/>
<path fill="#42C37C" opacity="1.000000" stroke="none" 
	d="
M139.013229,179.972656 
	C139.006226,175.286331 138.999222,170.599991 138.988205,165.033722 
	C138.984131,162.775284 138.984055,161.396805 138.950043,159.673248 
	C138.943253,157.551666 138.970398,155.775131 138.998047,153.748795 
	C138.998520,153.498993 139.000000,152.999390 139.333038,152.999695 
	C140.110107,153.000610 140.554138,153.001221 141.021332,153.406509 
	C142.088303,154.538544 143.063156,155.727005 144.190521,155.895584 
	C146.415573,156.228333 148.725113,155.996140 151.437256,155.998627 
	C153.916733,156.001221 155.958664,156.002747 158.000610,156.004272 
	C158.000412,156.446823 158.000198,156.889359 157.531937,157.665070 
	C152.921585,158.000305 148.771500,157.862289 144.641830,158.091537 
	C143.433853,158.158600 141.261246,159.277130 141.265228,159.902679 
	C141.305801,166.271118 141.705215,172.637268 141.991882,179.258194 
	C141.963699,179.850616 141.947769,180.188904 141.931854,180.527191 
	C141.500320,180.659485 141.068787,180.791779 140.189926,180.694305 
	C139.539185,180.241699 139.296066,180.077728 139.013229,179.972656 
z"/>
<path fill="#32B06A" opacity="1.000000" stroke="none" 
	d="
M142.327881,180.633484 
	C141.947769,180.188904 141.963699,179.850616 142.401489,179.254883 
	C149.215729,177.007278 155.608109,175.017120 162.000473,173.026962 
	C162.806931,172.768509 163.613403,172.510056 164.708191,172.109161 
	C168.577805,170.029236 172.159058,168.091751 176.130249,166.198105 
	C166.743591,174.545181 155.162994,178.643082 142.327881,180.633484 
z"/>
<path fill="#32B06A" opacity="1.000000" stroke="none" 
	d="
M82.713852,168.567993 
	C85.460938,169.483994 88.367455,170.704651 91.621201,171.994736 
	C92.449532,172.371536 92.930618,172.678925 93.703690,173.033264 
	C100.598366,175.358749 107.201073,177.637283 113.943512,180.230469 
	C102.584831,179.582352 92.374413,175.175751 82.713852,168.567993 
z"/>
<path fill="#E6E5E5" opacity="1.000000" stroke="none" 
	d="
M193.578659,239.098907 
	C192.513458,239.763397 191.448257,240.427887 189.591248,241.099487 
	C188.510025,241.064941 188.220627,241.023254 187.931213,240.981552 
	C187.850571,239.257812 187.769913,237.534058 188.177917,235.388214 
	C188.885895,234.930878 189.105225,234.895615 189.324554,234.860336 
	C190.349792,235.427765 191.375046,235.995178 192.797760,236.948364 
	C193.458557,236.876999 193.721878,236.419891 193.985199,235.962769 
	C194.478348,235.502228 195.223175,234.553787 195.425018,234.657928 
	C197.123856,235.534302 198.723312,236.603378 200.989609,238.009781 
	C199.313232,239.198563 198.097061,240.060974 196.281891,240.953583 
	C194.981491,240.355469 194.280075,239.727188 193.578659,239.098907 
z"/>
<path fill="#459E48" opacity="1.000000" stroke="none" 
	d="
M127.994339,241.216858 
	C124.933342,240.564316 124.933342,240.564316 126.018707,234.236420 
	C128.068481,235.541168 129.924133,236.722351 132.240524,238.196823 
	C130.602600,239.371094 129.449554,240.197739 127.994339,241.216858 
z"/>
<path fill="#35B970" opacity="1.000000" stroke="none" 
	d="
M45.674469,115.290886 
	C47.757454,120.479095 49.746819,126.035416 51.621086,131.981873 
	C49.530941,126.800995 47.555897,121.229996 45.674469,115.290886 
z"/>
<path fill="#38C878" opacity="1.000000" stroke="none" 
	d="
M146.002441,16.997375 
	C145.996613,16.720490 145.977127,16.444565 145.934128,15.962592 
	C151.661240,17.542034 157.398239,19.328487 163.359802,21.390404 
	C163.328293,21.746490 163.072220,21.827112 162.086548,21.818583 
	C156.238785,20.152081 151.120605,18.574728 146.002441,16.997375 
z"/>
<path fill="#38C878" opacity="1.000000" stroke="none" 
	d="
M135.599686,13.957556 
	C130.868866,14.331373 125.790634,14.502404 120.389160,14.427778 
	C125.128036,14.039671 130.190155,13.897220 135.599686,13.957556 
z"/>
<path fill="#32B06A" opacity="1.000000" stroke="none" 
	d="
M177.334137,165.920990 
	C179.231628,163.509888 181.470093,161.058777 183.874542,158.314316 
	C184.922180,157.723495 185.803848,157.426025 187.039185,157.170349 
	C184.153595,160.101746 180.914352,162.991348 177.334137,165.920990 
z"/>
<path fill="#35B970" opacity="1.000000" stroke="none" 
	d="
M43.944626,92.382324 
	C44.310085,95.800949 44.481220,99.562645 44.402832,103.638199 
	C44.018978,100.209839 43.884636,96.467628 43.944626,92.382324 
z"/>
<path fill="#32B06A" opacity="1.000000" stroke="none" 
	d="
M71.561691,158.048203 
	C74.268509,160.439941 76.612907,162.824753 78.995369,165.545074 
	C76.001984,163.525742 72.970535,161.170898 69.847626,158.491516 
	C70.237190,158.125092 70.718224,158.083191 71.561691,158.048203 
z"/>
<path fill="#32B06A" opacity="1.000000" stroke="none" 
	d="
M197.493179,145.244415 
	C198.430649,142.513824 199.674393,139.624695 200.967773,136.383453 
	C201.423431,136.006577 201.829422,135.981842 202.540283,135.960297 
	C201.163223,139.004303 199.481323,142.045105 197.493179,145.244415 
z"/>
<path fill="#35B970" opacity="1.000000" stroke="none" 
	d="
M62.275928,150.291229 
	C63.961891,151.212097 65.674911,152.458862 67.674988,153.855957 
	C67.973076,154.496445 67.984093,154.986618 67.939514,155.840698 
	C66.023605,154.342102 64.163300,152.479614 62.275928,150.291229 
z"/>
<path fill="#32B06A" opacity="1.000000" stroke="none" 
	d="
M188.038757,154.438202 
	C189.468445,153.049088 190.899048,152.049820 192.660431,151.022736 
	C191.603073,152.704926 190.214951,154.414917 188.514343,156.252487 
	C188.147781,155.862732 188.093719,155.345383 188.038757,154.438202 
z"/>
<path fill="#32B06A" opacity="1.000000" stroke="none" 
	d="
M138.598267,179.981750 
	C139.296066,180.077728 139.539185,180.241699 139.850342,180.657837 
	C138.145370,181.158691 136.332642,181.466263 134.182236,181.659256 
	C135.290787,181.026718 136.737045,180.508774 138.598267,179.981750 
z"/>
<path fill="#32B06A" opacity="1.000000" stroke="none" 
	d="
M193.300385,150.871979 
	C194.049820,149.352142 195.105347,147.712967 196.499847,146.024261 
	C195.761368,147.567368 194.683914,149.160004 193.300385,150.871979 
z"/>
<path fill="#32B06A" opacity="1.000000" stroke="none" 
	d="
M116.321159,181.109726 
	C117.627953,180.870560 119.220711,180.872772 120.952820,181.163422 
	C119.597160,181.418289 118.102142,181.384705 116.321159,181.109726 
z"/>
<path fill="#38C878" opacity="1.000000" stroke="none" 
	d="
M64.513550,42.702293 
	C63.832989,44.028904 62.840328,45.481781 61.504410,46.995689 
	C62.174583,45.647335 63.188023,44.237946 64.513550,42.702293 
z"/>
<path fill="#35B970" opacity="1.000000" stroke="none" 
	d="
M49.429455,67.662041 
	C49.224148,69.223068 48.745892,70.998833 47.979679,72.926903 
	C48.179981,71.345062 48.668243,69.610924 49.429455,67.662041 
z"/>
<path fill="#35B970" opacity="1.000000" stroke="none" 
	d="
M46.001541,110.666885 
	C45.922813,111.286148 45.768375,111.532082 45.367138,111.851845 
	C44.897511,110.836815 44.617561,109.712090 44.461994,108.248978 
	C44.965279,108.135315 45.344177,108.360031 45.834084,108.781113 
	C45.957710,109.428131 45.970333,109.878784 46.001541,110.666885 
z"/>
<path fill="#38C878" opacity="1.000000" stroke="none" 
	d="
M117.578735,14.292704 
	C117.383682,14.784808 116.833839,15.174401 116.135521,15.769917 
	C115.987045,15.975837 115.491707,15.988158 115.244019,15.995573 
	C114.471687,15.866241 113.947029,15.729494 113.240555,15.386867 
	C114.447128,14.850721 115.835541,14.520457 117.578735,14.292704 
z"/>
<path fill="#32B06A" opacity="1.000000" stroke="none" 
	d="
M131.630875,179.955536 
	C132.010010,180.245255 132.026535,180.536545 132.047424,181.266983 
	C130.901260,181.806824 129.750717,181.907516 128.271057,181.868134 
	C129.050720,181.137726 130.159500,180.547424 131.630875,179.955536 
z"/>
<path fill="#35B970" opacity="1.000000" stroke="none" 
	d="
M54.259956,138.299957 
	C55.142979,139.180878 56.023308,140.393234 56.877884,141.963684 
	C55.987179,141.091660 55.122223,139.861511 54.259956,138.299957 
z"/>
<path fill="#38C878" opacity="1.000000" stroke="none" 
	d="
M57.572350,51.841209 
	C57.196236,53.082935 56.524532,54.474228 55.521511,55.940918 
	C55.885715,54.674473 56.581238,53.332626 57.572350,51.841209 
z"/>
<path fill="#2FA363" opacity="1.000000" stroke="none" 
	d="
M201.727936,56.750145 
	C200.833817,55.867477 199.964447,54.652218 199.132233,53.085800 
	C200.030487,53.962280 200.891602,55.189919 201.727936,56.750145 
z"/>
<path fill="#38C878" opacity="1.000000" stroke="none" 
	d="
M195.737167,47.700844 
	C194.882477,47.132236 193.994629,46.249161 193.120178,45.014660 
	C193.990402,45.570946 194.847198,46.478664 195.737167,47.700844 
z"/>
<path fill="#35B970" opacity="1.000000" stroke="none" 
	d="
M59.243145,146.287659 
	C60.108627,146.865631 60.999428,147.760864 61.862324,149.010010 
	C60.979099,148.444244 60.123779,147.524582 59.243145,146.287659 
z"/>
<path fill="#38C878" opacity="1.000000" stroke="none" 
	d="
M185.980011,36.667267 
	C185.081482,36.240654 184.076752,35.514839 183.014984,34.457909 
	C183.929916,34.873886 184.901855,35.620975 185.980011,36.667267 
z"/>
<path fill="#D9D9D9" opacity="1.000000" stroke="none" 
	d="
M193.623672,239.413300 
	C194.280075,239.727188 194.981491,240.355469 195.932617,241.030594 
	C193.831451,243.445175 193.788605,241.514679 193.623672,239.413300 
z"/>
<path fill="#35B970" opacity="1.000000" stroke="none" 
	d="
M44.919350,84.304474 
	C45.419128,84.133820 45.647488,84.323303 45.909729,84.796387 
	C45.995007,85.432892 45.979042,85.866974 45.957603,86.625992 
	C45.603371,87.209129 45.254604,87.467339 44.723698,87.844765 
	C44.599468,86.837135 44.657379,85.710297 44.919350,84.304474 
z"/>
<path fill="#D9D9D9" opacity="1.000000" stroke="none" 
	d="
M189.251114,234.686798 
	C189.105225,234.895615 188.885895,234.930878 188.333801,234.982941 
	C187.980789,234.742783 187.960541,234.485794 187.940308,234.228821 
	C188.352768,234.323624 188.765213,234.418442 189.251114,234.686798 
z"/>
<path fill="#D9D9D9" opacity="1.000000" stroke="none" 
	d="
M187.809494,241.129822 
	C188.220627,241.023254 188.510025,241.064941 189.228058,241.199936 
	C189.000366,241.288193 188.344070,241.283157 187.809494,241.129822 
z"/>
<path fill="#32B06A" opacity="1.000000" stroke="none" 
	d="
M79.713150,166.534912 
	C80.350677,166.579269 81.120392,166.913559 81.955032,167.587189 
	C81.295090,167.559280 80.570213,167.192062 79.713150,166.534912 
z"/>
<path fill="#35B970" opacity="1.000000" stroke="none" 
	d="
M57.213806,143.281525 
	C57.768475,143.543350 58.326424,144.112335 58.862686,145.013809 
	C58.299698,144.760422 57.758396,144.174545 57.213806,143.281525 
z"/>
<path fill="#2FA363" opacity="1.000000" stroke="none" 
	d="
M198.768021,51.763992 
	C198.216019,51.512344 197.661087,50.955990 197.130890,50.076515 
	C197.692108,50.322021 198.228592,50.890652 198.768021,51.763992 
z"/>
<path fill="#38C878" opacity="1.000000" stroke="none" 
	d="
M59.611198,48.856415 
	C59.555374,49.446587 59.223667,50.155224 58.586716,50.943638 
	C58.632751,50.340569 58.984039,49.657726 59.611198,48.856415 
z"/>
<path fill="#38C878" opacity="1.000000" stroke="none" 
	d="
M190.881287,41.726357 
	C190.499741,42.020084 190.066559,42.015251 189.308167,42.002308 
	C188.979492,41.539654 188.976028,41.085110 189.000275,40.290749 
	C189.628540,40.443222 190.229111,40.935509 190.881287,41.726357 
z"/>
<path fill="#38C878" opacity="1.000000" stroke="none" 
	d="
M180.130188,31.624832 
	C179.547607,31.535139 178.843872,31.168644 178.067505,30.488916 
	C178.666260,30.566465 179.337646,30.957247 180.130188,31.624832 
z"/>
<path fill="#38C878" opacity="1.000000" stroke="none" 
	d="
M174.394257,27.528301 
	C173.760681,27.477346 172.966583,27.143078 172.084641,26.472111 
	C172.742432,26.505270 173.488083,26.875130 174.394257,27.528301 
z"/>
<path fill="#38C878" opacity="1.000000" stroke="none" 
	d="
M171.290222,25.576466 
	C170.692703,25.560472 169.943909,25.279074 169.091309,24.696526 
	C169.704636,24.700602 170.421783,25.005831 171.290222,25.576466 
z"/>
<path fill="#38C878" opacity="1.000000" stroke="none" 
	d="
M142.805573,14.972960 
	C142.493912,15.413374 142.032684,15.682655 141.294357,15.971195 
	C141.004837,15.799934 140.992416,15.609415 140.976257,15.132494 
	C141.533676,14.831337 142.094849,14.816581 142.805573,14.972960 
z"/>
<path fill="#D9D9D9" opacity="1.000000" stroke="none" 
	d="
M193.786682,236.274490 
	C193.721878,236.419891 193.458557,236.876999 193.083466,237.164032 
	C193.177170,236.858047 193.382675,236.722122 193.786682,236.274490 
z"/>
<path fill="#CCCACA" opacity="1.000000" stroke="none" 
	d="
M60.698139,234.813477 
	C63.173664,234.813477 65.649185,234.813477 68.481216,234.813477 
	C68.481216,236.759430 68.481216,239.285294 68.481216,242.424850 
	C66.401642,241.414536 64.698761,240.587219 62.490990,239.424118 
	C61.556778,237.663376 61.127457,236.238434 60.698139,234.813477 
z"/>
<path fill="#E6E5E5" opacity="1.000000" stroke="none" 
	d="
M60.380112,234.883713 
	C61.127457,236.238434 61.556778,237.663376 62.062904,239.350861 
	C62.139709,240.379639 62.139709,241.145889 62.139709,242.653717 
	C59.648846,241.113083 57.736683,239.930389 55.090950,238.293976 
	C57.006031,237.007263 58.534058,235.980606 60.380112,234.883713 
z"/>
<path fill="#F9FCFA" opacity="1.000000" stroke="none" 
	d="
M96.064613,61.967056 
	C96.852646,63.508991 97.640671,65.050926 98.724945,66.757828 
	C99.021187,66.922806 99.134415,66.940514 99.129150,67.306717 
	C104.058807,78.186531 104.058807,78.186531 113.336426,73.975998 
	C114.121353,73.827660 114.555779,73.666801 114.990204,73.505936 
	C118.108383,73.135941 121.226555,72.765938 125.091248,72.266518 
	C127.561516,72.083374 129.285278,72.029663 131.308838,72.184349 
	C133.079361,72.441399 134.550064,72.490051 136.376663,72.689491 
	C137.497040,72.860161 138.261505,72.880043 139.025986,72.899918 
	C139.509964,73.136116 139.993942,73.372307 141.053925,73.714279 
	C142.092422,73.864166 142.554916,73.908264 143.263718,74.194664 
	C145.321823,75.211304 147.079468,76.266647 148.970291,76.631104 
	C149.806381,76.792259 150.912308,75.553505 151.934509,74.951523 
	C151.973267,74.952774 151.939926,74.882736 152.228027,74.743263 
	C152.973846,73.718758 153.431580,72.833725 153.923370,71.963348 
	C153.957413,71.977989 153.965576,71.904335 154.201294,71.873596 
	C154.801178,71.657234 154.878784,71.388763 154.740997,70.765945 
	C154.871124,70.316872 154.930099,70.139290 155.230469,69.917831 
	C155.833008,69.674797 155.915741,69.393700 155.831146,68.734093 
	C156.280258,67.903923 156.618225,67.370316 156.956177,66.836700 
	C157.832474,65.405128 158.708755,63.973557 159.754272,62.254745 
	C159.923508,61.967506 159.945450,61.861237 159.945450,61.861237 
	C160.897507,61.939316 161.849564,62.017395 163.509567,62.153534 
	C160.302628,67.756264 157.358780,72.899376 154.130478,78.539467 
	C157.510162,80.903511 160.938812,83.301796 164.779510,85.922821 
	C165.191589,86.145561 165.512817,86.196777 165.628906,86.497314 
	C166.502701,87.516472 167.260422,88.235107 168.143433,89.267639 
	C171.332581,94.019379 174.396423,98.457222 177.514038,103.299042 
	C179.152695,109.189148 180.737564,114.675278 182.706680,121.491478 
	C175.856049,121.491478 170.434937,121.491478 164.641724,121.364136 
	C163.501633,121.332611 162.733643,121.428436 161.518280,121.389481 
	C154.383804,121.335129 147.696732,121.415558 140.678497,121.377060 
	C139.892776,121.340019 139.438202,121.421906 138.532715,121.371529 
	C131.067215,121.291061 124.052628,121.342850 116.700333,121.258949 
	C115.893723,121.208267 115.424820,121.293274 114.498383,121.289627 
	C106.694824,121.306847 99.348808,121.412735 91.554184,121.378830 
	C86.080856,121.274734 81.056137,121.310440 75.777679,121.204041 
	C75.330894,121.043846 75.137856,121.025749 74.944824,121.007660 
	C76.546143,114.574532 78.147461,108.141396 80.001732,101.087891 
	C82.527946,97.026161 84.801208,93.584808 87.074471,90.143456 
	C88.314453,88.969139 89.554428,87.794815 90.898346,86.308868 
	C91.002296,85.997238 91.022034,86.038727 91.022034,86.038727 
	C93.910576,84.156479 97.005173,82.508827 99.569054,80.256927 
	C100.397980,79.528870 100.398911,76.948280 99.799759,75.676086 
	C98.056625,71.974838 95.810852,68.511032 93.776932,64.945702 
	C92.805138,63.242210 92.304306,61.732128 95.625107,61.953560 
	C96.002098,61.997276 96.064613,61.967056 96.064613,61.967056 
M105.415962,97.297966 
	C100.621361,96.483620 97.515999,99.058311 99.173706,102.660042 
	C99.762695,103.939766 101.465073,105.425591 102.726944,105.490013 
	C104.209358,105.565681 106.776642,104.462646 107.057381,103.393806 
	C107.500351,101.707268 106.429413,99.623085 105.415962,97.297966 
M155.894989,104.545753 
	C156.338409,103.060165 157.608032,100.900269 157.057587,100.225822 
	C155.815247,98.703613 153.449173,96.830986 151.960815,97.138206 
	C150.509781,97.437721 148.436523,100.435143 148.654129,101.960190 
	C149.164474,105.536888 151.912766,106.561653 155.894989,104.545753 
z"/>
<path fill="#3AC075" opacity="1.000000" stroke="none" 
	d="
M165.013824,121.491478 
	C170.434937,121.491478 175.856049,121.491478 182.706680,121.491478 
	C180.737564,114.675278 179.152695,109.189148 177.905518,103.353226 
	C180.817490,104.685204 183.391754,106.366974 185.966019,108.048737 
	C186.720154,109.035675 187.474304,110.022606 188.642670,111.349365 
	C190.037827,113.125816 191.018753,114.562447 191.999680,115.999084 
	C192.060074,118.844765 192.288239,121.770088 188.363174,122.948608 
	C187.899567,121.584541 187.798508,120.167862 187.601257,117.402435 
	C186.659775,119.171707 186.059006,119.768768 186.082748,120.339867 
	C186.278900,125.057373 185.175797,129.061020 180.666748,131.511078 
	C180.254837,131.734909 180.228043,132.667511 179.656647,133.680252 
	C176.203888,136.707489 172.929337,139.139893 170.093613,142.006393 
	C168.087906,144.033875 166.676254,146.649033 164.999390,149.001831 
	C164.250076,149.001602 163.500778,149.001373 162.195694,148.771484 
	C161.093689,148.361038 160.547455,148.180222 160.012268,147.605652 
	C161.781509,142.915131 163.206100,138.593765 160.969177,133.710464 
	C160.625565,132.944031 160.310944,132.471405 160.044891,131.691299 
	C160.728760,130.589005 161.364075,129.794189 162.370392,128.939545 
	C163.498871,126.416954 164.256348,123.954216 165.013824,121.491478 
z"/>
<path fill="#3EDA83" opacity="1.000000" stroke="none" 
	d="
M209.383728,87.982628 
	C209.893387,94.372704 209.949600,100.770325 210.011597,107.851715 
	C210.028015,108.708405 210.038666,108.881332 210.049301,109.054253 
	C210.049301,109.054253 210.066559,109.061180 210.079987,109.073402 
	C204.270157,109.057358 198.442291,108.879784 192.625351,109.058113 
	C189.259796,109.161285 187.717651,108.186867 187.944138,104.568901 
	C188.193146,100.590958 188.167191,96.576256 187.949448,92.594604 
	C187.763260,89.189735 188.878204,87.779694 192.459625,87.934441 
	C197.940414,88.171234 203.439148,87.992516 209.383728,87.982628 
z"/>
<path fill="#3EDA83" opacity="1.000000" stroke="none" 
	d="
M91.021530,86.010956 
	C86.050629,86.016861 81.056274,85.880882 76.071770,86.044647 
	C72.531036,86.160980 70.801659,84.967949 70.956810,81.190109 
	C71.140953,76.706367 71.098015,72.206573 70.968147,67.719093 
	C70.886063,64.882591 72.097282,63.890926 74.833359,63.967350 
	C79.321136,64.092712 83.825371,63.833790 88.299492,64.110992 
	C89.553322,64.188683 91.767868,65.572777 91.770851,66.364296 
	C91.794525,72.642624 91.390495,78.922562 91.069931,85.620369 
	C91.022034,86.038727 91.002296,85.997238 91.021530,86.010956 
z"/>
<path fill="#3EDA83" opacity="1.000000" stroke="none" 
	d="
M96.016724,61.965744 
	C92.291008,55.971066 94.470451,49.391033 94.243462,43.083073 
	C94.219986,42.430691 96.310280,41.156902 97.463608,41.102619 
	C102.265823,40.876610 107.112785,40.717972 111.880974,41.179249 
	C113.350891,41.321453 115.638008,43.395138 115.797531,44.785587 
	C116.304909,49.208290 116.304527,53.762051 115.800301,58.185368 
	C115.640923,59.583481 113.367874,61.686295 111.912148,61.818813 
	C106.974869,62.268234 101.970451,61.980179 96.528152,61.970467 
	C96.064613,61.967056 96.002098,61.997276 96.016724,61.965744 
z"/>
<path fill="#3DDA83" opacity="1.000000" stroke="none" 
	d="
M92.027756,139.913376 
	C92.018188,143.911362 91.886978,147.913971 92.039207,151.905792 
	C92.152161,154.867416 91.130646,156.172028 88.029678,156.040146 
	C83.872566,155.863373 79.700012,155.910141 75.538490,156.023056 
	C72.414902,156.107803 70.897415,154.898163 70.978401,151.644577 
	C71.086143,147.316116 71.116493,142.978958 70.966141,138.652969 
	C70.845627,135.185638 72.356064,133.954407 75.737381,133.922836 
	C78.414452,133.897827 81.085098,133.183945 83.884811,132.372803 
	C84.011017,131.969666 84.065552,131.929688 84.380470,131.945679 
	C85.115562,131.981293 85.535736,132.000885 86.103241,132.322083 
	C88.176308,135.053558 90.102028,137.483475 92.027756,139.913376 
z"/>
<path fill="#3EDA83" opacity="1.000000" stroke="none" 
	d="
M165.512817,86.196777 
	C165.512817,86.196777 165.191589,86.145561 165.105286,86.007507 
	C164.854858,79.567574 164.559189,73.263535 164.661911,66.965996 
	C164.678162,65.969475 166.446823,64.213943 167.482208,64.154724 
	C172.620041,63.860897 177.793243,63.852901 182.930359,64.151131 
	C183.998337,64.213127 185.814224,65.976700 185.840149,66.992935 
	C185.987747,72.781937 185.697464,78.582100 184.813995,84.690048 
	C178.714645,85.335022 173.357315,85.668427 167.584747,86.014175 
	C166.617279,86.083267 166.065048,86.140022 165.512817,86.196777 
z"/>
<path fill="#3EDA83" opacity="1.000000" stroke="none" 
	d="
M139.001099,55.867485 
	C139.631485,60.540260 138.228546,62.545593 133.609833,62.076099 
	C129.990204,61.708168 126.294548,61.844879 122.648872,62.048054 
	C119.319298,62.233616 117.718979,61.250233 117.941116,57.601963 
	C118.193214,53.461605 118.109085,49.290272 117.962845,45.139748 
	C117.860870,42.245594 118.757454,40.826897 121.907524,40.956444 
	C126.222122,41.133888 130.557480,41.161465 134.868912,40.948715 
	C138.283936,40.780201 139.204956,42.318691 139.039413,45.416828 
	C138.862289,48.731884 139.000565,52.063789 139.001099,55.867485 
z"/>
<path fill="#3EDA83" opacity="1.000000" stroke="none" 
	d="
M165.242279,42.463799 
	C171.600266,41.720520 177.814255,41.320816 184.032608,41.234398 
	C184.669159,41.225552 185.851059,43.071625 185.893784,44.093990 
	C186.095047,48.909752 186.227997,53.758686 185.824860,58.548618 
	C185.720779,59.785244 183.663116,61.726185 182.372467,61.837959 
	C177.749496,62.238338 173.048096,62.241993 168.427811,61.825188 
	C167.191437,61.713654 165.244537,59.632954 165.157852,58.352432 
	C164.810638,53.222649 165.066635,48.052036 165.242279,42.463799 
z"/>
<path fill="#3EDA83" opacity="1.000000" stroke="none" 
	d="
M91.937668,43.370636 
	C91.984200,48.486210 91.937035,53.143806 92.012802,57.799404 
	C92.060524,60.731785 90.771996,62.066864 87.820198,62.013218 
	C83.663727,61.937679 79.503838,61.940071 75.347313,62.014912 
	C72.512924,62.065945 70.944580,61.014236 70.991463,57.968033 
	C71.058006,53.644890 70.779861,49.300716 71.141006,45.006916 
	C71.257072,43.627033 72.862122,41.312595 73.900284,41.247444 
	C79.358330,40.904930 84.854385,41.098492 90.332741,41.259388 
	C90.869530,41.275150 91.375633,42.336040 91.937668,43.370636 
z"/>
<path fill="#3EDA83" opacity="1.000000" stroke="none" 
	d="
M159.874680,61.943848 
	C155.003479,61.947014 150.175705,61.844948 145.360626,62.046371 
	C142.196259,62.178741 141.031555,61.135269 140.927567,57.814476 
	C140.382172,40.396988 140.295731,40.473194 157.682648,40.932407 
	C160.864975,41.016460 162.393570,41.929211 162.003479,45.226089 
	C161.376190,50.527626 160.767471,55.831360 160.048187,61.497704 
	C159.945450,61.861237 159.923508,61.967506 159.874680,61.943848 
z"/>
<path fill="#32AC68" opacity="1.000000" stroke="none" 
	d="
M92.333038,139.983154 
	C90.102028,137.483475 88.176308,135.053558 86.541412,132.314514 
	C90.835014,132.593414 92.551079,130.967468 92.036560,126.872177 
	C91.815666,125.113998 92.001663,123.304695 92.002785,121.518623 
	C99.348808,121.412735 106.694824,121.306847 114.515701,121.560883 
	C115.325760,122.333946 115.660957,122.747086 115.987244,123.517197 
	C115.985664,125.583008 115.993004,127.291847 115.956161,129.336655 
	C114.941658,130.449036 113.971329,131.225433 112.552467,132.001007 
	C109.284721,132.000168 106.465508,132.000168 103.646301,132.000168 
	C103.355049,132.351654 103.063805,132.703156 102.772560,133.054642 
	C109.048080,135.239456 107.171486,138.573013 104.593224,141.460129 
	C103.169762,143.054123 100.869461,143.865082 98.675461,144.872925 
	C96.942902,143.781174 95.499321,142.845505 94.055740,141.909851 
	C93.583267,141.290878 93.110794,140.671906 92.333038,139.983154 
z"/>
<path fill="#3EDA83" opacity="1.000000" stroke="none" 
	d="
M203.515839,63.995129 
	C206.020035,71.074455 208.058624,78.154289 210.138794,85.562439 
	C204.370941,85.927223 198.559052,85.875130 192.752960,86.034134 
	C189.401093,86.125946 187.851898,84.865631 187.967194,81.387489 
	C188.115616,76.910042 188.132736,72.418907 187.958374,67.943321 
	C187.837448,64.839615 189.159470,63.838249 192.094955,63.962822 
	C195.740631,64.117531 199.397964,63.997177 203.515839,63.995129 
z"/>
<path fill="#3DDA83" opacity="1.000000" stroke="none" 
	d="
M122.463181,39.001469 
	C121.342941,33.511753 120.574921,28.031887 120.128860,22.525934 
	C120.046448,21.508644 121.310272,19.432959 121.876236,19.459785 
	C127.342934,19.718908 132.793259,20.323244 138.622147,20.914623 
	C138.996918,25.357004 138.997818,29.713680 138.671082,34.597000 
	C137.228943,36.415966 136.114471,37.708286 135.000000,39.000610 
	C130.975464,39.001183 126.950912,39.001755 122.463181,39.001469 
z"/>
<path fill="#3DDA83" opacity="1.000000" stroke="none" 
	d="
M145.816284,17.336296 
	C151.120605,18.574728 156.238785,20.152081 161.690918,21.893610 
	C162.017838,22.792862 162.010788,23.527937 162.002472,24.631477 
	C161.334015,27.135244 160.079147,29.282999 160.124069,31.403214 
	C160.212799,35.590034 158.380844,36.926952 154.490005,37.042110 
	C143.997147,37.352654 143.883392,37.439110 144.074738,26.692602 
	C144.128403,23.678530 145.086761,20.680569 145.816284,17.336296 
z"/>
<path fill="#42DA85" opacity="1.000000" stroke="none" 
	d="
M168.000000,86.001831 
	C173.357315,85.668427 178.714645,85.335022 184.540253,85.003708 
	C185.336166,92.370934 185.663803,99.736061 185.978729,107.574966 
	C183.391754,106.366974 180.817490,104.685204 177.851746,102.949249 
	C174.396423,98.457222 171.332581,94.019379 168.145569,88.898743 
	C168.014954,87.477898 168.007477,86.739868 168.000000,86.001831 
z"/>
<path fill="#3FDA84" opacity="1.000000" stroke="none" 
	d="
M86.866089,89.794189 
	C84.801208,93.584808 82.527946,97.026161 80.008102,100.725365 
	C78.711441,102.543312 77.766228,104.189499 76.578377,105.636490 
	C75.613708,106.811630 74.357887,107.747757 73.231186,108.789886 
	C72.488525,107.482750 71.186455,106.209206 71.105545,104.862320 
	C70.836769,100.387978 70.901405,95.882919 71.084969,91.399742 
	C71.129723,90.306740 72.152100,88.308762 72.666603,88.327515 
	C77.337677,88.497856 81.995796,89.023361 86.866089,89.794189 
z"/>
<path fill="#3DDA83" opacity="1.000000" stroke="none" 
	d="
M192.294022,116.152557 
	C191.018753,114.562447 190.037827,113.125816 189.004791,111.363853 
	C195.661270,111.027000 202.369888,111.015472 209.549072,111.009521 
	C209.042343,114.772972 208.065018,118.530846 206.609741,122.703674 
	C204.417969,123.414154 202.704163,123.709686 200.990341,124.005219 
	C198.189682,121.438820 195.389023,118.872421 192.294022,116.152557 
z"/>
<path fill="#3EDA83" opacity="1.000000" stroke="none" 
	d="
M131.009033,71.975952 
	C129.285278,72.029663 127.561516,72.083374 125.412964,72.056450 
	C123.759781,71.648285 122.527054,71.033478 121.303864,71.051888 
	C118.595596,71.092644 117.422997,69.600998 118.153244,67.383820 
	C118.602417,66.020081 120.353363,64.300751 121.674706,64.156090 
	C125.594887,63.726925 129.617935,64.283340 133.551910,63.922215 
	C138.015869,63.512436 139.665359,65.222466 139.018173,69.529701 
	C138.896729,70.337898 139.000885,71.179993 139.013458,72.453178 
	C138.261505,72.880043 137.497040,72.860161 136.254395,72.388901 
	C134.187164,71.950333 132.598099,71.963142 131.009033,71.975952 
z"/>
<path fill="#40DA85" opacity="1.000000" stroke="none" 
	d="
M156.931366,66.439461 
	C156.618225,67.370316 156.280258,67.903923 155.670258,68.855682 
	C155.202972,69.468109 155.066605,69.697395 154.989090,69.961708 
	C154.930099,70.139290 154.871124,70.316872 154.588455,70.879089 
	C154.181259,71.445839 154.048203,71.659370 153.965576,71.904335 
	C153.965576,71.904335 153.957413,71.977989 153.603210,72.040161 
	C152.812653,73.029137 152.376297,73.955940 151.939926,74.882736 
	C151.939926,74.882736 151.973267,74.952774 151.549774,74.960854 
	C148.423325,74.630081 145.720383,74.291222 143.017426,73.952362 
	C142.554916,73.908264 142.092422,73.864166 141.326523,73.641785 
	C141.086411,62.318890 139.711533,64.085136 150.568192,64.094200 
	C152.681503,64.095963 154.793777,65.360260 156.931366,66.439461 
z"/>
<path fill="#3FDA84" opacity="1.000000" stroke="none" 
	d="
M115.078720,73.140129 
	C114.555779,73.666801 114.121353,73.827660 113.102890,73.750175 
	C107.036964,75.938446 103.506645,73.987473 101.306328,68.674789 
	C100.995964,67.925392 99.878372,67.510330 99.134415,66.940514 
	C99.134415,66.940514 99.021187,66.922806 99.035583,66.867134 
	C99.425362,65.966537 99.771416,64.403107 100.180595,64.386414 
	C104.931999,64.192520 109.741989,63.901226 114.394913,64.590775 
	C115.042381,64.686729 114.928604,69.919495 115.078720,73.140129 
z"/>
<path fill="#3DD782" opacity="1.000000" stroke="none" 
	d="
M94.036026,142.382248 
	C95.499321,142.845505 96.942902,143.781174 98.834976,145.163834 
	C102.176514,148.412613 105.069550,151.214386 108.079254,154.270813 
	C108.464386,155.016235 108.732841,155.507004 109.001297,155.997772 
	C109.001297,155.997772 108.986427,156.018967 108.976929,156.031006 
	C105.669006,156.027817 102.359871,155.839172 99.074913,156.042114 
	C95.131508,156.285706 93.700287,154.549774 93.966003,150.768723 
	C94.150566,148.142487 94.011032,145.493484 94.036026,142.382248 
z"/>
<path fill="#4FD58B" opacity="1.000000" stroke="none" 
	d="
M74.632385,121.204865 
	C75.137856,121.025749 75.330894,121.043846 75.801056,121.544678 
	C76.890533,123.134705 77.656067,124.280342 78.524994,125.341316 
	C80.342964,127.561089 82.215454,129.736221 84.065552,131.929688 
	C84.065552,131.929688 84.011017,131.969666 83.983170,131.989716 
	C80.917061,131.064590 77.544495,130.656876 74.929848,129.030640 
	C72.025368,127.224129 72.270439,124.141693 74.632385,121.204865 
z"/>
<path fill="#3FDA84" opacity="1.000000" stroke="none" 
	d="
M135.393585,38.998726 
	C136.114471,37.708286 137.228943,36.415966 138.669647,35.061626 
	C139.142944,37.308643 138.864944,39.276463 135.393585,38.998726 
z"/>
<path fill="#35B76E" opacity="1.000000" stroke="none" 
	d="
M109.244087,156.003784 
	C108.732841,155.507004 108.464386,155.016235 108.454407,154.257538 
	C109.749016,153.542953 110.951332,153.300674 111.793724,152.615738 
	C116.515541,148.776398 117.087524,138.210175 113.000999,132.001831 
	C113.971329,131.225433 114.941658,130.449036 116.320236,129.423431 
	C117.799713,130.090073 118.902794,131.825577 119.936852,131.785385 
	C125.588516,131.565689 131.938461,134.178101 136.406509,128.214874 
	C136.911530,127.540871 138.117737,127.392258 138.999344,127.405197 
	C138.087646,129.728424 137.175385,131.646469 136.717636,132.608887 
	C137.582703,135.096130 138.762466,137.100113 138.902496,139.174301 
	C139.212387,143.763947 138.999603,148.388855 139.000000,152.999390 
	C139.000000,152.999390 138.998520,153.498993 138.614410,153.808884 
	C134.568054,154.745453 130.923569,155.722656 127.238991,155.909698 
	C122.679710,156.141129 116.707359,157.987579 117.726944,148.019211 
	C114.620430,155.854294 114.620430,155.854294 109.972557,156.017426 
	C109.972557,156.017426 109.486877,156.009811 109.244087,156.003784 
z"/>
<path fill="#32B06A" opacity="1.000000" stroke="none" 
	d="
M138.983994,160.018311 
	C138.984055,161.396805 138.984131,162.775284 138.982086,164.566467 
	C137.301208,166.833221 135.761063,168.843689 133.900513,170.492676 
	C132.366364,171.852356 130.452850,172.784042 128.357147,173.953308 
	C124.706863,170.893738 121.406868,167.786270 118.056892,163.904404 
	C118.279739,161.072311 117.054558,157.862991 120.786469,158.103333 
	C126.868195,158.495010 132.919724,159.355591 138.983994,160.018311 
z"/>
<path fill="#3CBC75" opacity="1.000000" stroke="none" 
	d="
M138.950043,159.673248 
	C132.919724,159.355591 126.868195,158.495010 120.786469,158.103333 
	C117.054558,157.862991 118.279739,161.072311 118.004745,163.564713 
	C115.423454,161.541672 112.844337,159.083908 110.118889,156.321793 
	C114.620430,155.854294 114.620430,155.854294 117.726944,148.019211 
	C116.707359,157.987579 122.679710,156.141129 127.238991,155.909698 
	C130.923569,155.722656 134.568054,154.745453 138.613937,154.058685 
	C138.970398,155.775131 138.943253,157.551666 138.950043,159.673248 
z"/>
<path fill="#37C376" opacity="1.000000" stroke="none" 
	d="
M162.000076,172.557495 
	C155.608109,175.017120 149.215729,177.007278 142.413757,179.000763 
	C141.705215,172.637268 141.305801,166.271118 141.265228,159.902679 
	C141.261246,159.277130 143.433853,158.158600 144.641830,158.091537 
	C148.771500,157.862289 152.921585,158.000305 157.531937,157.996979 
	C160.860092,157.691803 162.203720,158.791107 162.039764,161.846466 
	C161.857056,165.251221 161.999023,168.673416 162.000076,172.557495 
z"/>
<path fill="#38C477" opacity="1.000000" stroke="none" 
	d="
M164.999023,149.445282 
	C166.676254,146.649033 168.087906,144.033875 170.093613,142.006393 
	C172.929337,139.139893 176.203888,136.707489 179.645126,134.045074 
	C184.489487,133.381317 186.451416,135.124954 186.064529,139.836044 
	C185.739548,143.793350 185.934158,147.799149 186.007721,151.781464 
	C186.061539,154.695663 184.803864,156.066406 181.844360,156.006592 
	C178.194168,155.932816 174.506592,155.679489 170.897858,156.075272 
	C165.904343,156.622925 164.252426,154.538025 164.999023,149.445282 
z"/>
<path fill="#37C376" opacity="1.000000" stroke="none" 
	d="
M160.001221,147.999420 
	C160.547455,148.180222 161.093689,148.361038 161.821045,148.772751 
	C161.139481,151.424332 164.221954,155.642502 158.408966,155.999008 
	C155.958664,156.002747 153.916733,156.001221 151.500580,155.664749 
	C154.084656,152.886337 157.042938,150.442886 160.001221,147.999420 
z"/>
<path fill="#3DD782" opacity="1.000000" stroke="none" 
	d="
M201.140945,124.292427 
	C202.704163,123.709686 204.417969,123.414154 206.493774,123.059715 
	C206.524475,124.405357 206.193192,125.809906 205.769196,127.570511 
	C204.214828,126.810913 202.753189,125.695274 201.140945,124.292427 
z"/>
<path fill="#4CDD8D" opacity="1.000000" stroke="none" 
	d="
M210.208496,108.957916 
	C210.038666,108.881332 210.028015,108.708405 210.007385,108.275940 
	C210.120819,108.298126 210.244247,108.579857 210.208496,108.957916 
z"/>
<path fill="#35BD72" opacity="1.000000" stroke="none" 
	d="
M160.012268,147.605652 
	C157.042938,150.442886 154.084656,152.886337 151.063034,155.663696 
	C148.725113,155.996140 146.415573,156.228333 144.190521,155.895584 
	C143.063156,155.727005 142.088303,154.538544 141.022308,152.938263 
	C141.001404,147.587646 141.114487,143.106277 140.967957,138.633423 
	C140.854767,135.179047 142.358032,133.874664 145.726974,133.966583 
	C150.813919,134.105377 155.907440,134.003738 160.998169,134.004272 
	C163.206100,138.593765 161.781509,142.915131 160.012268,147.605652 
z"/>
<path fill="#3CBC75" opacity="1.000000" stroke="none" 
	d="
M160.969177,133.710464 
	C155.907440,134.003738 150.813919,134.105377 145.726974,133.966583 
	C142.358032,133.874664 140.854767,135.179047 140.967957,138.633423 
	C141.114487,143.106277 141.001404,147.587646 140.999146,152.533585 
	C140.554138,153.001221 140.110107,153.000610 139.333038,152.999695 
	C138.999603,148.388855 139.212387,143.763947 138.902496,139.174301 
	C138.762466,137.100113 137.582703,135.096130 136.717636,132.608887 
	C137.175385,131.646469 138.087646,129.728424 139.000092,127.009689 
	C138.994720,124.640594 138.989182,123.072189 138.983627,121.503784 
	C139.438202,121.421906 139.892776,121.340019 140.679474,121.802795 
	C141.007355,123.661285 141.156281,124.997147 140.971207,126.285004 
	C140.320801,130.811188 142.114670,132.467102 146.700226,132.080643 
	C151.103287,131.709595 155.562057,131.999374 159.996338,131.998779 
	C160.310944,132.471405 160.625565,132.944031 160.969177,133.710464 
z"/>
<path fill="#33B26B" opacity="1.000000" stroke="none" 
	d="
M138.532715,121.371529 
	C138.989182,123.072189 138.994720,124.640594 138.999527,126.604507 
	C138.117737,127.392258 136.911530,127.540871 136.406509,128.214874 
	C131.938461,134.178101 125.588516,131.565689 119.936852,131.785385 
	C118.902794,131.825577 117.799713,130.090073 116.364418,129.087463 
	C115.993004,127.291847 115.985664,125.583008 116.208832,123.358154 
	C116.638908,122.359650 116.838478,121.877144 117.038040,121.394638 
	C124.052628,121.342850 131.067215,121.291061 138.532715,121.371529 
z"/>
<path fill="#34B96F" opacity="1.000000" stroke="none" 
	d="
M160.044891,131.691299 
	C155.562057,131.999374 151.103287,131.709595 146.700226,132.080643 
	C142.114670,132.467102 140.320801,130.811188 140.971207,126.285004 
	C141.156281,124.997147 141.007355,123.661285 141.010620,121.921715 
	C147.696732,121.415558 154.383804,121.335129 161.524780,121.794998 
	C161.985580,124.556664 161.992477,126.778023 161.999390,128.999390 
	C161.364075,129.794189 160.728760,130.589005 160.044891,131.691299 
z"/>
<path fill="#2FA864" opacity="1.000000" stroke="none" 
	d="
M84.380478,131.945679 
	C82.215454,129.736221 80.342964,127.561089 78.524994,125.341316 
	C77.656067,124.280342 76.890533,123.134705 76.054794,121.686783 
	C81.056137,121.310440 86.080856,121.274734 91.554184,121.378830 
	C92.001663,123.304695 91.815666,125.113998 92.036560,126.872177 
	C92.551079,130.967468 90.835014,132.593414 86.394081,132.012939 
	C85.535736,132.000885 85.115562,131.981293 84.380478,131.945679 
z"/>
<path fill="#4BB077" opacity="1.000000" stroke="none" 
	d="
M105.707619,97.502594 
	C106.429413,99.623085 107.500351,101.707268 107.057381,103.393806 
	C106.776642,104.462646 104.209358,105.565681 102.726944,105.490013 
	C101.465073,105.425591 99.762695,103.939766 99.173706,102.660042 
	C97.515999,99.058311 100.621361,96.483620 105.707619,97.502594 
z"/>
<path fill="#4BBB7D" opacity="1.000000" stroke="none" 
	d="
M155.612473,104.765831 
	C151.912766,106.561653 149.164474,105.536888 148.654129,101.960190 
	C148.436523,100.435143 150.509781,97.437721 151.960815,97.138206 
	C153.449173,96.830986 155.815247,98.703613 157.057587,100.225822 
	C157.608032,100.900269 156.338409,103.060165 155.612473,104.765831 
z"/>
<path fill="#4CDD8D" opacity="1.000000" stroke="none" 
	d="
M99.129150,67.306717 
	C99.878372,67.510330 100.995964,67.925392 101.306328,68.674789 
	C103.506645,73.987473 107.036964,75.938446 112.752388,73.737656 
	C104.058807,78.186531 104.058807,78.186531 99.129150,67.306717 
z"/>
<path fill="#3CBC75" opacity="1.000000" stroke="none" 
	d="
M162.370392,128.939545 
	C161.992477,126.778023 161.985580,124.556664 161.972168,121.929779 
	C162.733643,121.428436 163.501633,121.332611 164.641708,121.364136 
	C164.256348,123.954216 163.498871,126.416954 162.370392,128.939545 
z"/>
<path fill="#4CDD8D" opacity="1.000000" stroke="none" 
	d="
M143.263718,74.194664 
	C145.720383,74.291222 148.423325,74.630081 151.511017,74.959595 
	C150.912308,75.553505 149.806381,76.792259 148.970291,76.631104 
	C147.079468,76.266647 145.321823,75.211304 143.263718,74.194664 
z"/>
<path fill="#4CDD8D" opacity="1.000000" stroke="none" 
	d="
M131.308838,72.184349 
	C132.598099,71.963142 134.187164,71.950333 135.898499,72.238113 
	C134.550064,72.490051 133.079361,72.441399 131.308838,72.184349 
z"/>
<path fill="#4CDD8D" opacity="1.000000" stroke="none" 
	d="
M152.228027,74.743263 
	C152.376297,73.955940 152.812653,73.029137 153.569183,72.025520 
	C153.431580,72.833725 152.973846,73.718758 152.228027,74.743263 
z"/>
<path fill="#4CDD8D" opacity="1.000000" stroke="none" 
	d="
M167.584747,86.014175 
	C168.007477,86.739868 168.014954,87.477898 168.020264,88.584839 
	C167.260422,88.235107 166.502701,87.516472 165.628906,86.497314 
	C166.065048,86.140022 166.617279,86.083267 167.584747,86.014175 
z"/>
<path fill="#4FD58B" opacity="1.000000" stroke="none" 
	d="
M116.700333,121.258949 
	C116.838478,121.877144 116.638908,122.359650 116.217751,123.001190 
	C115.660957,122.747086 115.325760,122.333946 114.973236,121.649544 
	C115.424820,121.293274 115.893723,121.208267 116.700333,121.258949 
z"/>
<path fill="#4CDD8D" opacity="1.000000" stroke="none" 
	d="
M154.201294,71.873596 
	C154.048203,71.659370 154.181259,71.445839 154.517288,71.150597 
	C154.878784,71.388763 154.801178,71.657234 154.201294,71.873596 
z"/>
<path fill="#4CDD8D" opacity="1.000000" stroke="none" 
	d="
M155.230469,69.917831 
	C155.066605,69.697395 155.202972,69.468109 155.559113,69.152252 
	C155.915741,69.393700 155.833008,69.674797 155.230469,69.917831 
z"/>
<path fill="#33B26B" opacity="1.000000" stroke="none" 
	d="
M112.552467,132.001007 
	C117.087524,138.210175 116.515541,148.776398 111.793724,152.615738 
	C110.951332,153.300674 109.749016,153.542953 108.337738,154.002884 
	C105.069550,151.214386 102.176514,148.412613 99.123962,145.319946 
	C100.869461,143.865082 103.169762,143.054123 104.593224,141.460129 
	C107.171486,138.573013 109.048080,135.239456 102.772560,133.054642 
	C103.063805,132.703156 103.355049,132.351654 103.646301,132.000168 
	C106.465508,132.000168 109.284721,132.000168 112.552467,132.001007 
z"/>
</svg>