<svg version="1.1" id="Layer_1" xmlns="http://www.w3.org/2000/svg" xmlns:xlink="http://www.w3.org/1999/xlink" x="0px" y="0px"
	 width="100%" viewBox="0 0 1024 544" enable-background="new 0 0 1024 544" xml:space="preserve">
<path fill="#000000" opacity="1.000000" stroke="none" 
	d="
M257.531342,1.000000 
	C255.615494,2.526178 252.761032,1.749742 250.243118,2.581401 
	C248.641586,3.110382 246.941345,3.795662 246.739868,5.718214 
	C246.544113,7.586079 248.235947,8.312174 249.589066,8.742414 
	C259.753967,11.974408 260.220093,21.048100 261.702484,29.244114 
	C262.454010,33.399338 258.481598,37.361275 253.744247,37.893284 
	C250.115387,38.300804 246.430069,38.314377 242.769745,38.316498 
	C194.309006,38.344566 145.848267,38.339733 97.387512,38.341400 
	C96.554932,38.341427 95.713470,38.394215 94.891350,38.295635 
	C91.707039,37.913795 87.540260,39.343689 85.869781,35.667645 
	C84.136024,31.852383 85.431343,27.548958 87.705315,24.291126 
	C91.781792,18.450932 96.103760,12.661580 103.034073,9.684057 
	C104.889687,8.886817 106.774658,7.706670 106.251991,5.248477 
	C105.747398,2.875305 103.659698,2.498022 101.593964,2.246232 
	C99.622139,2.005889 97.662277,1.667395 95.348572,1.186023 
	C149.020889,1.000000 203.041794,1.000000 257.531342,1.000000 
M131.333176,20.956863 
	C132.894958,20.001593 134.712646,18.969177 133.410202,16.818121 
	C132.136581,14.714670 129.368912,15.591157 128.117905,16.036499 
	C124.777077,17.225786 126.374054,20.255709 126.531639,22.632208 
	C128.537674,23.300455 129.464066,21.794306 131.333176,20.956863 
M149.330505,16.475370 
	C146.758774,18.240501 147.521179,20.628994 147.812881,22.844500 
	C151.266785,24.356686 153.563156,23.172169 154.071686,20.044868 
	C154.475281,17.562849 152.608948,16.201809 149.330505,16.475370 
M192.506195,16.663898 
	C191.259659,17.281153 188.944122,16.338808 189.270538,19.213284 
	C189.557297,21.738440 191.589752,21.182531 192.978378,21.572781 
	C194.470261,21.992039 195.487427,21.229797 195.692871,19.551056 
	C195.938614,17.543074 195.460968,16.255110 192.506195,16.663898 
M141.575485,20.974333 
	C142.728607,20.495108 145.226379,21.762297 144.754578,19.227480 
	C144.283127,16.694584 141.211487,17.606754 139.514999,16.433577 
	C138.540802,15.759882 137.258026,16.876209 137.404556,18.301456 
	C137.612717,20.326298 138.503571,21.781992 141.575485,20.974333 
M202.860550,21.006756 
	C205.616867,20.481459 206.523788,18.788794 206.168594,16.082973 
	C204.025513,15.193434 202.282608,16.241135 200.334442,16.295591 
	C200.320618,18.356697 198.959579,20.592928 202.860550,21.006756 
M119.916916,21.366549 
	C121.455978,19.158140 121.102852,17.332382 118.684837,16.115257 
	C117.280670,15.408455 116.345779,16.363001 116.136574,17.569767 
	C115.726921,19.932741 116.090263,21.965216 119.916916,21.366549 
z"/>
<path fill="#000000" opacity="1.000000" stroke="none" 
	d="
M165.922318,373.170593 
	C159.841721,374.445526 153.826935,373.749908 148.523544,376.792755 
	C146.734619,377.819183 145.101761,376.913452 144.898026,374.835175 
	C144.699966,372.814697 144.105164,369.828217 147.380600,369.913574 
	C160.585281,370.257599 172.931625,365.851440 185.430786,362.818970 
	C200.450912,359.174957 215.176468,354.233978 229.886047,349.416260 
	C244.273941,344.703979 258.762787,340.096558 272.648560,334.140503 
	C279.541565,331.183838 286.495361,330.067108 293.572418,328.605743 
	C300.746063,327.124451 307.871857,325.407349 315.004944,323.735291 
	C318.212524,322.983429 321.519226,322.672668 324.289398,320.407318 
	C326.293823,318.768188 328.859497,320.576782 331.070740,320.192230 
	C343.936157,317.954865 357.222229,317.736633 369.448547,312.374451 
	C372.046844,311.234924 374.691650,312.410980 377.348816,312.154907 
	C387.841248,311.143860 398.334290,309.206665 408.111877,305.888702 
	C417.960541,302.546570 428.008057,304.425293 437.696991,301.846405 
	C444.990753,299.905029 452.623810,299.901917 460.069427,297.831787 
	C464.289093,296.658600 470.044617,298.108276 475.089264,297.630615 
	C485.138550,296.679108 495.422791,297.782806 505.183502,294.204620 
	C507.614807,293.313354 509.524384,295.826874 511.901642,295.531830 
	C524.404785,293.980194 537.026672,295.283417 549.623352,292.861145 
	C556.035767,291.628052 563.415283,293.184723 570.291565,292.583618 
	C578.521667,291.864136 586.957703,292.906677 594.969666,290.006500 
	C596.666809,289.392181 598.225647,290.780182 599.805603,290.751740 
	C612.588928,290.521759 625.452087,291.887848 638.118713,289.336884 
	C640.761658,288.804565 643.046936,289.834229 645.480408,289.744141 
	C658.422913,289.264954 671.470459,290.761322 684.285461,287.755859 
	C685.083801,287.568634 686.009338,287.379456 686.756165,287.598633 
	C698.437866,291.026733 710.515198,290.303833 722.410889,290.520844 
	C736.932922,290.785706 751.333862,293.211578 765.841980,292.734833 
	C780.596741,292.250031 795.044189,295.977112 809.730469,295.567047 
	C825.474426,295.127441 840.907593,298.633209 856.596069,298.694641 
	C871.956116,298.754791 887.134766,301.288208 902.426208,302.337463 
	C904.774475,302.498566 906.588440,301.610596 908.645203,301.086517 
	C910.036499,300.732025 911.977905,300.648804 911.820557,302.947174 
	C911.717590,304.450745 910.924683,305.986908 908.931213,305.601501 
	C898.918823,303.665588 888.742249,303.500153 878.622559,302.988373 
	C859.406250,302.016663 840.295654,299.695984 821.027649,299.167267 
	C811.307678,298.900543 801.497437,297.956482 791.784241,296.923767 
	C783.845459,296.079712 775.875427,296.094391 767.958740,295.668243 
	C755.681580,295.007324 743.335876,294.606110 731.048950,294.072906 
	C717.955139,293.504669 704.830750,292.258301 691.725769,291.968018 
	C675.453979,291.607574 659.156067,292.412842 642.869751,292.733917 
	C640.214417,292.786255 637.562012,292.976776 634.906677,293.038147 
	C607.130615,293.680542 579.392273,295.049988 551.643738,296.451965 
	C534.948242,297.295502 518.173340,297.809296 501.459991,298.610138 
	C488.205780,299.245239 474.914124,300.216919 461.664978,301.707581 
	C449.617096,303.063110 437.600281,304.619934 425.572205,306.118347 
	C412.871765,307.700470 400.520935,311.029083 387.983002,313.391083 
	C370.036469,316.771973 351.892151,319.108276 333.956085,322.538055 
	C304.414246,328.187103 275.237854,335.097992 247.123047,346.293579 
	C231.259888,352.610443 214.615067,356.963806 198.325806,362.212250 
	C196.800079,362.703857 195.000717,362.720673 194.063385,364.483673 
	C195.206177,366.631348 196.969696,365.623199 198.413177,365.262299 
	C209.230499,362.557983 220.064697,359.907959 230.819046,356.968201 
	C245.170334,353.045135 259.615204,349.360565 273.722565,344.677856 
	C288.194824,339.873993 303.404266,338.655426 317.945435,334.502869 
	C333.018616,330.198334 348.772644,330.361450 363.924469,326.808472 
	C377.666504,323.586090 391.899261,323.543060 405.624573,320.539215 
	C421.461700,317.073212 437.743317,318.248993 453.482880,315.239258 
	C459.564270,314.076355 466.329193,316.579834 471.835266,312.138123 
	C472.349304,311.723419 473.473969,311.928650 474.287628,312.042572 
	C489.559235,314.180695 504.786987,311.527588 520.043762,311.549500 
	C530.466064,311.564484 540.909851,310.445496 551.312866,309.698517 
	C560.297607,309.053406 569.602722,309.778931 578.621155,308.627441 
	C594.715210,306.572449 610.829651,308.399353 626.875793,307.472229 
	C639.004578,306.771454 651.087097,308.097412 663.202820,307.071777 
	C682.407471,305.446075 701.551208,307.573212 720.702698,308.750458 
	C736.068176,309.695007 751.438782,311.292236 766.805664,311.275269 
	C783.143066,311.257233 799.338196,312.990112 815.610352,313.640564 
	C829.284180,314.187195 842.906250,316.240265 856.577454,316.583221 
	C872.320068,316.978149 887.848511,319.628876 903.558838,320.136719 
	C905.469177,320.198456 907.125000,320.002197 908.858398,319.318756 
	C910.102539,318.828186 911.129211,319.467163 911.763550,320.613586 
	C912.197449,321.397583 912.163574,322.223053 911.675720,322.975250 
	C910.929016,324.126495 909.871460,324.180756 908.610352,323.937012 
	C894.419617,321.194244 880.115662,320.207245 865.670837,321.013092 
	C862.388916,321.196136 859.448975,319.236420 856.001465,319.168030 
	C848.025146,319.009766 840.068726,317.791534 832.093262,317.658203 
	C815.209778,317.375916 798.477234,314.730438 781.630493,314.470795 
	C766.194336,314.232849 750.798096,313.438141 735.401489,312.582672 
	C720.711243,311.766388 706.056519,309.964050 691.363159,309.642700 
	C674.835144,309.281219 658.285645,309.674072 641.740906,310.733063 
	C634.884644,311.171906 627.819641,310.363708 620.844727,310.315735 
	C597.798462,310.157288 574.860107,311.612549 551.909424,313.811401 
	C542.904053,314.674133 533.622437,314.061920 524.488342,314.401917 
	C505.109863,315.123260 485.740479,316.166412 466.381958,317.322113 
	C453.007294,318.120575 439.554596,318.617920 426.320984,320.526886 
	C408.336456,323.121155 390.220856,324.750671 372.386292,328.780914 
	C364.170227,330.637604 355.360626,330.842896 346.864716,332.185181 
	C340.339203,333.216156 333.858917,334.894257 327.433228,335.848846 
	C316.722137,337.440094 306.240723,339.851685 295.742493,342.228455 
	C277.650177,346.324554 259.695801,351.070404 242.078217,356.860321 
	C229.959702,360.843018 217.269165,362.278992 205.170502,366.181091 
	C201.252182,367.444794 196.973892,367.546997 193.453552,370.106232 
	C191.631393,371.430908 189.563889,369.920197 187.599060,370.196655 
	C180.523315,371.192200 173.440826,372.139862 165.922318,373.170593 
M186.354858,365.390167 
	C183.495682,366.221436 180.636505,367.052704 177.777328,367.883972 
	C182.072159,367.982880 186.394119,368.321350 190.089447,365.447815 
	C188.855652,364.364014 187.947632,365.277466 186.354858,365.390167 
z"/>
<path fill="#000000" opacity="1.000000" stroke="none" 
	d="
M906.643188,389.125397 
	C892.824341,388.023468 879.400208,387.690186 865.930176,387.856964 
	C860.712158,387.921631 855.383484,387.043213 850.083252,386.855164 
	C840.283203,386.507477 830.375610,386.941040 820.708252,386.223480 
	C808.918335,385.348328 797.140808,385.143127 785.381042,384.961578 
	C767.161621,384.680328 749.023804,382.752045 730.719543,383.427399 
	C721.920654,383.752045 712.830688,382.350891 703.854858,382.152954 
	C685.806335,381.754974 667.755493,381.426422 649.703918,381.213409 
	C633.580750,381.023102 617.462036,380.933533 601.336914,380.528687 
	C586.922607,380.166779 572.468689,380.236603 558.031677,380.113159 
	C543.923157,379.992523 529.811279,379.989685 515.703369,380.148743 
	C499.785583,380.328186 483.846039,379.980530 467.957672,380.423737 
	C439.356995,381.221497 410.761749,380.721100 382.171234,381.210907 
	C366.222687,381.484161 350.273254,380.938995 334.318573,381.882538 
	C319.765594,382.743134 305.161285,382.701172 290.584961,383.211060 
	C274.871002,383.760773 259.166443,384.584076 243.451889,385.111877 
	C229.267075,385.588226 215.074753,385.849335 200.884827,386.163971 
	C184.971725,386.516815 169.056915,386.795990 153.144836,387.187714 
	C151.346588,387.231964 149.571686,387.890411 147.766785,388.094055 
	C146.010666,388.292114 144.709152,387.444397 144.767212,385.609253 
	C144.823227,383.839508 146.147247,382.678650 147.836960,383.268799 
	C156.011703,386.123535 164.294296,384.475037 172.524704,383.998566 
	C179.119888,383.616669 185.921921,382.543488 192.261032,382.682037 
	C202.515549,382.906189 212.776840,382.524750 223.028641,382.776123 
	C241.805786,383.236542 260.409027,380.145996 279.135040,379.779297 
	C289.609497,379.574219 300.078461,379.218536 310.550476,379.023621 
	C327.301361,378.711761 344.130188,379.659119 360.793640,378.366730 
	C378.992126,376.955292 397.185944,378.576355 415.397614,376.830933 
	C425.007996,375.909851 434.985931,376.868164 444.798492,376.858307 
	C462.217651,376.840759 479.636688,376.749298 497.055847,376.722534 
	C511.982788,376.699585 526.909851,376.701324 541.836731,376.733582 
	C556.454590,376.765167 571.082703,377.213135 585.687012,376.798584 
	C598.110962,376.445923 610.436890,377.876617 622.843506,377.805817 
	C640.927124,377.702637 659.014160,378.532837 677.101257,378.611420 
	C691.701538,378.674866 706.283203,379.225647 720.873169,379.513977 
	C736.977356,379.832214 753.074707,379.844971 769.171021,380.831848 
	C775.562439,381.223724 782.044678,379.724640 788.568054,380.043823 
	C788.398254,381.703918 786.836914,380.583618 785.904419,381.774841 
	C797.091919,381.849579 807.879272,383.742126 818.786865,382.079315 
	C822.389648,381.530090 825.901794,383.121765 829.588196,383.177002 
	C838.239502,383.306732 846.881226,384.040070 855.528687,384.493134 
	C858.172363,384.631683 860.830994,384.989288 863.329224,383.543121 
	C865.955750,382.022736 867.957336,384.864014 870.461487,384.715515 
	C883.242798,383.957428 896.013489,386.778961 908.803467,384.858215 
	C910.210693,384.646881 911.589539,384.786377 912.153015,386.285645 
	C912.409241,386.967499 912.377014,388.058075 911.986511,388.628204 
	C910.646179,390.585022 908.796570,389.834503 906.643188,389.125397 
z"/>
<path fill="#000000" opacity="1.000000" stroke="none" 
	d="
M102.882629,332.855042 
	C102.842964,306.054230 102.807617,279.735840 102.815353,253.417435 
	C102.816277,250.286652 102.374535,246.899826 107.189400,246.563339 
	C111.354805,246.272247 114.348305,246.448227 115.733162,251.621094 
	C116.985558,256.299164 117.604546,260.586487 116.292290,265.279266 
	C115.541054,267.965759 115.127609,270.881561 115.280075,273.654663 
	C115.514587,277.919830 118.342812,279.202301 121.766449,276.758545 
	C124.828026,274.573212 127.886139,276.311096 130.887512,276.534668 
	C132.309738,276.640533 132.204391,278.616333 132.164139,279.952301 
	C132.112183,281.675964 130.934494,282.310120 129.482819,282.228699 
	C123.496529,281.893066 123.448944,285.673340 124.342888,289.800873 
	C125.059608,293.110077 125.729591,296.459259 124.715630,299.673065 
	C123.180573,304.538513 125.148796,307.545441 129.399414,309.121399 
	C131.775635,310.002350 132.512756,311.201660 132.316635,313.503662 
	C132.125885,315.742645 130.604355,316.155426 128.835617,316.227203 
	C126.928345,316.304688 125.667099,317.046814 125.359871,319.061066 
	C123.614876,330.501648 117.678864,340.902588 117.158493,352.594055 
	C112.353516,353.435638 109.874367,346.988525 104.263947,349.530670 
	C103.780045,343.785980 103.339989,338.561707 102.882629,332.855042 
z"/>
<path fill="#000000" opacity="1.000000" stroke="none" 
	d="
M547.951782,415.321716 
	C535.910828,415.163361 524.246338,415.206360 512.585876,415.009430 
	C509.563049,414.958405 507.725800,416.363617 505.859772,419.674652 
	C504.719208,415.074768 501.859283,414.968597 498.728210,415.002808 
	C488.397034,415.115784 478.064178,415.077515 467.731964,415.092560 
	C465.164612,415.096283 462.569397,415.025604 461.626404,419.145996 
	C459.557861,415.208496 456.627838,414.983795 453.390839,415.020233 
	C443.226593,415.134552 433.060059,415.045227 422.894409,415.040527 
	C420.354187,415.039368 417.732208,414.885834 416.681305,419.034210 
	C415.275696,415.480530 413.026794,415.019531 410.406860,415.034790 
	C399.408386,415.098969 388.409271,415.086975 377.410492,415.062134 
	C374.735107,415.056091 372.362274,415.386230 371.690216,419.071564 
	C370.714111,415.706940 368.667725,414.983459 365.725311,415.026276 
	C355.228699,415.179169 344.727509,415.150055 334.229889,415.029358 
	C330.970886,414.991882 328.316467,415.567871 326.894073,420.505707 
	C325.481842,414.872345 322.157532,414.987610 318.619751,415.033691 
	C308.955780,415.159576 299.288544,415.113586 289.623505,415.031097 
	C286.518951,415.004639 283.614014,415.090546 281.984039,420.120422 
	C280.648743,415.095886 277.800507,414.996704 274.708008,415.023560 
	C264.543182,415.111847 254.376129,415.132904 244.212021,415.009033 
	C240.847595,414.968048 237.883087,415.206665 236.409363,420.802979 
	C235.673584,415.689240 233.418640,415.039459 230.446091,415.062683 
	C219.781372,415.146088 209.111633,415.223846 198.452133,414.962799 
	C195.113708,414.881042 193.362366,416.498322 191.433212,420.290863 
	C190.842545,414.992218 187.959061,414.985504 184.823929,415.010956 
	C174.825729,415.092194 164.826218,415.030487 154.827316,414.995270 
	C151.630081,414.984009 148.343857,414.681976 146.962936,419.233887 
	C145.831299,415.294800 142.899765,414.723328 139.780563,414.417603 
	C139.922150,414.016815 140.063721,413.616058 140.205292,413.215271 
	C399.458527,413.215271 658.711731,413.215271 918.778564,413.215271 
	C916.062195,416.421417 910.875061,413.663422 910.281616,419.471863 
	C908.610046,414.411224 905.169067,415.067413 902.055176,415.058990 
	C891.889771,415.031525 881.724121,415.079346 871.558777,415.038666 
	C868.887146,415.027954 866.539490,415.403992 865.519165,419.370331 
	C863.563416,414.839233 860.269958,415.002716 856.957153,415.017548 
	C847.291626,415.060791 837.625610,415.061127 827.960266,415.001251 
	C824.681641,414.980957 821.466553,414.849243 820.468872,419.586823 
	C819.031921,414.994080 815.805969,414.976501 812.344360,415.009766 
	C802.346375,415.105927 792.346741,415.017059 782.347717,415.030701 
	C779.303284,415.034851 775.952332,414.573242 775.432922,419.767120 
	C773.472290,414.851074 770.023865,414.959625 766.354370,415.014069 
	C756.857483,415.155060 747.356812,415.019623 737.858093,415.071350 
	C734.780457,415.088104 731.140137,414.206573 730.451782,419.717834 
	C728.864502,414.683380 725.439514,415.034760 722.085327,415.052612 
	C712.086609,415.105865 702.087524,415.079712 692.088623,415.107544 
	C689.441895,415.114899 686.623474,414.813568 685.482178,419.367157 
	C684.091980,415.298157 681.685669,415.075958 679.054443,415.080780 
	C668.389038,415.100311 657.722717,415.101166 647.058411,414.973694 
	C644.092590,414.938232 641.799377,415.587982 640.682129,420.327728 
	C639.496582,415.354034 636.841187,414.989014 633.723145,415.020172 
	C623.725342,415.120148 613.725464,415.069336 603.726868,414.999695 
	C600.354065,414.976196 597.007263,414.773773 595.691528,419.481659 
	C594.800781,415.512054 592.459656,414.969696 589.314026,415.015411 
	C578.984192,415.165558 568.649719,415.108002 558.318481,414.995667 
	C555.095032,414.960663 552.288452,415.259186 551.547119,418.968079 
	C548.885620,418.853394 550.113525,415.902740 547.951782,415.321716 
z"/>
<path fill="#000000" opacity="1.000000" stroke="none" 
	d="
M805.702637,23.766817 
	C807.325256,21.205967 808.815918,19.057024 811.329895,17.790369 
	C814.266968,16.310524 816.934082,14.997892 819.604370,18.450079 
	C820.719666,19.891958 823.408752,20.751093 824.617981,19.822746 
	C828.647583,16.729090 833.261536,17.494026 837.653625,17.199802 
	C840.687378,16.996574 844.173584,15.495121 846.493958,19.692232 
	C847.681396,21.840185 850.445496,23.161642 852.595154,24.721415 
	C855.497559,26.827349 855.288330,29.064524 853.026245,31.398489 
	C850.020752,34.499477 846.234314,36.110592 842.049438,36.890026 
	C833.303589,38.518970 824.473267,37.973072 815.668152,37.807606 
	C813.890930,37.774208 812.040039,37.200459 810.373779,36.511360 
	C803.872559,33.822731 802.616272,30.469364 805.702637,23.766817 
z"/>
<path fill="#000000" opacity="1.000000" stroke="none" 
	d="
M533.930298,261.070190 
	C518.359802,261.135620 503.246857,261.240967 488.133911,261.245331 
	C485.621368,261.246063 482.109406,261.994568 482.089722,258.007172 
	C482.077606,255.562408 481.100922,251.792389 485.297943,251.284454 
	C488.771790,250.864014 492.601746,250.410233 493.220764,255.581924 
	C493.269318,255.987885 493.660614,256.352814 493.918304,256.779358 
	C496.031525,255.555191 495.242645,252.498734 497.561615,251.592667 
	C500.256470,251.757919 499.012604,255.203094 501.552307,255.970612 
	C503.415710,249.998306 508.392700,251.524780 512.731018,251.867554 
	C520.531250,252.483856 528.155701,250.036987 535.917358,250.740555 
	C539.091614,251.028290 543.857300,248.684189 544.125183,254.812881 
	C544.310303,259.046661 541.136169,261.280914 535.381775,261.174957 
	C535.050049,261.168854 534.719177,261.110413 533.930298,261.070190 
z"/>
<path fill="#000000" opacity="1.000000" stroke="none" 
	d="
M80.425995,228.164154 
	C73.481964,229.753311 66.860161,231.270187 60.200878,232.599304 
	C57.262512,233.185760 54.253609,233.060410 51.284290,232.519211 
	C40.541340,230.561157 36.608223,221.207718 42.545654,211.482864 
	C44.574493,213.348083 43.978947,215.835236 43.931705,217.999893 
	C43.833492,222.500641 45.791721,224.383713 50.235935,224.103348 
	C59.376392,223.526718 68.472206,224.629364 77.577652,225.131256 
	C78.748566,225.195816 82.865158,223.677277 80.425995,228.164154 
z"/>
<path fill="#000000" opacity="1.000000" stroke="none" 
	d="
M98.011444,124.795471 
	C97.893562,127.642822 95.982872,127.477631 94.377258,127.521210 
	C90.576424,127.624374 86.768845,127.508553 82.969978,127.646271 
	C79.460091,127.773521 75.975876,128.064194 74.047066,124.012337 
	C71.448097,128.884781 66.580872,131.062073 63.608299,128.664642 
	C60.879082,126.463493 61.203781,123.202812 62.587772,120.469658 
	C64.015793,117.649559 69.188660,118.175369 73.651970,121.268600 
	C79.564034,117.924690 85.978363,120.586349 92.084038,119.712212 
	C95.920708,119.162926 97.660263,120.770111 98.011444,124.795471 
z"/>
<path fill="#000000" opacity="1.000000" stroke="none" 
	d="
M676.338562,196.808487 
	C678.960083,204.411942 678.911377,204.463562 671.251343,204.475266 
	C664.664490,204.485336 658.077209,204.590042 651.491028,204.537735 
	C649.307495,204.520401 647.070312,204.401932 647.464172,201.033539 
	C647.789307,198.252640 648.537537,196.098389 651.804382,196.155701 
	C656.754028,196.242538 661.701355,196.459000 666.650879,196.564819 
	C669.766174,196.631424 672.883728,196.596558 676.338562,196.808487 
z"/>
<path fill="#000000" opacity="1.000000" stroke="none" 
	d="
M649.800598,101.987434 
	C647.910645,100.198677 646.687439,98.394615 647.705566,96.057594 
	C648.858398,93.411324 651.497620,93.986862 653.377075,94.233078 
	C659.829590,95.078407 666.226501,93.952820 672.652832,94.070312 
	C676.717590,94.144623 677.472839,96.702393 677.742859,99.474197 
	C678.076477,102.898186 675.091125,102.242615 673.108704,102.251053 
	C665.476013,102.283577 657.842712,102.164642 649.800598,101.987434 
z"/>
<path fill="#000000" opacity="1.000000" stroke="none" 
	d="
M521.306152,264.625427 
	C529.126343,264.517609 536.489746,265.322968 543.859741,264.635681 
	C548.188049,264.232025 549.677368,266.158966 548.196106,270.589661 
	C538.123596,271.465454 527.959595,271.443939 517.798157,271.276154 
	C515.330627,271.235443 511.971741,271.971832 512.005920,267.808136 
	C512.041626,263.461334 515.415894,264.784363 517.867981,264.658203 
	C518.860718,264.607117 519.857178,264.629517 521.306152,264.625427 
z"/>
<path fill="#000000" opacity="1.000000" stroke="none" 
	d="
M677.925781,150.039703 
	C678.234436,152.983231 676.652405,153.428314 674.572632,153.417084 
	C666.797546,153.375107 659.022217,153.351807 651.247009,153.363052 
	C648.675964,153.366776 647.713623,152.015762 647.765442,149.620758 
	C647.818970,147.147659 648.755981,145.999313 651.475708,145.384842 
	C657.024414,144.131256 662.234741,146.584381 667.672607,146.218689 
	C668.891846,146.136703 670.136841,146.557709 671.397461,145.935440 
	C675.366272,143.976318 677.262024,145.708710 677.925781,150.039703 
z"/>
<path fill="#000000" opacity="1.000000" stroke="none" 
	d="
M192.808746,102.259384 
	C189.309738,101.277908 189.065506,98.617950 189.446594,96.213196 
	C189.889099,93.420967 192.476318,93.579964 194.644928,93.691536 
	C198.432434,93.886391 202.167892,93.181427 206.018616,93.678680 
	C212.538864,94.520653 213.034470,94.852524 211.842117,101.889732 
	C205.697906,102.773438 199.433228,102.056915 192.808746,102.259384 
z"/>
<path fill="#000000" opacity="1.000000" stroke="none" 
	d="
M75.253609,72.259163 
	C77.709991,66.092430 82.946785,69.356247 86.948647,68.779358 
	C88.572311,68.545311 90.483849,69.046349 92.301903,68.735100 
	C94.240608,68.403206 96.502190,67.702446 97.658585,69.983330 
	C98.559525,71.760330 98.816643,74.004166 97.950661,75.788826 
	C96.862556,78.031258 94.481071,77.116005 92.556503,77.116035 
	C88.565132,77.116119 84.572929,77.152794 80.582664,77.082916 
	C77.618690,77.031013 75.329002,76.065170 75.253609,72.259163 
z"/>
<path fill="#000000" opacity="1.000000" stroke="none" 
	d="
M190.104858,75.732239 
	C188.989197,70.226234 190.752731,67.870575 195.543015,68.372124 
	C199.839310,68.821953 204.114044,68.985977 208.382767,68.432274 
	C212.470215,67.902084 212.458267,70.448410 212.558380,73.334099 
	C212.676239,76.731102 210.934662,76.941795 208.149567,76.848228 
	C203.745041,76.700233 199.316940,76.994537 194.910782,77.284058 
	C193.155075,77.399422 191.610626,77.332787 190.104858,75.732239 
z"/>
<path fill="#000000" opacity="1.000000" stroke="none" 
	d="
M647.828735,173.199402 
	C649.503784,170.654312 651.905273,170.699738 654.210449,170.670731 
	C658.020874,170.622742 661.847839,170.925842 665.640015,170.669815 
	C669.283264,170.423843 670.139587,172.190262 670.371826,175.360870 
	C670.657898,179.268463 668.317993,179.143173 665.635498,179.125793 
	C661.493591,179.098938 657.321655,178.974503 653.215576,179.401825 
	C648.444763,179.898346 646.711304,178.129242 647.828735,173.199402 
z"/>
<path fill="#000000" opacity="1.000000" stroke="none" 
	d="
M82.636154,179.258911 
	C78.769119,178.769775 73.922729,180.183151 75.024849,173.713715 
	C75.354530,171.778458 76.120567,170.569412 78.174232,170.663101 
	C81.449310,170.812546 84.774895,170.780807 87.966743,171.402527 
	C89.370651,171.676010 90.386536,171.830170 91.644951,171.165283 
	C93.325249,170.277466 95.436363,169.687424 96.676888,171.365128 
	C97.919510,173.045670 98.618408,175.420761 97.842796,177.501572 
	C97.055252,179.614395 94.816353,179.074066 93.032051,179.106598 
	C89.712059,179.167191 86.391670,179.206573 82.636154,179.258911 
z"/>
<path fill="#000000" opacity="1.000000" stroke="none" 
	d="
M883.516602,457.290375 
	C880.546387,454.600677 881.593079,452.744324 884.783813,453.067169 
	C895.964233,454.198517 907.269043,452.423767 918.353638,454.626801 
	C919.856384,454.925446 920.611511,452.962433 922.207947,454.276123 
	C923.345459,457.651001 922.036011,458.826599 918.358887,458.618195 
	C908.586670,458.064392 898.797546,457.421722 889.041809,458.902313 
	C887.043823,459.205536 885.674255,457.589050 883.516602,457.290375 
z"/>
<path fill="#000000" opacity="1.000000" stroke="none" 
	d="
M440.109497,68.873581 
	C443.018677,75.926620 442.668793,76.148376 435.697723,76.532646 
	C431.388824,76.770180 427.119141,76.231117 422.860596,76.523186 
	C419.217957,76.773003 418.718964,74.528503 418.527069,71.929871 
	C418.323578,69.174110 420.288849,68.663734 422.451569,68.655319 
	C428.223816,68.632835 433.996307,68.667618 440.109497,68.873581 
z"/>
<path fill="#000000" opacity="1.000000" stroke="none" 
	d="
M423.193726,170.856354 
	C428.201080,170.282867 432.716187,171.961807 437.355377,170.710846 
	C440.848663,169.768860 441.240997,172.731857 441.640228,175.284653 
	C442.108124,178.276535 440.367035,179.143188 437.897430,179.194733 
	C433.122375,179.294388 428.345306,179.293335 423.569183,179.344193 
	C421.022400,179.371307 418.963959,178.854340 418.738190,175.712296 
	C418.525635,172.753677 419.382812,170.816116 423.193726,170.856354 
z"/>
<path fill="#000000" opacity="1.000000" stroke="none" 
	d="
M85.855164,204.451904 
	C83.183037,205.026978 80.885857,205.440109 78.551529,204.975281 
	C75.793274,204.425980 74.648155,202.318390 74.663200,199.883163 
	C74.680275,197.120636 76.966499,196.482346 79.260330,196.441559 
	C84.218117,196.353394 89.165260,196.908646 94.141930,196.250061 
	C98.011124,195.738022 97.472397,199.265015 98.010132,201.418930 
	C98.652367,203.991425 96.724892,204.464981 94.701912,204.465393 
	C91.883591,204.465973 89.065254,204.417328 85.855164,204.451904 
z"/>
<path fill="#000000" opacity="1.000000" stroke="none" 
	d="
M210.531525,127.762680 
	C204.576736,127.890594 199.003174,127.792862 193.437683,127.961464 
	C190.450958,128.051956 189.669403,126.158081 189.474396,123.947853 
	C189.258438,121.500610 190.422150,119.747475 193.168777,119.726105 
	C198.455780,119.684959 203.743332,119.711571 209.030655,119.715096 
	C210.676163,119.716194 211.986328,120.248360 212.294067,122.063492 
	C212.640686,124.108047 213.709366,126.365013 210.531525,127.762680 
z"/>
<path fill="#000000" opacity="1.000000" stroke="none" 
	d="
M193.343460,179.604858 
	C190.276062,179.327850 189.214966,177.989700 189.735916,175.219055 
	C190.240097,172.537613 191.596268,171.005173 194.353638,170.981903 
	C199.071548,170.942093 203.783600,171.570068 208.509674,170.736389 
	C211.748138,170.165146 212.261002,172.436951 212.549805,175.001328 
	C212.897247,178.086075 211.575165,179.214386 208.631149,179.231995 
	C203.665237,179.261688 198.700317,179.456375 193.343460,179.604858 
z"/>
<path fill="#000000" opacity="1.000000" stroke="none" 
	d="
M305.652405,94.478073 
	C311.758240,94.105461 317.536774,93.875809 323.315491,93.872238 
	C327.059113,93.869926 326.460815,97.229507 326.922913,99.407608 
	C327.480682,102.036591 325.364014,102.263290 323.422913,102.272339 
	C318.774933,102.293999 314.109039,102.551918 309.483459,102.233597 
	C304.046753,101.859474 303.005981,99.711090 305.652405,94.478073 
z"/>
<path fill="#000000" opacity="1.000000" stroke="none" 
	d="
M665.284912,76.676842 
	C660.664795,76.615822 656.382385,76.538651 652.100525,76.561058 
	C649.831604,76.572929 647.446777,76.657486 647.564331,73.513016 
	C647.672668,70.613441 649.871216,69.017197 652.392944,68.777168 
	C657.150940,68.324318 661.959290,68.325989 666.747803,68.293617 
	C670.491089,68.268295 670.131714,71.285843 670.325623,73.673233 
	C670.632690,77.454170 667.981506,76.911888 665.284912,76.676842 
z"/>
<path fill="#000000" opacity="1.000000" stroke="none" 
	d="
M82.060272,145.168167 
	C86.073608,145.591370 89.683662,145.934570 93.314644,145.072235 
	C97.415558,144.098282 97.386116,147.391678 97.938362,149.874161 
	C98.650360,153.074768 96.380730,153.521164 94.096321,153.536362 
	C89.295769,153.568268 84.490410,153.287674 79.694176,153.411804 
	C76.599197,153.491898 75.085587,152.384476 74.920181,149.228363 
	C74.734238,145.680435 76.943001,145.115189 79.688240,145.057663 
	C80.350105,145.043793 81.013107,145.083954 82.060272,145.168167 
z"/>
<path fill="#000000" opacity="1.000000" stroke="none" 
	d="
M194.657318,196.075409 
	C198.436325,197.040970 201.941025,196.785751 205.372787,196.662811 
	C212.676361,196.401154 212.710541,196.296463 212.158875,204.731262 
	C205.561996,204.731262 198.890900,204.762375 192.220474,204.708710 
	C190.616180,204.695816 189.901306,203.642242 189.944931,202.070282 
	C190.027908,199.079590 190.525162,196.386047 194.657318,196.075409 
z"/>
<path fill="#000000" opacity="1.000000" stroke="none" 
	d="
M316.045776,68.685616 
	C318.276489,68.599136 320.100952,68.585342 321.919678,68.476158 
	C323.545654,68.378540 325.574890,67.664841 326.277405,69.671707 
	C326.904877,71.464104 327.854553,73.594589 326.718048,75.446747 
	C325.599213,77.270157 323.630615,76.692238 321.769318,76.610771 
	C317.569031,76.426926 313.345856,76.457504 309.146088,76.674255 
	C306.163696,76.828178 304.148773,76.088104 304.160645,72.767426 
	C304.172394,69.485703 306.279816,68.617302 309.169922,68.718628 
	C311.322968,68.794113 313.481171,68.722755 316.045776,68.685616 
z"/>
<path fill="#000000" opacity="1.000000" stroke="none" 
	d="
M419.278992,122.361000 
	C420.178497,119.769249 421.987305,119.629982 423.883331,119.636589 
	C428.361542,119.652184 432.845856,119.806015 437.316010,119.621063 
	C440.945160,119.470917 441.264740,121.900368 441.591156,124.438026 
	C441.991333,127.548820 439.882080,128.026596 437.540833,128.070847 
	C434.570984,128.126968 431.597778,128.127487 428.628479,128.052979 
	C425.674774,127.978867 422.724121,127.782120 419.886658,127.644691 
	C418.568390,126.038200 418.845367,124.398811 419.278992,122.361000 
z"/>
<path fill="#000000" opacity="1.000000" stroke="none" 
	d="
M771.645386,179.158875 
	C769.723145,179.215149 768.231384,179.217346 766.741089,179.265167 
	C763.866821,179.357361 762.105347,178.788391 762.304016,175.101425 
	C762.496887,171.521851 763.980652,170.564911 767.207336,170.738251 
	C771.792847,170.984604 776.307861,172.060394 781.011658,170.822525 
	C784.324585,169.950668 784.419739,173.113297 784.835815,175.344955 
	C785.319397,177.938904 783.930664,179.086823 781.529541,179.137848 
	C778.380005,179.204758 775.227661,179.135880 771.645386,179.158875 
z"/>
<path fill="#000000" opacity="1.000000" stroke="none" 
	d="
M542.353638,178.900116 
	C540.447205,179.052826 538.953369,179.119080 537.458923,179.145859 
	C534.339417,179.201767 533.509460,176.885696 533.261169,174.544968 
	C532.994934,172.034653 534.970215,170.959061 537.097595,170.869904 
	C542.243042,170.654282 547.399414,170.663971 552.551453,170.652664 
	C556.228760,170.644592 555.282104,173.874374 555.849731,175.826691 
	C556.575562,178.323196 554.686829,179.069504 552.671814,179.079178 
	C549.370422,179.095016 546.067993,178.901184 542.353638,178.900116 
z"/>
<path fill="#000000" opacity="1.000000" stroke="none" 
	d="
M883.201416,76.637375 
	C879.448730,76.934326 876.343750,76.962624 876.734314,72.079063 
	C876.895325,70.065628 877.930176,68.844223 879.775696,68.763992 
	C884.914795,68.540558 890.064087,68.564499 895.208679,68.454971 
	C898.665222,68.381371 899.261963,70.659637 899.377563,73.385971 
	C899.515930,76.649338 897.210205,76.596550 894.985107,76.616905 
	C891.176575,76.651756 887.367737,76.658173 883.201416,76.637375 
z"/>
<path fill="#000000" opacity="1.000000" stroke="none" 
	d="
M657.414795,119.631325 
	C660.194214,119.661507 662.537720,119.870644 664.844238,119.665031 
	C668.274658,119.359230 670.175110,120.338226 670.326965,124.158829 
	C670.486633,128.172516 667.845886,127.629189 665.362854,127.788162 
	C660.938110,128.071472 656.506775,127.346481 652.073730,128.094803 
	C649.707764,128.494186 647.773254,127.799973 647.696411,124.775070 
	C647.626465,122.019066 647.949219,119.680595 651.479614,119.646622 
	C653.307129,119.629036 655.134705,119.631378 657.414795,119.631325 
z"/>
<path fill="#000000" opacity="1.000000" stroke="none" 
	d="
M898.147400,171.649353 
	C900.048523,178.228760 899.420593,179.107941 893.301575,179.108429 
	C889.384644,179.108765 885.457275,178.900192 881.554138,179.125198 
	C878.330078,179.311050 876.966125,177.919876 876.842896,174.902786 
	C876.719788,171.889816 878.346191,170.879730 881.159546,170.874603 
	C886.737366,170.864456 892.328308,170.120529 898.147400,171.649353 
z"/>
<path fill="#000000" opacity="1.000000" stroke="none" 
	d="
M419.936920,146.705505 
	C426.105072,144.318832 432.308594,146.147491 438.387726,145.203125 
	C441.567596,144.709122 441.562195,148.511688 441.754364,150.878174 
	C441.956207,153.364044 440.103210,153.742065 438.035431,153.664978 
	C433.383514,153.491608 428.728882,153.384293 424.074677,153.280960 
	C418.057404,153.147354 417.814697,152.811630 419.936920,146.705505 
z"/>
<path fill="#000000" opacity="1.000000" stroke="none" 
	d="
M762.478516,100.692673 
	C761.401917,96.183159 762.674683,94.192207 767.321167,94.174133 
	C771.917725,94.156250 776.523315,95.069893 781.156616,93.958618 
	C783.465759,93.404778 784.284973,95.270363 784.378601,97.342819 
	C784.454407,99.021637 785.771301,101.802032 783.196594,101.880028 
	C776.371826,102.086777 769.429382,103.536407 762.478516,100.692673 
z"/>
<path fill="#000000" opacity="1.000000" stroke="none" 
	d="
M770.121887,76.542557 
	C768.599243,76.518036 767.412720,76.353294 766.297607,76.565048 
	C763.017273,77.188042 762.220642,75.268761 762.067566,72.636925 
	C761.911316,69.949661 763.252014,68.750336 765.908875,68.637077 
	C770.944275,68.422424 775.963806,69.326881 781.032593,68.425117 
	C784.368103,67.831703 784.377197,70.837097 784.790833,73.055092 
	C785.310059,75.838943 783.525269,76.553741 781.310669,76.595245 
	C777.705383,76.662827 774.097412,76.588715 770.121887,76.542557 
z"/>
<path fill="#000000" opacity="1.000000" stroke="none" 
	d="
M541.494873,102.313538 
	C538.776733,102.328590 536.487732,102.328590 534.312622,102.328590 
	C532.460571,94.759346 532.859131,94.363571 540.106567,94.564354 
	C543.552307,94.659813 547.012207,94.154922 550.462952,94.190147 
	C552.935608,94.215385 556.089478,93.475952 556.245422,97.655106 
	C556.390320,101.537796 554.051636,102.399765 550.835449,102.357117 
	C547.865234,102.317734 544.894531,102.316521 541.494873,102.313538 
z"/>
<path fill="#000000" opacity="1.000000" stroke="none" 
	d="
M545.355469,204.503845 
	C543.143982,203.980652 541.370239,204.406219 539.560364,204.558258 
	C536.927673,204.779388 533.882507,205.871292 533.516846,201.151871 
	C533.170837,196.686096 535.305542,196.273605 538.786987,196.508484 
	C543.063904,196.797043 547.358826,197.151962 551.643860,196.387207 
	C555.875977,195.631882 555.492676,199.140701 555.966492,201.475052 
	C556.594055,204.566757 554.123108,204.378769 552.149536,204.458328 
	C550.017883,204.544281 547.882935,204.551010 545.355469,204.503845 
z"/>
<path fill="#000000" opacity="1.000000" stroke="none" 
	d="
M763.522888,127.809883 
	C761.239136,120.823448 762.222595,119.465416 769.150208,119.830231 
	C772.934204,120.029495 776.633057,120.866608 780.498291,119.828705 
	C784.076843,118.867798 784.428101,121.829987 784.836975,124.351967 
	C785.300354,127.209885 783.325195,127.894371 781.233459,127.939880 
	C775.435913,128.065979 769.633545,127.970413 763.522888,127.809883 
z"/>
<path fill="#000000" opacity="1.000000" stroke="none" 
	d="
M304.497437,200.930679 
	C304.093292,197.725372 305.506836,196.659546 308.190704,196.689850 
	C313.297882,196.747467 318.399780,196.967834 323.509033,196.401260 
	C327.652435,195.941788 326.548279,199.595581 326.978577,201.642593 
	C327.505096,204.147385 325.382538,204.795258 323.480469,204.552414 
	C318.423340,203.906784 313.434235,203.864838 308.393646,204.777664 
	C305.960632,205.218277 304.061737,204.386154 304.497437,200.930679 
z"/>
<path fill="#000000" opacity="1.000000" stroke="none" 
	d="
M877.007507,124.032852 
	C876.979004,120.585228 878.559021,119.565117 881.411011,119.689018 
	C885.202637,119.853714 889.004395,119.863731 892.800598,119.823486 
	C899.231934,119.755325 899.812866,120.383705 898.911316,127.083725 
	C892.324219,128.685303 885.667053,128.215988 878.994629,127.280479 
	C877.284729,127.040756 876.878235,125.968918 877.007507,124.032852 
z"/>
<path fill="#000000" opacity="1.000000" stroke="none" 
	d="
M422.668396,102.203400 
	C420.584900,100.754593 418.343658,99.405533 419.103760,96.660934 
	C419.932770,93.667557 422.839905,94.195641 424.980713,94.071541 
	C429.100403,93.832710 433.249542,93.976326 437.381439,94.113396 
	C440.747375,94.225044 441.205811,96.848381 441.441223,99.406097 
	C441.729370,102.536751 439.355713,102.420387 437.399750,102.246567 
	C433.651245,101.913437 429.748718,103.289352 426.149597,101.263939 
	C424.801666,100.505386 424.081421,102.016151 422.668396,102.203400 
z"/>
<path fill="#000000" opacity="1.000000" stroke="none" 
	d="
M543.654236,69.343323 
	C546.246216,69.866928 548.328308,69.062675 550.427979,68.635979 
	C554.122803,67.885086 555.513123,69.601097 555.939270,73.026085 
	C556.423340,76.916428 553.769104,76.455925 551.488281,76.483902 
	C546.690857,76.542763 541.889587,76.411652 537.095093,76.544586 
	C534.262756,76.623123 533.179932,75.111717 532.971985,72.659538 
	C532.740662,69.931976 534.283630,68.570770 536.842102,68.587738 
	C538.989319,68.601974 541.133728,69.023056 543.654236,69.343323 
z"/>
<path fill="#000000" opacity="1.000000" stroke="none" 
	d="
M768.723145,197.063324 
	C771.979309,196.894501 774.861206,196.404556 777.872253,196.477203 
	C784.566589,196.638702 784.573059,196.440170 784.477173,203.737701 
	C777.344910,205.749939 770.060059,203.333145 762.627258,204.338257 
	C762.360229,201.747574 762.420837,199.521423 763.041321,197.302643 
	C764.854797,196.535675 766.597351,196.284439 768.723145,197.063324 
z"/>
<path fill="#000000" opacity="1.000000" stroke="none" 
	d="
M322.071655,170.782959 
	C326.846252,170.234360 326.984802,173.631760 327.076691,176.281769 
	C327.197906,179.777771 324.283905,179.237762 321.966156,179.215164 
	C317.479370,179.171417 312.990906,179.080139 308.505890,179.161591 
	C306.030365,179.206528 303.971588,178.950272 304.554657,175.746552 
	C305.066040,172.936661 306.128265,170.657593 309.787537,171.323868 
	C313.748993,172.045135 317.721619,171.916336 322.071655,170.782959 
z"/>
<path fill="#000000" opacity="1.000000" stroke="none" 
	d="
M211.717300,152.628616 
	C205.229126,153.892578 198.946045,153.076187 192.684448,153.322464 
	C190.586975,153.404953 189.853592,152.096207 189.977066,150.052200 
	C190.101501,147.992111 189.984528,145.837036 192.842331,145.746887 
	C198.313904,145.574295 203.816711,145.118637 209.253586,145.512192 
	C213.792465,145.840729 212.895325,149.301086 211.717300,152.628616 
z"/>
<path fill="#000000" opacity="1.000000" stroke="none" 
	d="
M74.766144,97.226532 
	C75.534454,94.936066 76.764664,94.367371 78.989029,94.442429 
	C83.877907,94.607399 88.786179,95.223007 93.694710,93.978401 
	C97.539886,93.003410 97.252808,96.429306 97.849564,98.656006 
	C98.594635,101.436127 96.867546,102.408333 94.589798,102.214325 
	C89.472206,101.778435 84.382584,102.145599 79.280693,102.313499 
	C76.051720,102.419754 75.012260,100.351578 74.766144,97.226532 
z"/>
<path fill="#000000" opacity="1.000000" stroke="none" 
	d="
M891.801514,94.874481 
	C895.407349,93.492195 898.383545,92.852234 899.154175,97.693924 
	C899.608032,100.545395 898.778503,102.239456 895.629150,102.237648 
	C890.482300,102.234695 885.334656,102.196205 880.188965,102.279068 
	C877.023804,102.330032 876.961731,100.262093 876.792908,97.957176 
	C876.593140,95.229225 878.229980,94.267105 880.386353,94.288002 
	C884.083923,94.323845 887.777832,94.738914 891.801514,94.874481 
z"/>
<path fill="#000000" opacity="1.000000" stroke="none" 
	d="
M536.113037,127.567902 
	C533.574341,126.594543 532.690369,124.995369 533.234680,122.715561 
	C533.818359,120.270714 535.743347,120.111633 537.854370,119.891464 
	C542.615417,119.394905 547.336914,120.606125 552.134766,119.812454 
	C555.970459,119.177933 555.597046,122.752541 555.850159,124.945480 
	C556.180298,127.806511 553.798584,128.011246 551.754395,127.804314 
	C546.647766,127.287384 541.550354,127.524956 536.113037,127.567902 
z"/>
<path fill="#000000" opacity="1.000000" stroke="none" 
	d="
M544.193665,153.274017 
	C540.606689,153.295074 537.482300,153.295074 534.452820,153.295074 
	C532.516541,146.680710 533.316345,145.681351 539.631287,145.701782 
	C543.258789,145.713531 546.945374,145.668121 550.500488,145.047562 
	C554.544678,144.341614 555.319092,146.523727 555.806213,149.648453 
	C556.453979,153.804642 553.532776,153.291107 551.113892,153.361206 
	C548.964233,153.423492 546.809021,153.296448 544.193665,153.274017 
z"/>
<path fill="#000000" opacity="1.000000" stroke="none" 
	d="
M765.089233,153.318878 
	C761.449158,152.936966 762.513306,150.628632 762.658081,148.767349 
	C762.808594,146.832245 763.831360,145.839615 765.834290,145.677765 
	C770.933044,145.265808 776.035217,145.855881 781.168823,145.117126 
	C785.203979,144.536453 784.477356,148.516098 784.910767,150.830307 
	C785.429932,153.602509 783.160156,153.475433 781.304382,153.464111 
	C776.033936,153.431976 770.763550,153.381409 765.089233,153.318878 
z"/>
<path fill="#000000" opacity="1.000000" stroke="none" 
	d="
M417.991882,202.010269 
	C419.729584,198.914688 420.956299,196.504349 425.981781,197.580353 
	C428.589722,198.138718 432.883514,197.343475 436.310211,196.416092 
	C440.676270,195.234482 441.344513,198.259705 441.687408,201.418884 
	C442.123383,205.435379 439.043091,204.413620 436.971985,204.441284 
	C431.884735,204.509323 426.792480,204.272812 421.707367,204.387741 
	C420.032196,204.425598 418.745422,204.424759 418.115540,202.275986 
	C418.010864,201.977554 417.991882,202.010269 417.991882,202.010269 
z"/>
<path fill="#000000" opacity="1.000000" stroke="none" 
	d="
M899.394226,149.922424 
	C899.620483,152.707993 898.395935,153.444916 896.117676,153.394852 
	C890.973022,153.281784 885.824707,153.322800 880.677856,153.329926 
	C878.436340,153.333038 876.687500,152.932358 877.003601,150.033981 
	C877.250732,147.768356 877.491455,145.698837 880.533142,145.641266 
	C885.499573,145.547256 890.464661,145.815781 895.429626,145.022888 
	C898.640686,144.510101 899.109131,147.110519 899.394226,149.922424 
z"/>
<path fill="#000000" opacity="1.000000" stroke="none" 
	d="
M327.097778,124.498718 
	C327.384491,127.146362 325.921417,127.850739 324.091858,127.871017 
	C317.840912,127.940323 311.588684,127.897568 305.498505,127.897568 
	C304.270081,121.643379 305.200775,120.917679 310.708038,120.355919 
	C314.349426,119.984489 317.990845,120.045326 321.596100,119.651962 
	C325.213501,119.257256 326.928284,120.568153 327.097778,124.498718 
z"/>
<path fill="#000000" opacity="1.000000" stroke="none" 
	d="
M716.593384,229.040497 
	C705.410767,231.161392 694.850342,230.017365 684.406189,226.588120 
	C696.241821,224.084167 708.089661,224.210968 719.966248,225.505295 
	C720.100891,228.525986 718.284241,228.444626 716.593384,229.040497 
z"/>
<path fill="#000000" opacity="1.000000" stroke="none" 
	d="
M305.140411,147.692917 
	C306.206299,146.311783 307.224548,145.530487 308.676849,145.517563 
	C313.458679,145.475037 318.241241,145.345734 323.021790,145.401505 
	C325.254242,145.427551 327.544556,145.881775 327.345154,148.895386 
	C327.181671,151.366394 326.307373,153.412598 323.222778,153.393448 
	C317.318756,153.356781 311.414398,153.382797 305.804199,153.382797 
	C304.500824,151.298325 305.011169,149.641388 305.140411,147.692917 
z"/>
<path fill="#000000" opacity="1.000000" stroke="none" 
	d="
M492.000732,271.274292 
	C487.846100,271.241730 484.187897,271.238159 480.531189,271.161896 
	C479.083466,271.131653 477.913635,270.640594 477.871063,268.878052 
	C477.831665,267.247681 478.739410,266.453674 480.216156,266.166534 
	C483.266357,265.573456 486.160004,265.088959 489.454865,265.655487 
	C494.136383,266.460571 499.042206,265.987061 503.852386,266.006470 
	C505.900177,266.014740 507.691833,266.505219 507.635559,268.894897 
	C507.583527,271.105042 505.728851,271.315063 503.977234,271.313843 
	C500.150726,271.311218 496.324249,271.288635 492.000732,271.274292 
z"/>
<path fill="#000000" opacity="1.000000" stroke="none" 
	d="
M467.325134,229.835480 
	C461.351074,228.778854 455.553284,229.051086 450.357361,225.995361 
	C461.881592,224.910797 473.336548,223.801178 484.878937,226.639297 
	C479.550446,229.818588 473.717590,230.102417 467.325134,229.835480 
z"/>
<path fill="#000000" opacity="1.000000" stroke="none" 
	d="
M569.510254,447.437439 
	C564.518433,447.456055 559.877075,447.494720 555.235779,447.504517 
	C552.593933,447.510101 550.594177,446.753052 550.774048,443.546906 
	C550.946716,440.469330 553.074402,440.406464 555.389954,440.430847 
	C560.495361,440.484650 565.601685,440.447540 571.296753,440.447540 
	C570.377014,443.236572 574.512268,445.918976 569.510254,447.437439 
z"/>
<path fill="#000000" opacity="1.000000" stroke="none" 
	d="
M507.944702,443.910126 
	C508.288910,440.437744 510.691650,440.648224 512.815369,440.596649 
	C515.964172,440.520203 519.160645,440.928741 522.257568,440.524384 
	C527.352600,439.859100 529.268921,441.934204 528.758179,447.050812 
	C523.493958,447.657623 518.259399,448.663574 513.012756,447.439301 
	C511.100067,446.992950 508.481201,447.188141 507.944702,443.910126 
z"/>
<path fill="#000000" opacity="1.000000" stroke="none" 
	d="
M473.662842,447.318665 
	C472.219940,446.856079 471.460602,445.921021 469.781036,446.613953 
	C467.914368,447.384033 466.221252,445.602631 465.879028,443.904755 
	C465.433777,441.695892 467.053253,440.763672 469.241608,440.673767 
	C473.035583,440.517883 476.789520,440.167206 480.628479,440.458588 
	C486.447937,440.900391 486.604279,440.822418 485.686279,446.963745 
	C481.839874,448.041809 477.891937,447.364288 473.662842,447.318665 
z"/>
<path fill="#000000" opacity="1.000000" stroke="none" 
	d="
M344.424683,25.256086 
	C348.020874,24.717474 350.564240,26.208305 352.987915,28.008911 
	C354.167816,28.885479 355.633057,29.711596 355.194885,31.506506 
	C354.807465,33.093433 353.395233,33.805340 351.994781,34.353207 
	C349.587433,35.294960 347.144867,35.152828 344.724091,34.376789 
	C342.424011,33.639423 340.372437,32.576443 340.220123,29.784073 
	C340.076324,27.147137 341.824249,26.008966 344.424683,25.256086 
z"/>
<path fill="#000000" opacity="1.000000" stroke="none" 
	d="
M124.918365,224.779724 
	C128.397644,225.148483 131.724350,224.035309 134.320129,226.564163 
	C130.759659,231.863525 119.897110,231.889297 110.212173,226.505630 
	C114.983589,224.021820 119.818703,225.136887 124.918365,224.779724 
z"/>
<path fill="#000000" opacity="1.000000" stroke="none" 
	d="
M68.639297,154.916351 
	C65.152832,155.019669 61.925949,155.226624 61.818104,150.824570 
	C61.755024,148.249680 61.165936,145.001984 65.061417,144.790634 
	C67.758522,144.644272 71.592438,142.923706 72.659172,147.088043 
	C73.452522,150.185165 73.784882,153.933441 68.639297,154.916351 
z"/>
<path fill="#000000" opacity="1.000000" stroke="none" 
	d="
M176.615646,70.962646 
	C178.403198,65.680511 182.515182,67.259743 185.393097,68.216789 
	C188.660690,69.303406 188.240601,72.863190 187.216095,75.549911 
	C185.715836,79.484222 182.010086,78.873520 179.104721,78.156578 
	C175.622726,77.297356 176.941528,73.842567 176.615646,70.962646 
z"/>
<path fill="#000000" opacity="1.000000" stroke="none" 
	d="
M64.143181,180.151001 
	C60.153301,174.957092 61.207497,170.572235 66.178108,169.971695 
	C69.943344,169.516769 72.637169,170.338913 72.954041,174.933594 
	C73.269058,179.501312 71.173584,180.908600 67.029106,180.380386 
	C66.212570,180.276306 65.379753,180.300034 64.143181,180.151001 
z"/>
<path fill="#000000" opacity="1.000000" stroke="none" 
	d="
M412.861145,103.510483 
	C409.949646,102.914490 406.321136,104.618965 405.405609,100.625717 
	C404.870361,98.291069 404.201752,95.082291 407.273804,94.188980 
	C409.881561,93.430672 413.760071,92.021858 415.384277,95.127159 
	C416.740692,97.720528 417.599487,101.650726 412.861145,103.510483 
z"/>
<path fill="#000000" opacity="1.000000" stroke="none" 
	d="
M512.108643,428.472595 
	C507.529022,428.518646 503.290253,428.518646 498.965973,428.518646 
	C498.965973,426.052124 498.965973,424.169006 498.965973,421.773529 
	C502.793030,421.773529 506.380951,421.747467 509.968170,421.786652 
	C511.362488,421.801880 513.063354,421.231415 513.560974,423.382385 
	C513.993896,425.254028 515.180664,427.263214 512.108643,428.472595 
z"/>
<path fill="#000000" opacity="1.000000" stroke="none" 
	d="
M529.122437,153.970245 
	C525.351501,154.802917 521.256287,156.992798 519.834290,151.611969 
	C519.290466,149.554306 518.723083,146.578369 521.246155,145.279388 
	C523.609375,144.062714 526.815491,143.718704 528.861938,145.432007 
	C531.435608,147.586761 530.631042,150.823120 529.122437,153.970245 
z"/>
<path fill="#000000" opacity="1.000000" stroke="none" 
	d="
M905.761597,421.812500 
	C908.975708,421.820465 911.782532,421.789185 914.589050,421.807739 
	C917.082764,421.824219 918.204590,423.250305 918.080261,425.605133 
	C917.959473,427.891510 916.577454,428.569061 914.361450,428.467682 
	C911.071045,428.317108 907.767029,428.480896 904.468933,428.465607 
	C903.997253,428.463409 903.526794,428.207642 902.573608,427.927551 
	C903.920166,425.981079 900.295471,422.295227 905.761597,421.812500 
z"/>
<path fill="#000000" opacity="1.000000" stroke="none" 
	d="
M292.633087,154.423065 
	C288.881104,148.415482 290.399994,144.826859 296.161591,144.599686 
	C299.642700,144.462433 301.446442,145.501923 301.501678,149.305450 
	C301.554749,152.957550 300.441742,155.133881 296.472168,154.968506 
	C295.317017,154.920364 294.167694,154.733948 292.633087,154.423065 
z"/>
<path fill="#000000" opacity="1.000000" stroke="none" 
	d="
M689.801636,428.472961 
	C685.856567,428.484344 682.254333,428.484344 678.395142,428.484344 
	C678.395142,426.192535 678.395142,424.461975 678.395142,422.414703 
	C683.098938,421.048553 687.817932,422.005249 692.793396,421.745483 
	C693.288269,424.785583 696.158142,428.259796 689.801636,428.472961 
z"/>
<path fill="#000000" opacity="1.000000" stroke="none" 
	d="
M643.607788,421.704834 
	C646.503601,421.692932 648.788208,422.048248 648.808594,425.251953 
	C648.830383,428.683044 646.271057,428.519379 643.910706,428.521881 
	C640.479736,428.525482 637.048767,428.522797 633.234314,428.522797 
	C633.408203,426.080261 633.541321,424.209839 633.723083,421.656738 
	C637.024048,421.656738 640.116882,421.656738 643.607788,421.704834 
z"/>
<path fill="#000000" opacity="1.000000" stroke="none" 
	d="
M519.963379,124.859009 
	C519.489136,120.641212 521.173279,118.881905 524.981445,118.836273 
	C527.810486,118.802383 530.032410,119.453056 530.189026,122.715820 
	C530.314392,125.327812 530.737671,128.534286 527.127136,129.066635 
	C524.133728,129.507996 520.484863,130.069305 519.963379,124.859009 
z"/>
<path fill="#000000" opacity="1.000000" stroke="none" 
	d="
M187.207458,148.144226 
	C187.181091,151.179153 187.722992,154.228394 183.960693,154.671265 
	C181.295761,154.984924 177.876526,155.942902 176.959656,152.201752 
	C176.392914,149.889267 175.400497,146.259964 178.511124,145.232040 
	C181.404282,144.276001 185.473923,142.836029 187.207458,148.144226 
z"/>
<path fill="#000000" opacity="1.000000" stroke="none" 
	d="
M454.207092,427.588928 
	C454.139587,425.673218 454.258179,424.057434 454.388672,422.279266 
	C458.625763,421.300049 462.739563,421.811340 466.817871,421.923462 
	C469.025574,421.984131 469.309204,423.735535 469.280487,425.511536 
	C469.252777,427.224579 468.560699,428.593079 466.679016,428.404236 
	C462.587891,427.993652 458.431946,429.289307 454.207092,427.588928 
z"/>
<path fill="#000000" opacity="1.000000" stroke="none" 
	d="
M559.201660,425.680115 
	C558.886230,427.289032 558.126404,428.577118 556.930969,428.272827 
	C552.629761,427.178040 548.309265,429.179413 543.887939,428.096771 
	C543.208801,426.128143 543.550415,424.260773 543.788208,422.229156 
	C548.281311,420.982605 552.692200,422.687012 557.079651,422.014252 
	C558.816650,421.747925 559.179993,423.739838 559.201660,425.680115 
z"/>
<path fill="#000000" opacity="1.000000" stroke="none" 
	d="
M296.827087,103.363632 
	C294.364960,103.098557 291.635651,104.022392 291.026855,101.071304 
	C290.569977,98.856812 290.090302,96.024315 292.102020,94.519844 
	C294.289520,92.883934 297.291931,93.306694 299.779846,94.151054 
	C301.861267,94.857475 301.521790,97.061928 301.402954,98.914146 
	C301.233795,101.551216 300.344727,103.452339 296.827087,103.363632 
z"/>
<path fill="#000000" opacity="1.000000" stroke="none" 
	d="
M825.413513,428.354156 
	C821.172546,427.043274 817.220825,429.242523 813.177795,428.186157 
	C812.219238,426.203064 813.722351,424.340973 813.124084,422.355835 
	C817.393982,420.912659 821.520386,422.748047 825.562500,421.933228 
	C827.078308,421.627686 828.054443,422.766876 828.187561,424.299011 
	C828.350891,426.180023 828.413513,428.102905 825.413513,428.354156 
z"/>
<path fill="#000000" opacity="1.000000" stroke="none" 
	d="
M603.783813,424.943420 
	C604.231262,427.153748 603.260498,428.578857 601.577576,428.203491 
	C597.365540,427.264038 593.199402,429.112274 589.056580,428.259949 
	C587.738953,426.229126 589.828674,424.334503 588.234924,422.439270 
	C593.080627,421.015442 597.365540,422.647064 601.557800,421.844818 
	C603.473755,421.478210 603.233582,423.444977 603.783813,424.943420 
z"/>
<path fill="#000000" opacity="1.000000" stroke="none" 
	d="
M723.285889,424.239624 
	C723.165710,422.343353 724.071899,421.800232 725.391541,421.809814 
	C728.840210,421.834808 732.288574,421.945557 735.737122,421.952148 
	C738.116699,421.956696 738.306885,423.573151 738.318115,425.308960 
	C738.330139,427.172943 737.720703,428.544891 735.503967,428.501282 
	C732.212769,428.436584 728.920715,428.350006 725.629639,428.369568 
	C722.689453,428.387115 723.181152,426.439331 723.285889,424.239624 
z"/>
<path fill="#000000" opacity="1.000000" stroke="none" 
	d="
M782.796631,423.248657 
	C783.750000,426.790405 782.878357,428.477997 779.344238,428.350983 
	C775.726562,428.220978 772.100525,428.322174 768.243164,428.322174 
	C768.243164,426.187195 768.243164,424.446808 768.243164,422.094971 
	C773.151001,421.937103 777.921082,420.724274 782.796631,423.248657 
z"/>
<path fill="#000000" opacity="1.000000" stroke="none" 
	d="
M857.931152,425.802551 
	C857.745605,422.843689 858.565063,421.429718 861.595398,421.803864 
	C864.520386,422.165039 867.467712,422.372986 870.441284,421.854614 
	C872.521790,421.491974 872.727173,423.236084 873.036438,424.718170 
	C873.374634,426.339203 873.251282,428.086914 871.352478,428.191284 
	C867.108521,428.424500 862.838562,428.320679 858.586426,428.161133 
	C857.660034,428.126373 857.651428,426.968750 857.931152,425.802551 
z"/>
<path fill="#000000" opacity="1.000000" stroke="none" 
	d="
M379.103058,423.289276 
	C379.936920,426.935089 379.067261,428.768799 375.252594,428.376251 
	C372.969543,428.141296 370.643921,428.253540 368.339722,428.307281 
	C365.763062,428.367340 364.817352,426.813904 364.664093,424.610992 
	C364.502930,422.294373 366.304993,421.821808 367.971924,421.918396 
	C371.642426,422.131042 375.494995,420.575958 379.103058,423.289276 
z"/>
<path fill="#000000" opacity="1.000000" stroke="none" 
	d="
M286.513519,421.848022 
	C289.548370,422.169189 290.284027,423.839783 289.856781,426.117493 
	C289.468781,428.186188 287.928345,428.497833 286.049866,428.376160 
	C283.398315,428.204407 280.733459,428.221924 278.073914,428.193329 
	C275.496643,428.165619 275.204865,426.219940 275.071228,424.401733 
	C274.923462,422.391113 276.533356,421.954987 278.093231,421.893311 
	C280.750305,421.788269 283.413757,421.843994 286.513519,421.848022 
z"/>
<path fill="#000000" opacity="1.000000" stroke="none" 
	d="
M414.968140,428.397156 
	C411.904602,428.469208 409.518402,428.071960 409.548065,424.605774 
	C409.578339,421.065643 412.652863,422.173279 414.370697,421.910339 
	C417.243744,421.470612 420.233002,421.790222 423.032410,421.790222 
	C425.488312,427.752655 425.155762,428.286652 419.295532,428.343384 
	C417.980408,428.356110 416.665314,428.365967 414.968140,428.397156 
z"/>
<path fill="#000000" opacity="1.000000" stroke="none" 
	d="
M333.688690,422.130493 
	C335.495789,428.393219 335.495728,428.402405 329.148743,428.354462 
	C326.993683,428.338196 324.836487,428.312897 322.684998,428.200409 
	C320.383667,428.080078 320.328857,426.083679 320.052094,424.558960 
	C319.743958,422.861176 321.120148,422.395111 322.507782,422.066040 
	C326.131592,421.206787 329.766724,421.941406 333.688690,422.130493 
z"/>
<path fill="#000000" opacity="1.000000" stroke="none" 
	d="
M197.689056,421.911926 
	C200.096313,422.955170 200.552505,424.603912 199.903534,426.535126 
	C199.180069,428.688019 197.415619,428.057068 195.759323,427.996338 
	C193.973312,427.930878 192.174530,428.367920 190.377808,428.402374 
	C187.996613,428.448029 185.679443,428.364288 185.519547,424.997253 
	C185.336655,421.146729 188.362030,421.959839 190.360886,421.718414 
	C192.626938,421.444733 194.965164,421.768494 197.689056,421.911926 
z"/>
<path fill="#000000" opacity="1.000000" stroke="none" 
	d="
M290.598755,176.028809 
	C290.324463,171.702240 292.051483,169.880463 296.112946,169.859558 
	C299.825958,169.840439 301.734650,171.369064 301.812592,175.068283 
	C301.861938,177.408447 302.039215,180.420715 298.839355,180.277878 
	C295.820709,180.143112 290.877075,182.790207 290.598755,176.028809 
M296.316010,177.515137 
	C298.274353,176.554413 298.286621,175.011932 297.272186,173.466293 
	C296.638275,172.500443 295.403656,172.530411 294.792908,173.489868 
	C293.849152,174.972427 293.544189,176.566589 296.316010,177.515137 
z"/>
<path fill="#000000" opacity="1.000000" stroke="none" 
	d="
M62.844528,68.769501 
	C71.013260,66.382774 73.705849,68.248360 72.603546,74.804398 
	C72.130005,77.620773 70.882698,78.894386 67.968445,78.575249 
	C65.141602,78.265694 62.081814,78.410919 61.864399,74.411598 
	C61.766846,72.617065 61.517090,70.767555 62.844528,68.769501 
M67.320915,75.163284 
	C69.404678,74.636909 69.996132,73.385094 68.826164,71.589302 
	C68.215080,70.651344 67.028687,70.592949 66.235947,71.280960 
	C64.639420,72.666565 64.738434,74.038101 67.320915,75.163284 
z"/>
<path fill="#000000" opacity="1.000000" stroke="none" 
	d="
M64.457100,205.917252 
	C60.572174,203.358627 61.086521,199.862442 62.644032,197.030701 
	C64.307068,194.007126 67.801384,195.432098 70.328262,195.952637 
	C73.137993,196.531433 72.965775,199.347183 72.848572,201.673706 
	C72.732552,203.976929 72.032875,205.981949 69.297691,206.184723 
	C67.833588,206.293274 66.347275,206.102264 64.457100,205.917252 
M69.222046,200.558319 
	C68.788002,198.624680 67.659676,198.093170 66.102165,199.307541 
	C64.904121,200.241623 64.756752,201.671249 66.028923,202.606796 
	C67.688194,203.827042 68.685539,202.858398 69.222046,200.558319 
z"/>
<path fill="#000000" opacity="1.000000" stroke="none" 
	d="
M145.889145,421.793304 
	C148.109970,421.791718 149.936295,421.899445 151.745056,421.767120 
	C154.555023,421.561584 155.085892,423.367096 155.183289,425.505219 
	C155.283463,427.704254 153.825302,428.295746 151.952682,428.302490 
	C149.637268,428.310852 147.320419,428.251770 145.006653,428.313995 
	C141.276398,428.414276 139.959595,426.652710 140.736526,423.118164 
	C142.153442,421.854126 143.957535,422.314240 145.889145,421.793304 
z"/>
<path fill="#000000" opacity="1.000000" stroke="none" 
	d="
M235.275497,421.613281 
	C238.303192,421.598816 240.935074,421.598816 243.426651,421.598816 
	C246.055283,427.687073 246.055359,427.636749 239.939575,427.627075 
	C238.488281,427.624786 237.041534,428.245758 235.583344,428.293304 
	C233.297211,428.367828 230.857193,428.614258 230.392487,425.263245 
	C229.856750,421.399994 232.848785,422.169342 235.275497,421.613281 
z"/>
<path fill="#000000" opacity="1.000000" stroke="none" 
	d="
M410.908875,169.941589 
	C416.013977,169.741577 416.792816,172.991470 416.761078,176.503967 
	C416.732819,179.629044 414.644867,180.688889 411.681641,180.417084 
	C408.994843,180.170624 405.773712,181.070908 405.634064,176.608490 
	C405.521393,173.008698 405.573639,169.780029 410.908875,169.941589 
M413.156860,175.556488 
	C412.955536,173.602280 412.085876,172.296158 409.993317,173.261444 
	C408.841064,173.792984 408.766449,175.298065 409.343597,176.307205 
	C410.529663,178.381027 411.860992,177.991409 413.156860,175.556488 
z"/>
<path fill="#000000" opacity="1.000000" stroke="none" 
	d="
M186.417969,179.327179 
	C178.983093,181.418350 176.945358,180.489441 176.639999,175.631958 
	C176.382660,171.538483 178.119034,169.890106 182.106339,169.888565 
	C186.179199,169.886993 187.935303,171.759689 187.466522,175.737106 
	C187.334351,176.858505 186.957336,177.951065 186.417969,179.327179 
M182.997574,173.646072 
	C181.022217,172.918900 180.218933,173.855576 180.242065,175.707077 
	C180.255768,176.804382 180.909744,177.682663 182.070801,177.499680 
	C184.171143,177.168671 183.979034,175.678314 182.997574,173.646072 
z"/>
<path fill="#000000" opacity="1.000000" stroke="none" 
	d="
M755.724060,180.318863 
	C751.942383,180.372070 748.393494,180.918900 748.627136,175.643570 
	C748.755432,172.746826 748.982178,170.252563 752.592163,170.061249 
	C755.192078,169.923492 758.441040,169.316513 759.161255,172.729645 
	C759.751709,175.527588 760.741272,179.218506 755.724060,180.318863 
M754.987793,173.657257 
	C753.040588,172.948868 752.221802,173.847076 752.247375,175.698425 
	C752.262451,176.786774 752.900635,177.664429 754.055969,177.476639 
	C756.108765,177.142975 755.990479,175.687729 754.987793,173.657257 
z"/>
<path fill="#000000" opacity="1.000000" stroke="none" 
	d="
M416.354370,150.249847 
	C416.268921,155.943619 412.269714,154.969589 409.144226,154.858612 
	C405.246979,154.720230 405.826263,151.599731 405.653259,148.954666 
	C405.406891,145.187958 407.564148,144.794800 410.619659,144.561035 
	C414.762146,144.244080 416.535614,145.832764 416.354370,150.249847 
M411.896484,151.724533 
	C413.133606,150.278152 413.607635,148.713165 411.671844,147.623795 
	C410.486053,146.956467 409.330383,147.880920 408.923248,149.017502 
	C408.168030,151.125717 409.107178,152.150696 411.896484,151.724533 
z"/>
<path fill="#000000" opacity="1.000000" stroke="none" 
	d="
M754.914551,144.661621 
	C760.378784,144.867508 759.490417,148.576111 759.198059,151.553833 
	C758.829407,155.309387 755.713562,154.885468 753.096375,154.863724 
	C749.343933,154.832565 748.656250,152.541107 748.618835,149.244095 
	C748.568970,144.840881 751.174438,144.476547 754.914551,144.661621 
M751.881287,149.462708 
	C751.958496,151.442749 752.713196,152.798492 754.855286,151.675919 
	C756.156311,150.994095 756.291016,149.318390 755.485107,148.253830 
	C754.215515,146.576859 752.999695,147.486588 751.881287,149.462708 
z"/>
<path fill="#000000" opacity="1.000000" stroke="none" 
	d="
M301.624817,200.334991 
	C302.018188,205.670670 299.074463,206.449020 295.014465,206.186508 
	C290.699036,205.907501 290.633179,203.021027 290.732544,199.858643 
	C290.820587,197.057358 292.070801,195.607071 295.011017,195.644547 
	C298.194794,195.685120 301.644714,195.135941 301.624817,200.334991 
M294.466705,202.610123 
	C296.669403,204.255386 297.778534,203.015182 298.400848,200.997406 
	C298.721802,199.956802 298.232849,198.832443 297.134613,198.663315 
	C294.608429,198.274246 294.010315,199.852829 294.466705,202.610123 
z"/>
<path fill="#000000" opacity="1.000000" stroke="none" 
	d="
M418.019348,201.959991 
	C416.581757,203.253769 415.904022,205.643555 413.728241,205.855423 
	C410.931519,206.127731 407.190826,207.525436 406.035522,203.672195 
	C405.288391,201.180374 404.041992,197.146973 408.011444,196.014114 
	C411.368958,195.055893 415.487976,194.519730 417.003693,199.476715 
	C417.196991,200.108994 417.464142,200.718719 417.844482,201.674576 
	C417.991882,202.010269 418.010864,201.977554 418.019348,201.959991 
M410.441467,203.488937 
	C412.993500,203.110657 413.768250,201.571915 412.784821,199.349716 
	C412.255066,198.152588 410.808533,198.022415 409.827423,198.720184 
	C407.832947,200.138641 407.621826,201.800446 410.441467,203.488937 
z"/>
<path fill="#000000" opacity="1.000000" stroke="none" 
	d="
M290.742676,124.905937 
	C290.729675,122.271973 290.571411,119.826096 293.243286,119.115318 
	C295.624542,118.481842 298.353943,118.003525 300.310425,120.023674 
	C302.106018,121.877708 301.459045,124.443687 301.079742,126.684868 
	C300.643158,129.264465 298.437744,129.233414 296.389984,129.301849 
	C293.494843,129.398575 290.962494,129.059067 290.742676,124.905937 
M296.070343,126.345039 
	C297.708923,125.781281 298.592407,124.688492 297.792053,123.016136 
	C297.326660,122.043701 296.095123,121.836792 295.253723,122.498077 
	C293.662201,123.748863 293.496307,125.144730 296.070343,126.345039 
z"/>
<path fill="#000000" opacity="1.000000" stroke="none" 
	d="
M412.635315,67.680367 
	C416.665619,69.488579 417.754883,73.016129 415.798187,76.523125 
	C414.769440,78.366951 409.136200,79.481667 407.288574,77.904671 
	C404.398743,75.438148 405.239044,72.042465 406.365692,69.241928 
	C407.309906,66.894890 410.149536,67.933647 412.635315,67.680367 
M409.806305,75.368874 
	C412.441406,75.646271 413.483795,74.191742 413.188202,71.850990 
	C413.017059,70.495941 411.639893,70.090431 410.471832,70.500305 
	C408.011780,71.363533 407.676056,72.996109 409.806305,75.368874 
z"/>
<path fill="#000000" opacity="1.000000" stroke="none" 
	d="
M66.073212,103.358635 
	C60.893974,103.184814 61.601063,99.703667 61.992668,96.877632 
	C62.614895,92.387283 66.360374,93.838127 69.080238,93.745171 
	C72.552216,93.626503 72.892372,96.247345 72.963181,98.848701 
	C73.054962,102.220154 71.277618,103.634140 68.006607,103.382408 
	C67.514694,103.344551 67.017899,103.370216 66.073212,103.358635 
M69.055122,99.157265 
	C69.251785,97.454117 68.759682,96.125725 66.796211,96.427795 
	C65.144661,96.681892 64.883118,98.177338 65.427849,99.433662 
	C66.223549,101.268814 67.527321,101.099731 69.055122,99.157265 
z"/>
<path fill="#000000" opacity="1.000000" stroke="none" 
	d="
M182.839172,129.288696 
	C177.534500,129.932144 176.398712,127.387489 176.652557,123.084190 
	C176.915543,118.625694 179.847382,118.700661 182.957733,118.800713 
	C185.757584,118.890793 187.253311,120.395851 187.282425,123.183685 
	C187.312469,126.061371 187.433640,129.091370 182.839172,129.288696 
M181.707138,122.293320 
	C179.657669,122.797142 178.910156,123.968964 180.166229,125.814064 
	C180.774979,126.708282 181.997269,126.842125 182.795090,126.190109 
	C184.453690,124.834641 184.263443,123.455978 181.707138,122.293320 
z"/>
<path fill="#000000" opacity="1.000000" stroke="none" 
	d="
M642.558228,129.097458 
	C639.441345,128.882355 635.633972,130.806168 634.864014,126.414551 
	C634.449158,124.048805 633.467468,120.756676 636.615356,119.353661 
	C638.979858,118.299789 642.268738,117.668724 643.925415,120.106415 
	C645.814636,122.886238 646.067688,126.320145 642.558228,129.097458 
M637.768677,122.930199 
	C636.978760,124.783348 637.227173,126.230133 639.545776,126.262711 
	C641.140442,126.285103 642.623596,125.322723 642.216614,123.590240 
	C641.698242,121.383354 639.862671,121.941017 637.768677,122.930199 
z"/>
<path fill="#000000" opacity="1.000000" stroke="none" 
	d="
M865.512268,119.164619 
	C868.701782,119.025711 872.187744,117.451599 873.442200,121.491127 
	C874.210449,123.965424 874.825684,127.113319 872.106628,128.672607 
	C869.880676,129.949127 866.409363,130.363266 864.724243,128.288025 
	C862.620972,125.697784 862.643860,122.219437 865.512268,119.164619 
M868.606567,121.526833 
	C866.064575,121.879662 865.162659,123.395439 866.255554,125.611061 
	C866.972961,127.065369 868.582703,126.745491 869.635742,125.879341 
	C871.410156,124.419891 871.341553,122.887039 868.606567,121.526833 
z"/>
<path fill="#000000" opacity="1.000000" stroke="none" 
	d="
M527.430176,67.707275 
	C532.334595,70.028503 530.864502,73.940903 529.387146,76.707558 
	C527.933105,79.430557 524.213135,79.145432 521.745728,77.889961 
	C518.403198,76.189232 519.235168,72.539726 520.073853,69.856186 
	C521.119812,66.509460 524.517029,67.920692 527.430176,67.707275 
M526.585144,75.083633 
	C528.207764,73.315315 527.964905,71.736122 525.821228,70.784729 
	C524.123535,70.031227 522.809509,70.943291 522.572571,72.691376 
	C522.222595,75.273361 523.844177,75.758400 526.585144,75.083633 
z"/>
<path fill="#000000" opacity="1.000000" stroke="none" 
	d="
M528.531372,180.106430 
	C520.286865,180.527649 519.558228,179.918503 519.640137,174.515701 
	C519.701233,170.491379 522.211243,170.010437 525.231995,169.938461 
	C528.282349,169.865784 530.470642,170.881378 530.337646,174.423767 
	C530.265076,176.357056 530.728394,178.458572 528.531372,180.106430 
M522.872009,176.684769 
	C524.529541,178.284927 526.125793,178.362030 527.025757,176.067871 
	C527.622070,174.547760 526.958008,172.952087 525.236145,172.666306 
	C522.600342,172.228836 522.380981,174.078369 522.872009,176.684769 
z"/>
<path fill="#000000" opacity="1.000000" stroke="none" 
	d="
M637.366394,154.631134 
	C632.975952,152.492722 634.195312,148.721054 635.290039,146.265732 
	C636.641174,143.235184 640.384644,144.436111 642.965027,144.915527 
	C645.390564,145.366150 644.971680,148.010040 644.983887,149.977325 
	C644.996765,152.046509 644.856506,154.163452 642.247314,154.598267 
	C640.792480,154.840744 639.273926,154.701584 637.366394,154.631134 
M638.224365,151.933212 
	C640.575256,152.791428 641.711731,151.723587 641.843872,149.466736 
	C641.922302,148.127121 641.072083,147.140686 639.700500,147.380402 
	C637.321533,147.796188 636.982788,149.427399 638.224365,151.933212 
z"/>
<path fill="#000000" opacity="1.000000" stroke="none" 
	d="
M412.709229,118.845535 
	C417.469055,120.652153 416.834106,124.295738 415.588470,127.279388 
	C414.192139,130.623947 410.569641,129.607544 408.043243,128.985168 
	C404.436920,128.096756 405.635468,124.637215 405.802582,122.205856 
	C406.093109,117.979172 409.547455,118.884857 412.709229,118.845535 
M412.066010,121.653305 
	C409.487061,121.487015 408.469208,122.917145 408.778259,125.237206 
	C408.923706,126.329140 410.142456,126.721405 411.122101,126.376717 
	C413.391754,125.578148 414.256500,124.142052 412.066010,121.653305 
z"/>
<path fill="#000000" opacity="1.000000" stroke="none" 
	d="
M759.005676,121.416626 
	C759.083557,124.679291 760.381165,128.323959 756.117493,129.092590 
	C753.717529,129.525238 750.344849,130.507950 749.116028,127.251411 
	C748.233154,124.911713 747.570190,121.554131 750.042603,119.876831 
	C752.890869,117.944557 756.296753,117.751892 759.005676,121.416626 
M753.690063,121.752777 
	C751.658447,122.519928 750.680542,123.947586 752.057373,125.819702 
	C753.014465,127.121094 754.848206,127.157982 755.846497,125.819885 
	C757.208069,123.995003 756.482910,122.495689 753.690063,121.752777 
z"/>
<path fill="#000000" opacity="1.000000" stroke="none" 
	d="
M290.758728,72.985413 
	C290.469971,67.436241 294.001404,67.619499 297.477203,67.647163 
	C300.457520,67.670876 301.662048,69.203178 301.520355,72.068634 
	C301.368896,75.130684 301.514587,78.272964 297.035461,78.320305 
	C293.542664,78.357224 290.531464,78.045967 290.758728,72.985413 
M293.654999,74.146385 
	C295.242371,76.420670 296.949982,76.142929 298.276672,74.053505 
	C299.027374,72.871185 298.682983,71.275261 297.186890,70.783417 
	C294.941315,70.045166 293.854614,71.355309 293.654999,74.146385 
z"/>
<path fill="#000000" opacity="1.000000" stroke="none" 
	d="
M177.141922,197.377396 
	C182.336060,194.629807 186.215393,195.137329 187.001556,198.431061 
	C187.530792,200.648331 187.952225,203.212585 185.995392,204.999863 
	C183.941956,206.875351 181.276611,206.500992 178.909149,205.746750 
	C176.226013,204.891953 176.732178,202.366638 176.713730,200.250488 
	C176.706558,199.427780 176.860413,198.603653 177.141922,197.377396 
M179.885681,199.367981 
	C179.002884,201.330261 179.083710,203.077301 181.595551,203.365311 
	C183.325317,203.563644 184.428314,202.127991 184.300629,200.540512 
	C184.084167,197.849777 182.245193,198.094711 179.885681,199.367981 
z"/>
<path fill="#000000" opacity="1.000000" stroke="none" 
	d="
M637.213379,180.207916 
	C633.198364,178.156876 634.598450,174.850433 635.055725,172.178360 
	C635.461670,169.805817 638.087097,170.125488 640.041199,169.954453 
	C644.133667,169.596252 645.065125,171.983139 645.193115,175.478073 
	C645.328491,179.177109 643.754150,180.691010 640.152405,180.333511 
	C639.330505,180.251923 638.496460,180.292023 637.213379,180.207916 
M638.277710,177.179153 
	C640.748901,178.366730 642.099915,177.353668 642.401489,174.868546 
	C642.597534,173.252747 641.537720,172.375977 639.973938,172.501923 
	C637.167664,172.727936 636.844482,174.403793 638.277710,177.179153 
z"/>
<path fill="#000000" opacity="1.000000" stroke="none" 
	d="
M873.537292,152.327484 
	C871.314148,155.899857 868.271423,155.103882 865.464783,154.343857 
	C863.168640,153.722076 863.786194,151.475372 863.630127,149.731537 
	C863.323669,146.305634 864.476562,144.587234 868.301147,144.576324 
	C871.924072,144.565994 874.083069,145.500519 873.910461,149.472137 
	C873.874817,150.292358 873.740601,151.108292 873.537292,152.327484 
M870.919678,149.517365 
	C870.363647,147.120193 868.826538,146.533722 866.981079,147.906418 
	C865.629272,148.911987 865.679443,150.712036 866.999329,151.752457 
	C868.846985,153.208969 870.345398,152.665970 870.919678,149.517365 
z"/>
<path fill="#000000" opacity="1.000000" stroke="none" 
	d="
M753.054565,78.309280 
	C747.394653,77.761765 748.461914,73.776657 748.891663,70.739334 
	C749.461426,66.712395 753.014832,67.692757 755.680176,67.742836 
	C759.086914,67.806831 759.382324,70.235596 759.407471,72.977051 
	C759.445435,77.111954 757.367859,78.637268 753.054565,78.309280 
M753.651062,70.422562 
	C751.044556,71.219154 750.716980,72.957504 752.192871,74.887360 
	C753.094727,76.066658 754.737183,75.931770 755.637146,74.759636 
	C757.063721,72.901619 757.258362,71.101074 753.651062,70.422562 
z"/>
<path fill="#000000" opacity="1.000000" stroke="none" 
	d="
M526.760193,206.085114 
	C523.315857,206.113739 519.897766,206.585938 519.779602,202.097397 
	C519.717896,199.753403 518.805786,196.564209 522.283813,195.939804 
	C524.870544,195.475372 528.569031,194.260971 529.766846,197.706543 
	C530.748535,200.530487 531.871765,204.469574 526.760193,206.085114 
M523.968262,203.394135 
	C526.470520,203.785065 527.915527,202.899536 527.448853,200.195099 
	C527.172607,198.593872 525.791382,198.010300 524.424561,198.498093 
	C521.911865,199.394836 521.801025,201.112579 523.968262,203.394135 
z"/>
<path fill="#000000" opacity="1.000000" stroke="none" 
	d="
M125.713402,342.257996 
	C128.584549,342.037109 131.363205,341.543610 132.085953,344.924042 
	C132.406494,346.423309 132.845825,348.636688 130.565521,349.038361 
	C127.679031,349.546753 124.079948,350.416382 122.265182,347.576508 
	C120.760529,345.221985 123.206833,343.488831 125.713402,342.257996 
z"/>
<path fill="#000000" opacity="1.000000" stroke="none" 
	d="
M177.595642,94.580666 
	C179.640778,93.366020 181.505234,93.776878 183.314850,93.679192 
	C186.782715,93.491982 187.556961,95.592072 187.380768,98.488113 
	C187.223251,101.077003 187.119263,103.378510 183.387299,103.462730 
	C176.689423,103.613861 175.798630,102.561523 177.595642,94.580666 
M179.758209,99.914551 
	C180.874664,101.751457 182.307724,102.187836 183.484238,100.198364 
	C184.332565,98.763893 184.505997,96.619698 182.555328,96.022896 
	C180.042892,95.254227 179.697647,97.368965 179.758209,99.914551 
z"/>
<path fill="#000000" opacity="1.000000" stroke="none" 
	d="
M873.646606,70.875320 
	C873.327759,74.426064 874.770874,78.785110 868.967285,78.362892 
	C866.703430,78.198181 863.811646,78.679787 863.721130,75.395859 
	C863.650879,72.847252 862.165527,69.113655 865.777771,68.101646 
	C868.350525,67.380829 872.179260,65.947197 873.646606,70.875320 
M870.400452,75.163498 
	C872.373047,73.063873 871.547363,71.538170 869.255798,70.652580 
	C867.807129,70.092697 866.572937,70.873566 866.271179,72.405235 
	C865.700500,75.302368 867.366943,75.854881 870.400452,75.163498 
z"/>
<path fill="#000000" opacity="1.000000" stroke="none" 
	d="
M749.707764,196.679657 
	C757.293396,194.706894 759.327209,195.866760 759.266907,201.331390 
	C759.225525,205.079636 757.229309,206.162903 753.903931,206.176834 
	C750.560974,206.190826 748.411194,205.146622 748.685608,201.337784 
	C748.791626,199.866928 748.533386,198.345535 749.707764,196.679657 
M755.042480,198.476364 
	C752.476807,198.042145 751.125366,199.060303 751.515625,201.712631 
	C751.757080,203.353577 753.146362,203.919632 754.527649,203.442947 
	C757.101196,202.554749 757.121643,200.792191 755.042480,198.476364 
z"/>
<path fill="#000000" opacity="1.000000" stroke="none" 
	d="
M635.640869,196.621994 
	C643.532166,194.777664 645.403137,195.979248 645.073059,201.868515 
	C644.875122,205.399872 642.895325,206.269974 639.826172,206.154556 
	C636.900513,206.044525 634.531433,205.445328 634.700745,201.767853 
	C634.775696,200.140350 634.449585,198.466904 635.640869,196.621994 
M640.887573,203.362854 
	C642.776733,201.908020 643.477539,200.172058 641.207642,198.662155 
	C640.000061,197.858871 638.090881,197.846863 637.456421,199.636032 
	C636.640564,201.937042 637.489319,203.501022 640.887573,203.362854 
z"/>
<path fill="#000000" opacity="1.000000" stroke="none" 
	d="
M872.348267,179.847717 
	C868.658997,179.799744 863.979187,182.635117 863.597290,175.983887 
	C863.357910,171.812988 864.723938,169.885452 869.103516,170.007065 
	C873.680908,170.134186 874.016907,173.038223 873.769592,176.404251 
	C873.689270,177.497864 873.090637,178.553391 872.348267,179.847717 
M867.829956,172.614029 
	C865.681885,173.990875 865.323120,175.819611 867.270813,177.411667 
	C868.526855,178.438293 870.277649,178.023224 871.011169,176.350632 
	C872.043396,173.997192 871.393799,172.452072 867.829956,172.614029 
z"/>
<path fill="#000000" opacity="1.000000" stroke="none" 
	d="
M753.988037,93.683990 
	C758.651001,93.224586 759.347900,95.671043 759.325195,99.158440 
	C759.298157,103.322014 756.701294,103.339523 753.666931,103.377052 
	C750.605286,103.414917 748.603760,102.878288 748.629272,99.120712 
	C748.653137,95.611725 749.335205,93.205444 753.988037,93.683990 
M751.738220,97.248177 
	C751.223145,99.526100 751.635620,101.471848 754.400818,101.209053 
	C756.142761,101.043503 756.592651,99.231087 756.101685,97.687523 
	C755.364990,95.371414 753.913147,94.946655 751.738220,97.248177 
z"/>
<path fill="#000000" opacity="1.000000" stroke="none" 
	d="
M645.079956,72.864395 
	C645.347839,77.141815 643.651672,78.756996 639.722412,78.354324 
	C637.067444,78.082237 634.530273,77.994278 634.793518,74.368484 
	C634.999329,71.532402 634.147278,68.085693 638.798340,67.773933 
	C642.371704,67.534409 645.240723,67.845627 645.079956,72.864395 
M636.565063,73.957169 
	C638.405334,76.190643 640.387512,76.431267 642.134338,74.004524 
	C642.966431,72.848457 642.746826,71.203178 641.259094,70.702217 
	C638.949463,69.924477 636.562134,69.704590 636.565063,73.957169 
z"/>
<path fill="#000000" opacity="1.000000" stroke="none" 
	d="
M527.765259,103.229530 
	C523.645996,103.296906 519.382812,104.568176 519.622314,98.212700 
	C519.769775,94.299446 521.669983,93.606323 524.955322,93.617538 
	C528.169983,93.628517 530.578247,94.138786 530.326172,98.118263 
	C530.203430,100.055641 530.627625,102.187370 527.765259,103.229530 
M527.299866,98.966797 
	C527.618469,97.360703 527.529114,95.880020 525.519470,95.615852 
	C524.219421,95.444954 523.399780,96.317062 522.945129,97.492683 
	C522.445374,98.784904 522.135315,100.192230 523.519470,101.026360 
	C525.149048,102.008377 526.305786,101.119820 527.299866,98.966797 
z"/>
<path fill="#000000" opacity="1.000000" stroke="none" 
	d="
M127.329811,376.794617 
	C130.241974,376.958740 133.416763,377.135834 132.021805,380.706726 
	C130.182205,385.415802 125.949791,382.490265 122.509735,383.099304 
	C122.509735,380.902374 122.509735,379.146606 122.509735,377.523682 
	C123.979515,376.281067 125.505966,376.769989 127.329811,376.794617 
z"/>
<path fill="#000000" opacity="1.000000" stroke="none" 
	d="
M639.009827,103.340759 
	C633.571289,103.490883 634.668579,99.840530 634.761597,97.050713 
	C634.914062,92.480156 638.534790,93.858162 641.085144,93.718666 
	C644.984436,93.505379 645.011414,96.343773 645.105469,99.127853 
	C645.246094,103.292747 642.548340,103.546165 639.009827,103.340759 
M637.416382,99.993736 
	C638.441162,101.784309 639.927917,102.050407 641.496826,100.918610 
	C642.654968,100.083099 642.824280,98.706535 642.356384,97.371468 
	C641.914673,96.110954 640.814270,95.688057 639.617065,95.788948 
	C637.448975,95.971695 637.119995,97.516853 637.416382,99.993736 
z"/>
<path fill="#000000" opacity="1.000000" stroke="none" 
	d="
M919.991943,384.245575 
	C921.932434,381.902557 922.850037,383.109497 922.914307,384.940765 
	C923.062805,389.179626 923.641418,393.471039 922.194580,398.898438 
	C918.865356,393.755035 919.305237,389.158081 919.991943,384.245575 
z"/>
<path fill="#000000" opacity="1.000000" stroke="none" 
	d="
M591.395874,225.030548 
	C593.173157,225.330215 594.866150,224.887573 595.808044,227.338455 
	C590.451538,228.517487 585.430664,228.767548 580.471069,226.446411 
	C583.828308,224.308884 587.466248,225.184647 591.395874,225.030548 
z"/>
<path fill="#000000" opacity="1.000000" stroke="none" 
	d="
M866.144897,93.801468 
	C866.930542,93.721512 867.262878,93.677750 867.592163,93.694496 
	C870.109375,93.822578 873.264221,92.858498 873.637939,96.902344 
	C873.844910,99.140854 874.678955,102.037979 871.873352,102.957146 
	C869.498962,103.735062 865.920776,104.536324 864.490662,102.153755 
	C863.051758,99.756454 862.193054,96.163376 866.144897,93.801468 
M865.581665,99.229057 
	C866.040588,101.201508 867.313232,101.952591 869.197144,101.378792 
	C870.795044,100.892097 871.421692,99.545822 871.431763,97.966431 
	C871.441528,96.439209 870.628967,95.571800 869.066772,95.438545 
	C866.795654,95.244812 865.818970,96.495491 865.581665,99.229057 
z"/>
<path fill="#000000" opacity="1.000000" stroke="none" 
	d="
M462.122406,443.474030 
	C459.836029,447.834473 459.286011,447.899628 454.867004,444.396820 
	C456.923004,441.910309 459.061432,440.851562 462.122406,443.474030 
z"/>
<path fill="#000000" opacity="1.000000" stroke="none" 
	d="
M544.162659,441.997864 
	C545.987122,442.297974 547.289795,442.902100 548.090637,444.442139 
	C545.779114,447.408234 543.491760,447.852234 541.077820,444.615845 
	C541.353882,442.973846 542.595459,442.505890 544.162659,441.997864 
z"/>
<path fill="#000000" opacity="1.000000" stroke="none" 
	d="
M498.664429,442.843384 
	C501.655029,440.956482 503.758606,441.769287 505.550049,444.240265 
	C500.751129,447.067627 498.999542,446.756409 498.664429,442.843384 
z"/>
</svg>